<?xml version="1.0" encoding="utf-8"?>
<!-- Generator: Adobe Illustrator 26.5.0, SVG Export Plug-In . SVG Version: 6.00 Build 0)  -->
<svg version="1.1" id="Layer_1" xmlns="http://www.w3.org/2000/svg" xmlns:xlink="http://www.w3.org/1999/xlink" x="0px" y="0px"
	 viewBox="0 0 133 37" style="enable-background:new 0 0 133 37;" xml:space="preserve">
<style type="text/css">
	.st0{fill-rule:evenodd;clip-rule:evenodd;fill:#191F2A;}
	.st1{fill:#00C213;}
	.st2{fill-rule:evenodd;clip-rule:evenodd;fill:#00C213;}
</style>
<path class="st0" d="M15.1,0H124c5,0,9,4,9,8.1v19c0,5.9-4,9-9,9H15.1C11,36.1,0,24,0,18.1l0,0C0,14,11,0,15.1,0z"/>
<g>
	<path class="st1" d="M27.3,19.1c0.7,0.6,0.7,1.5,0.2,2.2c-0.6,0.7-1.5,0.7-2.2,0.2L23.5,20v5.1c0,0.9-0.7,1.6-1.6,1.6
		c-0.9,0-1.6-0.7-1.6-1.6V20l-1.7,1.5c-0.7,0.6-1.6,0.5-2.2-0.2c-0.6-0.7-0.5-1.6,0.2-2.2l4.3-3.6c0.3-0.2,0.6-0.4,1-0.4
		c0.4,0,0.7,0.1,1,0.4L27.3,19.1z M18.7,16.4l3.3-2.8l3.3,2.8c0.7,0.6,1.6,0.5,2.2-0.2c0.6-0.7,0.5-1.6-0.2-2.2L23,10.4
		c-0.3-0.2-0.6-0.4-1-0.4c-0.4,0-0.7,0.1-1,0.4L16.7,14c-0.7,0.6-0.7,1.5-0.2,2.2C17.1,16.9,18,17,18.7,16.4z"/>
</g>
<g>
<text class="st2" x='35' y='24.8'>18321,00</text>
	<!-- <path class="st2" d="M116.9,24.8c-3.3,0-5.3-2.6-5.3-7.2c0-4.5,2-7.1,5.3-7.1s5.3,2.6,5.3,7.1C122.2,22.2,120.2,24.8,116.9,24.8z
		 M116.9,12.6c-1.7,0-2.8,1.7-2.8,5c0,3.3,1.1,5,2.8,5c1.7,0,2.8-1.7,2.8-5C119.7,14.3,118.6,12.6,116.9,12.6z M104.2,24.8
		c-3.3,0-5.3-2.6-5.3-7.2c0-4.5,2-7.1,5.3-7.1c3.3,0,5.3,2.6,5.3,7.1C109.5,22.2,107.5,24.8,104.2,24.8z M104.2,12.6
		c-1.7,0-2.8,1.7-2.8,5c0,3.3,1.1,5,2.8,5c1.7,0,2.8-1.7,2.8-5C107,14.3,105.9,12.6,104.2,12.6z M95.6,24.7c-0.8,0-1.5-0.7-1.5-1.5
		c0-0.8,0.7-1.5,1.5-1.5c0.8,0,1.5,0.7,1.5,1.5C97.1,24,96.4,24.7,95.6,24.7z M88.8,13.1L88.8,13.1l-3.3,2.1v-2.3l3.4-2.2h2.4v13.8
		h-2.5V13.1z M73.9,22.7l4.8-4.7c1.4-1.4,2.1-2.2,2.1-3.4c0-1.3-1-2.1-2.3-2.1c-1.4,0-2.3,0.9-2.3,2.3h-2.4c0-2.6,1.9-4.3,4.7-4.3
		c2.8,0,4.7,1.7,4.7,4c0,1.6-0.7,2.8-3.4,5.4l-2.4,2.4v0.1h6v2.1h-9.5V22.7z M71.6,20.7c0,2.3-2.1,4-5.1,4c-2.9,0-5-1.6-5.1-3.9H64
		c0.1,1.1,1.1,1.8,2.5,1.8c1.5,0,2.5-0.8,2.5-2.1c0-1.2-1-2.1-2.8-2.1H65v-1.9h1.2c1.4,0,2.4-0.8,2.4-2c0-1.2-0.8-1.9-2.1-1.9
		c-1.3,0-2.4,0.7-2.4,1.9h-2.4c0.1-2.3,2.1-3.9,4.8-3.9c2.8,0,4.6,1.7,4.5,3.8c0,1.6-1,2.7-2.5,3v0.1C70.5,17.7,71.6,18.9,71.6,20.7
		z M57.9,27.9h-1.6c0.2-0.8,0.7-2.7,0.8-4.5l0-0.8h2.2l-0.1,0.7C59,25.1,58.3,27,57.9,27.9z M54.6,20.8c0,2.2-2.1,3.9-5.1,3.9
		c-3,0-5.1-1.6-5.1-3.9c0-1.7,1.3-3.2,2.9-3.4v-0.1c-1.4-0.3-2.4-1.6-2.4-3.1c0-2.1,1.9-3.7,4.6-3.7c2.7,0,4.6,1.6,4.6,3.7
		c0,1.5-1,2.8-2.4,3.1v0.1C53.3,17.6,54.6,19.1,54.6,20.8z M49.4,12.5c-1.3,0-2.2,0.8-2.2,2c0,1.2,0.9,2,2.2,2c1.3,0,2.2-0.8,2.2-2
		C51.6,13.3,50.7,12.5,49.4,12.5z M49.4,18.4c-1.5,0-2.6,0.9-2.6,2.3c0,1.3,1,2.1,2.6,2.1c1.5,0,2.5-0.9,2.6-2.1
		C52,19.3,50.9,18.4,49.4,18.4z M38.5,13.1L38.5,13.1l-3.3,2.1v-2.3l3.4-2.2H41v13.8h-2.5V13.1z"/> -->
</g>
</svg>
