<?xml version="1.0" encoding="utf-8"?>
<!-- Generator: Adobe Illustrator 26.3.1, SVG Export Plug-In . SVG Version: 6.00 Build 0)  -->
<svg version="1.1" id="Layer_1" xmlns="http://www.w3.org/2000/svg" xmlns:xlink="http://www.w3.org/1999/xlink" x="0px" y="0px"
	 viewBox="0 0 5480 720" style="enable-background:new 0 0 5480 720;" xml:space="preserve">
<style type="text/css">
	.st0{fill:#FFFFFF;}
</style>
<path class="st0" d="M719.5,340.3c-1.3-24.4-5.1-48.1-11-71c-3.5-13.7-7.9-27-12.9-40C670.1,164,626.1,107.9,570,67.6
	c-36.8-26.5-78.7-46.1-124-57.2C418.4,3.6,389.6,0,360,0s-58.4,3.6-86,10.3c-45.3,11.1-87.2,30.8-124,57.2
	C93.9,107.9,49.9,164,24.5,229.3c-5.1,13-9.4,26.3-12.9,40c-5.9,22.9-9.7,46.6-11,71C0.2,346.8,0,353.4,0,360
	c0,6.8,0.2,13.6,0.6,20.3c1.3,23.7,4.9,46.8,10.6,69c3.5,13.7,7.8,27,12.8,40C49.3,555.2,93.5,611.8,150,652.4
	c36.8,26.4,78.7,46.1,124,57.2c27.6,6.8,56.4,10.3,86,10.3s58.4-3.6,86-10.3c45.3-11.1,87.2-30.8,124-57.2
	c56.5-40.6,100.7-97.2,126.1-163.1c5-13,9.3-26.3,12.8-40c5.7-22.2,9.3-45.3,10.6-69c0.4-6.7,0.6-13.5,0.6-20.3
	C720,353.4,719.8,346.8,719.5,340.3z"/>
<path d="M249,342.3l93.3-93.3c7.8-7.8,7.8-20.5,0-28.3s-20.5-7.8-28.3,0L220.7,314c-7.8,7.8-7.8,20.5,0,28.3S241.2,350.1,249,342.3z
	"/>
<path d="M469.6,376.3l-93.3,93.3c-7.8,7.8-7.8,20.5,0,28.3s20.5,7.8,28.3,0l93.3-93.3c7.8-7.8,7.8-20.5,0-28.3
	C490.1,368.5,477.4,368.5,469.6,376.3z"/>
<path d="M480.2,211.5L211.5,480.2c-7.8,7.8-7.8,20.5,0,28.3c7.8,7.8,20.5,7.8,28.3,0l268.7-268.7c7.8-7.8,7.8-20.5,0-28.3
	C500.7,203.7,488,203.7,480.2,211.5z"/>
<path class="st0" d="M1145.2,226.4c18.1,8.3,32.2,20.1,42.1,35.5c9.8,15.4,14.7,33.5,14.7,54.5c0,20.8-4.9,38.8-14.7,54.2
	c-9.8,15.5-23.9,27.3-42.1,35.5c-18.2,8.2-39.6,12.3-64.4,12.3h-53.7c-1.3,0-2.4,1.1-2.4,2.4v73c0,1.3-1.1,2.4-2.5,2.4h-59.7
	c-1.3,0-2.5-1.1-2.5-2.4V216.4c0-1.3,1.1-2.4,2.5-2.4h118.3C1105.6,213.9,1127,218.1,1145.2,226.4z M1121.5,352.5
	c10.1-8.4,15.2-20.5,15.2-36.1c0-15.9-5-28.1-15.2-36.5c-10.1-8.4-24.9-12.7-44.3-12.7h-50.2c-1.3,0-2.4,1.1-2.4,2.4v93.2
	c0,1.3,1.1,2.4,2.4,2.4h50.2C1096.6,365.2,1111.3,361.1,1121.5,352.5z"/>
<path class="st0" d="M1468.1,407.9c-0.8-1.2-0.4-2.9,1-3.7c17-8.1,30.3-19.3,39.8-33.7c9.9-15.1,15-33.3,15-54.2
	c0-21-4.9-39.2-14.7-54.5c-9.8-15.4-23.9-27.1-42.1-35.5c-18.2-8.3-39.6-12.5-64.4-12.5h-118.3c-1.3,0-2.5,1.1-2.5,2.4v48.3
	c0,1.3,1.1,2.4,2.5,2.4h62.2h13.2h39.4c19.4,0,34.1,4.3,44.3,12.7c10.1,8.4,15.2,20.6,15.2,36.5c0,15.6-5,27.7-15.2,36.3
	c-10.1,8.7-24.9,12.9-44.3,12.9h-39.4h-13.2h-62.2c-1.3,0-2.5,1.1-2.5,2.4v125.9c0,1.3,1.1,2.4,2.5,2.4h59.7c1.3,0,2.4-1.1,2.4-2.4
	v-73.7c0-1.3,1.1-2.4,2.5-2.4h53.7h1.8c0.9,0,1.6,0.4,2.1,1.1l52.4,76.6c0.5,0.6,1.2,1.1,2.1,1.1h63.4c2,0,3.2-2.2,2-3.8
	L1468.1,407.9z"/>
<path class="st0" d="M2030.5,490.7c-15.2-6.8-27.7-16.5-37.7-28.9c-0.7-0.9-0.7-2.2,0-3.1l32.6-39.7c1-1.2,2.8-1.2,3.8,0
	c14.7,19,31.4,28.6,50,28.6c26.4,0,39.5-15.6,39.5-46.8V268.9c0-1.3-1.1-2.4-2.5-2.4h-93.2c-1.4,0-2.5-1.1-2.5-2.4v-47.6
	c0-1.3,1.1-2.4,2.5-2.4h157.3c1.4,0,2.4,1.1,2.4,2.4v180.7c0,34.7-8.5,60.7-25.5,78c-17,17.3-41.9,26-74.9,26
	C2063.6,501.3,2046.4,497.7,2030.5,490.7z"/>
<path class="st0" d="M3031.5,267.2h-84.4c-1.4,0-2.5-1.1-2.5-2.4v-48.3c0-1.3,1.1-2.4,2.5-2.4h238.3c1.3,0,2.4,1.1,2.4,2.4v48.3
	c0,1.3-1.1,2.4-2.4,2.4H3101c-1.4,0-2.4,1.1-2.4,2.4v224.3c0,1.3-1.1,2.4-2.5,2.4h-59.7c-1.4,0-2.5-1.1-2.5-2.4V269.6
	C3033.9,268.3,3032.8,267.2,3031.5,267.2z"/>
<path class="st0" d="M1681.3,487c-23.3-12.7-41.5-30-54.6-52.3c-13.1-22.2-19.7-47.1-19.7-74.8c0-27.7,6.6-52.6,19.7-74.8
	c13.1-22.2,31.4-39.6,54.6-52.3c23.3-12.7,49.4-18.9,78.4-18.9c28.9,0,55.1,6.3,78.1,18.9c23.2,12.7,41.3,30,54.6,52.3
	c13.2,22.2,20,47.1,20,74.8c0,27.7-6.6,52.6-20,74.8c-13.2,22.2-31.5,39.6-54.6,52.3c-23.2,12.7-49.2,18.9-78.1,18.9
	C1730.7,506,1704.6,499.6,1681.3,487z M1804.3,438.8c13.2-7.7,23.7-18.3,31.3-32.1c7.6-13.8,11.4-29.3,11.4-46.8
	c0-17.5-3.8-33.1-11.4-46.8c-7.6-13.7-18-24.4-31.3-32.1c-13.2-7.7-28.2-11.5-44.6-11.5c-16.4,0-31.4,3.8-44.6,11.5
	c-13.2,7.7-23.7,18.3-31.3,32.1c-7.6,13.7-11.4,29.3-11.4,46.8c0,17.5,3.8,33.1,11.4,46.8c7.6,13.7,18,24.4,31.3,32.1
	c13.2,7.7,28.2,11.5,44.6,11.5C1776.2,450.3,1791.1,446.4,1804.3,438.8z"/>
<path class="st0" d="M2283,446.4V494c0,1.3,1.1,2.4,2.4,2.4h211.2c1.3,0,2.4-1.1,2.4-2.4v-47.6c0-1.3-1.1-2.4-2.4-2.4h-149.4h-61.7
	C2284.1,444,2283,445.1,2283,446.4z"/>
<path class="st0" d="M2499.1,263.3v-46.9c0-1.3-1.1-2.4-2.4-2.4h-211.2c-1.3,0-2.4,1.1-2.4,2.4v46.9c0,1.3,1.1,2.4,2.4,2.4h211.2
	C2497.9,265.7,2499.1,264.6,2499.1,263.3z"/>
<path class="st0" d="M2283,330.3v45.5c0,1.3,1.1,2.4,2.4,2.4h211.4c1.3,0,2.4-1.1,2.4-2.4v-45.5c0-1.3-1.1-2.4-2.4-2.4h-211.4
	C2284.1,327.9,2283,328.9,2283,330.3z"/>
<path class="st0" d="M2673.2,487.2c-22.9-12.5-41.1-29.9-54.2-52c-13.1-22.2-19.8-47.2-19.8-75.2c0-28,6.6-53.1,19.8-75.2
	c13.1-22.2,31.3-39.6,54.2-52s48.8-18.8,77.5-18.8c24.1,0,46.1,4.3,65.6,12.9c18.8,8.3,34.7,20,47.7,35.3c0.9,1,0.7,2.4-0.2,3.4
	l-37.9,35.4c-1,1-2.6,0.9-3.6-0.1c-18.6-20.8-41.5-31.1-68.6-31.1c-17.3,0-32.7,3.8-46.2,11.5c-13.6,7.7-24.2,18.3-31.6,32.1
	c-7.6,13.7-11.4,29.3-11.4,46.8c0,17.5,3.8,33.1,11.4,46.8c7.6,13.7,18.2,24.4,31.6,32.1c13.6,7.7,28.9,11.5,46.2,11.5
	c27.1,0,49.9-10.5,68.6-31.5c1-1.1,2.6-1.1,3.6-0.2l37.9,35.4c1,0.9,1.1,2.3,0.2,3.3c-13,15.5-29.1,27.5-47.9,35.8
	c-19.6,8.5-41.6,12.9-65.7,12.9C2721.9,506,2696.2,499.7,2673.2,487.2z"/>
<path class="st0" d="M3636.4,355.5h54.1c1.4,0,2.5,1.1,2.5,2.4v111c0,0.7-0.4,1.5-1,2c-15,11.2-32.1,19.8-51.6,25.9
	c-20,6.2-40,9.3-60.2,9.3c-28.9,0-55.1-6.2-78.1-18.8c-23.1-12.6-41.2-29.9-54.4-52c-13.1-22.2-19.8-47.2-19.8-75.2
	c0-28,6.6-53.1,19.8-75.2c13.1-22.2,31.4-39.6,54.8-52c23.4-12.5,49.7-18.8,79-18.8c24.4,0,46.6,4.2,66.6,12.5
	c19.1,8.1,35.4,19.5,48.7,34.6c0.9,1,0.7,2.4-0.1,3.4l-38,35.5c-1,1-2.5,0.9-3.4-0.1c-19.6-20-43-30.2-70.5-30.2
	c-17.8,0-33.6,3.8-47.5,11.4c-13.9,7.6-24.5,18.2-32.2,31.9c-7.7,13.7-11.5,29.4-11.5,47.2c0,17.5,3.8,33.1,11.5,46.8
	c7.7,13.7,18.4,24.4,32.1,32.1c13.7,7.7,29.3,11.5,46.8,11.5c18,0,34.3-3.8,48.9-11.4c0.9-0.4,1.4-1.2,1.4-2.2v-78.7
	C3634,356.6,3635.1,355.5,3636.4,355.5z"/>
<path class="st0" d="M4169.5,214h59.7c1.3,0,2.4,1.1,2.4,2.4v224.3c0,1.3,1.1,2.4,2.5,2.4h135c1.4,0,2.4,1.1,2.4,2.4V494
	c0,1.3-1.1,2.4-2.4,2.4h-199.6c-1.4,0-2.5-1.1-2.5-2.4V216.4C4167,215.1,4168.1,214,4169.5,214z"/>
<path class="st0" d="M5370.8,397V494c0,1.3-1.1,2.4-2.5,2.4h-59.7c-1.4,0-2.4-1.1-2.4-2.4v-97.8c0-0.5-0.1-0.9-0.4-1.2l-105.5-177.3
	c-1-1.6,0.2-3.7,2.1-3.7h62.9c0.9,0,1.7,0.5,2.1,1.2l71.7,120.7c1,1.6,3.3,1.6,4.2,0l71.7-120.7c0.5-0.7,1.2-1.2,2.1-1.2h57.6
	c1.8,0,3.1,2.1,2.1,3.7l-106,178.1C5370.9,396.2,5370.8,396.6,5370.8,397z"/>
<path class="st0" d="M3962.3,214h-60.6c-1,0-1.8,0.6-2.2,1.5L3777.2,493c-0.7,1.6,0.5,3.4,2.2,3.4h60.8c1,0,1.8-0.6,2.3-1.5l24.2-59
	l20.7-49.6l41.9-102.6c0.9-2.1,3.7-2.1,4.5,0l41.9,102.6l20.4,49.6l24,59c0.4,1,1.2,1.5,2.3,1.5h62.4c1.7,0,2.9-1.8,2.2-3.4
	l-122.6-277.5C3964.1,214.6,3963.2,214,3962.3,214z"/>
<path class="st0" d="M4637.3,214h-60.6c-1,0-1.8,0.6-2.2,1.5L4452.2,493c-0.7,1.6,0.5,3.4,2.2,3.4h60.8c1,0,1.8-0.6,2.3-1.5l24.2-59
	l20.7-49.6l41.9-102.6c0.9-2.1,3.7-2.1,4.5,0l41.9,102.6l20.4,49.6l24,59c0.4,1,1.2,1.5,2.3,1.5h62.4c1.7,0,2.9-1.8,2.2-3.4
	l-122.6-277.5C4639.1,214.6,4638.2,214,4637.3,214z"/>
<path class="st0" d="M4948.3,256.9l-29.3-41.8c-0.5-0.6-1.2-1.1-2-1.1h-67.3c-2,0-3.2,2.2-2,3.9l60.7,85.8c1,1.3,2.9,1.3,3.9,0.1
	l36.1-44.1C4948.8,258.9,4948.9,257.7,4948.3,256.9z"/>
<path class="st0" d="M5050.4,401.4l-35.4,44.8c-0.6,0.9-0.7,2-0.1,2.9l31.8,46.3c0.5,0.6,1.2,1.1,2.1,1.1h68.5c2,0,3.2-2.2,2-3.9
	l-64.9-91C5053.4,400.2,5051.4,400.2,5050.4,401.4z"/>
<path class="st0" d="M5017.9,350.4l94.5-132.5c1.1-1.6,0-3.9-2-3.9h-63.8c-0.9,0-1.6,0.4-2.1,1.1l-62.2,90.5c0,0.1-0.1,0.1-0.1,0.1
	l-39.4,47l-0.1,0.1l-100.4,139.7c-1.1,1.6,0,3.9,2,3.9h68.1c0.9,0,1.6-0.4,2.1-1.1l65.4-96.9l0.1-0.1L5017.9,350.4z"/>
</svg>
