<?xml version="1.0" encoding="utf-8"?>
<!-- Generator: Adobe Illustrator 25.2.1, SVG Export Plug-In . SVG Version: 6.00 Build 0)  -->
<svg version="1.1" id="Layer_1" xmlns="http://www.w3.org/2000/svg" xmlns:xlink="http://www.w3.org/1999/xlink" x="0px" y="0px"
	 viewBox="0 0 240 240" style="enable-background:new 0 0 240 240;" xml:space="preserve">
<style type="text/css">
	.st0{fill:none;stroke:#6C6C6C;}
	.st1{fill:#6C6C6C;}
</style>
<path class="st0" d="M89.39,206.61c-7,0-5.81-2.64-8.23-9.31l-20.59-67.76l158.48-94.02"/>
<path class="st1" d="M89.39,206.61c5.4,0,7.79-2.47,10.81-5.4l28.81-28.02l-35.94-21.67"/>
<path class="st1" d="M93.06,151.52l87.09,64.34c9.94,5.48,17.11,2.64,19.59-9.23l35.45-167.05c3.63-14.55-5.55-21.15-15.05-16.83
	L11.97,103.02c-14.21,5.7-14.13,13.63-2.59,17.16l53.42,16.67l123.67-78.02c5.84-3.54,11.2-1.64,6.8,2.27"/>
</svg>
