<?xml version="1.0" encoding="utf-8"?>
<!-- Generator: Adobe Illustrator 25.4.1, SVG Export Plug-In . SVG Version: 6.00 Build 0)  -->
<svg version="1.1" id="Layer_1" xmlns="http://www.w3.org/2000/svg" xmlns:xlink="http://www.w3.org/1999/xlink" x="0px" y="0px"
	 viewBox="0 0 176.6 180.2" style="enable-background:new 0 0 176.6 180.2;" xml:space="preserve">
<style type="text/css">
	.st0{fill:#E82127;}
</style>
<g>
	<path class="st0" d="M88.3,178.4L113,38.9c23.6,0,31,2.5,32.1,13.1c0,0,15.8-5.9,23.8-17.9C137.8,19.6,106.6,19,106.6,19L88.3,41.3
		l0,0L70.1,19c0,0-31.2,0.7-62.3,15.1c8,12.1,23.8,17.9,23.8,17.9c1.1-10.6,8.5-13.1,31.9-13.2L88.3,178.4"/>
	<path class="st0" d="M88.3,12.6c25.1-0.2,53.9,3.9,83.4,16.8c3.9-7.2,4.9-10.3,4.9-10.3C144.4,6.3,114.2,1.9,88.3,1.8
		C62.3,1.9,32.2,6.3,0,19c0,0,1.4,3.9,4.9,10.3C34.4,16.5,63.2,12.4,88.3,12.6L88.3,12.6"/>
</g>
</svg>
