<?xml version="1.0" encoding="utf-8"?>
<!-- Generator: Adobe Illustrator 26.3.1, SVG Export Plug-In . SVG Version: 6.00 Build 0)  -->
<svg version="1.1" id="Layer_1" xmlns="http://www.w3.org/2000/svg" xmlns:xlink="http://www.w3.org/1999/xlink" x="0px" y="0px"
	 viewBox="0 0 255.8 58" style="enable-background:new 0 0 255.8 58;" xml:space="preserve">
<style type="text/css">
	.st0{fill:#FFFFFF;}
	.st1{fill-rule:evenodd;clip-rule:evenodd;fill:#2FE9FF;}
	.st2{fill-rule:evenodd;clip-rule:evenodd;fill:#FFFFFF;}
</style>
<g id="Logo-Full-Dark">
	<g id="Unstoppable-Domains---Logo---Dark" transform="translate(52.000000, 61.000000)">
		<path id="UNSTOPPABLEDOMAINS" class="st0" d="M55.5-27.7c1.6,0,3.1,0.3,4.4,1c1.3,0.7,2.3,1.6,3.1,2.9s1.1,2.6,1.1,4.1
			s-0.4,2.9-1.1,4.1c-0.7,1.2-1.8,2.2-3.1,2.9c-1.3,0.7-2.8,1-4.4,1c-1.6,0-3.1-0.3-4.4-1c-1.3-0.7-2.3-1.6-3.1-2.9
			c-0.7-1.2-1.1-2.6-1.1-4.1s0.4-2.9,1.1-4.1s1.8-2.2,3.1-2.9C52.4-27.4,53.8-27.7,55.5-27.7z M135.8-27.7c1,0,2,0.1,3,0.3
			c1,0.2,1.8,0.6,2.6,1l-1.3,3.2c-1.5-0.8-2.9-1.2-4.3-1.2c-0.9,0-1.5,0.1-1.9,0.4s-0.6,0.6-0.6,1c0,0.4,0.2,0.7,0.7,0.9
			c0.5,0.2,1.2,0.4,2.3,0.6c1.2,0.2,2.1,0.5,2.9,0.8c0.8,0.3,1.4,0.7,2,1.4c0.6,0.6,0.8,1.5,0.8,2.5c0,0.9-0.3,1.8-0.8,2.5
			c-0.5,0.7-1.3,1.3-2.3,1.8c-1,0.4-2.3,0.7-3.7,0.7c-1.2,0-2.5-0.2-3.6-0.5s-2.1-0.7-2.9-1.2l1.4-3.2c0.7,0.5,1.5,0.8,2.4,1.1
			c0.9,0.3,1.8,0.4,2.7,0.4c1.7,0,2.5-0.4,2.5-1.3c0-0.4-0.2-0.8-0.7-1c-0.5-0.2-1.2-0.4-2.3-0.7c-1.2-0.2-2.1-0.5-2.9-0.8
			c-0.8-0.3-1.4-0.7-2-1.4c-0.6-0.6-0.8-1.5-0.8-2.6c0-0.9,0.3-1.8,0.8-2.5s1.3-1.4,2.3-1.8C133.1-27.5,134.3-27.7,135.8-27.7z
			 M36.8-27.4c1.7,0,3.2,0.3,4.5,0.9c1.3,0.6,2.3,1.5,3,2.7c0.7,1.2,1.1,2.5,1.1,4.1c0,1.6-0.4,2.9-1.1,4.1c-0.7,1.2-1.7,2.1-3,2.7
			C40-12.3,38.5-12,36.8-12h-7.3v-15.4H36.8z M69.9-27.4l5.4,8.9l5.3-8.9h3.6l0,15.4h-4l0-8.2l-4,6.6h-1.9l-3.9-6.4v7.9h-4v-15.4
			H69.9z M96.6-27.4l6.8,15.4h-4.5l-1.2-3h-6.5l-1.2,3h-4.4l6.8-15.4H96.6z M109-27.4V-12h-4.4v-15.4H109z M115.6-27.4l6.8,8.2v-8.2
			h4.3V-12h-3.6l-6.8-8.2v8.2h-4.3v-15.4H115.6z M55.5-24.1c-0.8,0-1.5,0.2-2.1,0.5c-0.6,0.4-1.1,0.9-1.5,1.6s-0.6,1.4-0.6,2.3
			s0.2,1.6,0.6,2.3c0.4,0.7,0.9,1.2,1.5,1.6c0.6,0.4,1.3,0.5,2.1,0.5c0.8,0,1.5-0.2,2.1-0.5c0.6-0.4,1.1-0.9,1.5-1.6
			c0.4-0.7,0.6-1.4,0.6-2.3s-0.2-1.6-0.6-2.3s-0.9-1.2-1.5-1.6C57-23.9,56.3-24.1,55.5-24.1z M36.6-23.9h-2.8v8.4h2.8
			c1.3,0,2.4-0.4,3.2-1.1c0.8-0.7,1.2-1.8,1.2-3.1s-0.4-2.4-1.2-3.1C39-23.6,38-23.9,36.6-23.9z M94.4-23.1l-2,4.9h4L94.4-23.1z
			 M33.8-51.4v8.4c0,2.5,1,3.7,2.9,3.7c1.9,0,2.9-1.2,2.9-3.7v-8.4h4.3v8.5c0,2.3-0.6,4.1-1.9,5.3c-1.3,1.2-3,1.9-5.3,1.9
			c-2.3,0-4.1-0.6-5.3-1.9c-1.3-1.2-1.9-3-1.9-5.3v-8.5H33.8z M100.5-51.7c1.6,0,3.1,0.3,4.4,1s2.3,1.6,3.1,2.9
			c0.7,1.2,1.1,2.6,1.1,4.1s-0.4,2.9-1.1,4.1c-0.7,1.2-1.8,2.2-3.1,2.9c-1.3,0.7-2.8,1-4.4,1s-3.1-0.3-4.4-1
			c-1.3-0.7-2.3-1.6-3.1-2.9c-0.7-1.2-1.1-2.6-1.1-4.1s0.4-2.9,1.1-4.1c0.7-1.2,1.8-2.2,3.1-2.9S98.9-51.7,100.5-51.7z M70.6-51.7
			c1,0,2,0.1,3,0.3c1,0.2,1.8,0.6,2.6,1l-1.3,3.2c-1.5-0.8-2.9-1.2-4.3-1.2c-0.9,0-1.5,0.1-1.9,0.4c-0.4,0.3-0.6,0.6-0.6,1
			c0,0.4,0.2,0.7,0.7,0.9c0.5,0.2,1.2,0.4,2.3,0.6c1.2,0.2,2.1,0.5,2.9,0.8s1.4,0.7,2,1.4c0.6,0.6,0.8,1.5,0.8,2.5
			c0,0.9-0.3,1.8-0.8,2.5c-0.5,0.7-1.3,1.3-2.3,1.8s-2.3,0.7-3.7,0.7c-1.2,0-2.5-0.2-3.6-0.5c-1.2-0.3-2.1-0.7-2.9-1.2l1.4-3.2
			c0.7,0.5,1.5,0.8,2.4,1.1c0.9,0.3,1.8,0.4,2.7,0.4c1.7,0,2.5-0.4,2.5-1.3c0-0.4-0.2-0.8-0.7-1s-1.2-0.4-2.3-0.7
			c-1.2-0.2-2.1-0.5-2.9-0.8c-0.8-0.3-1.4-0.7-2-1.4c-0.6-0.6-0.8-1.5-0.8-2.6c0-0.9,0.3-1.8,0.8-2.5s1.3-1.4,2.3-1.8
			S69.1-51.7,70.6-51.7z M91.1-51.4v3.5h-4.7V-36h-4.4v-11.9h-4.7v-3.5H91.1z M50.4-51.4l6.8,8.2v-8.2h4.3V-36h-3.6l-6.8-8.2v8.2
			h-4.3v-15.4H50.4z M118.4-51.4c1.4,0,2.6,0.2,3.6,0.7s1.8,1.1,2.4,2c0.6,0.9,0.8,1.9,0.8,3s-0.3,2.2-0.8,3c-0.6,0.9-1.3,1.5-2.4,2
			c-1,0.5-2.2,0.7-3.6,0.7h-2.7v4h-4.4v-15.4H118.4z M153-51.4l6.8,15.4h-4.5l-1.2-3h-6.5l-1.2,3H142l6.8-15.4H153z M169-51.4
			c2,0,3.5,0.4,4.5,1.1c1,0.7,1.5,1.7,1.5,2.9c0,0.7-0.2,1.4-0.5,2c-0.4,0.6-0.9,1-1.5,1.4c0.9,0.3,1.6,0.8,2.1,1.4s0.7,1.4,0.7,2.4
			c0,1.3-0.5,2.4-1.6,3.1c-1.1,0.7-2.7,1.1-4.7,1.1h-8.3v-15.4H169z M182.4-51.4v11.9h7.3v3.5H178v-15.4H182.4z M203.5-51.4v3.4
			h-7.8v2.6h6.8v3.3h-6.8v2.8h8.1v3.4h-12.4v-15.4H203.5z M134.6-51.4c1.4,0,2.6,0.2,3.6,0.7c1,0.5,1.8,1.1,2.4,2
			c0.6,0.9,0.8,1.9,0.8,3s-0.3,2.2-0.8,3c-0.6,0.9-1.3,1.5-2.4,2c-1,0.5-2.2,0.7-3.6,0.7h-2.7v4h-4.4v-15.4H134.6z M169.1-42.3h-3.7
			v3.1h3.7c1.5,0,2.3-0.5,2.3-1.6S170.6-42.3,169.1-42.3z M100.5-48.1c-0.8,0-1.5,0.2-2.1,0.5c-0.6,0.4-1.1,0.9-1.5,1.6
			s-0.5,1.4-0.5,2.3s0.2,1.6,0.5,2.3s0.9,1.2,1.5,1.6c0.6,0.4,1.3,0.5,2.1,0.5c0.8,0,1.5-0.2,2.1-0.5c0.6-0.4,1.1-0.9,1.5-1.6
			s0.6-1.4,0.6-2.3s-0.2-1.6-0.6-2.3s-0.9-1.2-1.5-1.6C102-47.9,101.3-48.1,100.5-48.1z M150.9-47.1l-2,4.9h4L150.9-47.1z M118.2-48
			h-2.4v4.5h2.4c0.9,0,1.6-0.2,2-0.6c0.5-0.4,0.7-0.9,0.7-1.7s-0.2-1.3-0.7-1.7C119.7-47.8,119.1-48,118.2-48z M134.4-48h-2.4v4.5
			h2.4c0.9,0,1.6-0.2,2-0.6s0.7-0.9,0.7-1.7s-0.2-1.3-0.7-1.7S135.3-48,134.4-48z M168.4-48.3h-3v3h3c1.5,0,2.2-0.5,2.2-1.5
			C170.6-47.8,169.9-48.3,168.4-48.3z"/>
		<g id="sign">
			<polygon id="Rectangle-Copy-3" class="st1" points="12,-60 12,-38 -52,-12 			"/>
			<path id="Path" class="st2" d="M0-61v38C0-12-9-3-20-3s-20-9-20-20v-16l12-6.6V-23c0,3.9,3.1,7,7,7s7-3.1,7-7v-30.3L0-61z"/>
		</g>
	</g>
</g>
</svg>
