<?xml version="1.0" encoding="utf-8"?>
<!-- Generator: Adobe Illustrator 27.1.1, SVG Export Plug-In . SVG Version: 6.00 Build 0)  -->
<svg version="1.1" id="Layer_1" xmlns="http://www.w3.org/2000/svg" xmlns:xlink="http://www.w3.org/1999/xlink" x="0px" y="0px"
	 viewBox="0 0 881.2 881.2" style="enable-background:new 0 0 881.2 881.2;" xml:space="preserve">
<style type="text/css">
	.st0{fill:#FFFFFF;}
</style>
<circle cx="440.6" cy="440.6" r="440.6"/>
<g>
	<path class="st0" d="M136.9,541.3H91.2l69.5-201.4h54.9L285,541.3h-45.6L189,385.9h-1.6L136.9,541.3z M134,462.1h107.8v33.2H134
		V462.1z"/>
	<path class="st0" d="M334,541.3h-45.6l69.5-201.4h54.9l69.4,201.4h-45.6l-50.4-155.4h-1.6L334,541.3z M331.1,462.1h107.8v33.2
		H331.1V462.1z"/>
	<path class="st0" d="M496.4,541.3V339.9h79.5c15.3,0,28.3,2.9,39,8.7c10.8,5.8,19,13.8,24.6,24.1c5.7,10.3,8.5,22.1,8.5,35.5
		c0,13.4-2.9,25.2-8.7,35.4c-5.8,10.2-14.1,18.2-25,23.9c-10.9,5.7-24.1,8.6-39.6,8.6h-50.6v-34.1h43.8c8.2,0,15-1.4,20.3-4.3
		c5.3-2.9,9.3-6.8,12-11.9c2.7-5.1,4-10.9,4-17.6c0-6.7-1.3-12.5-4-17.6c-2.7-5-6.7-8.9-12-11.7c-5.4-2.8-12.2-4.2-20.5-4.2H539
		v166.6H496.4z"/>
	<path class="st0" d="M665.8,541.3V339.9h42.6v166.3h86.3v35.1H665.8z"/>
</g>
</svg>
