<?xml version="1.0" encoding="utf-8"?>
<!-- Generator: Adobe Illustrator 27.2.0, SVG Export Plug-In . SVG Version: 6.00 Build 0)  -->
<svg version="1.1" id="Layer_1" xmlns="http://www.w3.org/2000/svg" xmlns:xlink="http://www.w3.org/1999/xlink" x="0px" y="0px"
	 viewBox="0 0 881.2 881.2" style="enable-background:new 0 0 881.2 881.2;" xml:space="preserve">
<style type="text/css">
	.st0{fill:#E31937;}
	.st1{fill:#FFFFFF;}
</style>
<circle class="st0" cx="440.6" cy="440.6" r="440.6"/>
<g>
	<path class="st1" d="M129.9,557H77.1l80.3-232.7h63.4L301.1,557h-52.7l-58.3-179.5h-1.8L129.9,557z M126.6,465.5h124.5v38.4H126.6
		V465.5z"/>
	<path class="st1" d="M317.5,324.2h60.7l64.1,156.4h2.7l64.1-156.4h60.7V557h-47.7V405.5h-1.9l-60.2,150.3h-32.5l-60.2-150.9h-1.9
		v152h-47.7V324.2z"/>
	<path class="st1" d="M804.1,405.7h-49.8c-0.9-6.4-2.8-12.2-5.6-17.2c-2.8-5-6.4-9.3-10.8-12.9c-4.4-3.6-9.5-6.3-15.2-8.2
		c-5.7-1.9-11.9-2.8-18.6-2.8c-12,0-22.5,3-31.5,8.9c-8.9,5.9-15.9,14.6-20.8,25.9c-4.9,11.3-7.4,25.1-7.4,41.2
		c0,16.6,2.5,30.5,7.4,41.8c5,11.3,11.9,19.8,20.9,25.6c8.9,5.8,19.3,8.6,31,8.6c6.6,0,12.7-0.9,18.4-2.6c5.6-1.7,10.7-4.3,15.1-7.7
		c4.4-3.4,8-7.5,11-12.3c2.9-4.8,4.9-10.4,6.1-16.6l49.8,0.2c-1.3,10.7-4.5,21-9.6,30.9c-5.1,9.9-12,18.7-20.6,26.5
		c-8.6,7.8-18.8,13.9-30.7,18.4c-11.9,4.5-25.2,6.8-40.2,6.8c-20.8,0-39.3-4.7-55.6-14.1c-16.3-9.4-29.2-23-38.6-40.8
		c-9.4-17.8-14.1-39.4-14.1-64.7c0-25.4,4.8-47,14.3-64.8c9.5-17.8,22.5-31.4,38.9-40.7c16.4-9.4,34.8-14,55.2-14
		c13.5,0,26,1.9,37.6,5.7c11.6,3.8,21.8,9.3,30.7,16.5c8.9,7.2,16.2,16.1,21.9,26.5C798.9,380.3,802.5,392.2,804.1,405.7z"/>
</g>
</svg>
