<?xml version="1.0" encoding="utf-8"?>
<!-- Generator: Adobe Illustrator 27.1.1, SVG Export Plug-In . SVG Version: 6.00 Build 0)  -->
<svg version="1.1" id="Layer_1" xmlns="http://www.w3.org/2000/svg" xmlns:xlink="http://www.w3.org/1999/xlink" x="0px" y="0px"
	 viewBox="0 0 881.2 881.2" style="enable-background:new 0 0 881.2 881.2;" xml:space="preserve">
<style type="text/css">
	.st0{fill:#FB9908;}
	.st1{fill:#FFFFFF;}
</style>
<circle class="st0" cx="440.6" cy="440.6" r="440.6"/>
<g>
	<path class="st1" d="M119.7,532.4H78.1l63.4-183.5h50l63.3,183.5h-41.6l-46-141.6h-1.4L119.7,532.4z M117.1,460.2h98.2v30.3h-98.2
		V460.2z"/>
	<path class="st1" d="M267.7,348.8h47.9l50.5,123.3h2.2l50.5-123.3h47.9v183.5H429V412.9h-1.5L380,531.5h-25.6l-47.5-119h-1.5v119.9
		h-37.6V348.8z"/>
	<path class="st1" d="M487.5,532.4v-23l91.6-128.5h-91.8v-32h140.5v23l-91.7,128.5H628v32H487.5z"/>
	<path class="st1" d="M802.2,348.8v183.5h-33.5l-79.8-115.5h-1.3v115.5h-38.8V348.8h34.1L762,464.3h1.6V348.8H802.2z"/>
</g>
</svg>
