<?xml version="1.0" encoding="utf-8"?>
<!-- Generator: Adobe Illustrator 27.2.0, SVG Export Plug-In . SVG Version: 6.00 Build 0)  -->
<svg version="1.1" id="Layer_1" xmlns="http://www.w3.org/2000/svg" xmlns:xlink="http://www.w3.org/1999/xlink" x="0px" y="0px"
	 viewBox="0 0 881.2 881.2" style="enable-background:new 0 0 881.2 881.2;" xml:space="preserve">
<style type="text/css">
	.st0{fill:url(#SVGID_1_);}
	.st1{fill:#FFFFFF;}
	.st2{clip-path:url(#SVGID_00000016794249281601563750000013285660219962596241_);}
	.st3{opacity:0.8;}
	
		.st4{opacity:0.8;fill:none;stroke:url(#SVGID_00000098209835368258115260000001502154047729930626_);stroke-width:1.0554;stroke-miterlimit:10;enable-background:new    ;}
	
		.st5{opacity:0.8;fill:none;stroke:url(#SVGID_00000108296156299437895970000005696526357485757375_);stroke-width:1.0554;stroke-miterlimit:10;enable-background:new    ;}
	
		.st6{opacity:0.8;fill:none;stroke:url(#SVGID_00000066484109045417494570000017523810689579845273_);stroke-width:0.9894;stroke-miterlimit:10;enable-background:new    ;}
	
		.st7{opacity:0.8;fill:none;stroke:url(#SVGID_00000056397800396254792960000010160428657052988043_);stroke-width:0.9235;stroke-miterlimit:10;enable-background:new    ;}
	
		.st8{opacity:0.8;fill:none;stroke:url(#SVGID_00000024698897161588099500000016316844861006975880_);stroke-width:0.8575;stroke-miterlimit:10;enable-background:new    ;}
	
		.st9{opacity:0.8;fill:none;stroke:url(#SVGID_00000136406061347400767020000001186420871038014627_);stroke-width:0.8575;stroke-miterlimit:10;enable-background:new    ;}
</style>
<g>
	<g id="Layer_3">
		
			<radialGradient id="SVGID_1_" cx="-177.4326" cy="830.4578" r="4.7485" gradientTransform="matrix(6.382553e-15 104.235 104.235 -6.382553e-15 -86122.1641 18981.3281)" gradientUnits="userSpaceOnUse">
			<stop  offset="0.1667" style="stop-color:#073183"/>
			<stop  offset="1" style="stop-color:#0054F9"/>
		</radialGradient>
		<path class="st0" d="M881.2,440.6C881.2,197,683.7,0,440.6,0C197,0,0,197,0,440.6c0,243.1,197,440.6,440.6,440.6
			C683.7,881.2,881.2,683.7,881.2,440.6z"/>
	</g>
	<g id="Layer_1_00000019678216197568292700000009484231850298271916_">
		<path class="st1" d="M740.2,302.9c-1.9,10.9-3.8,16.1-6.6,21.8l0,0c-2.8,6.6-5.7,13.8-8.5,29c-0.9,5.7-1.9,10.4-2.4,14.2v0.5l0,0
			c-0.9,6.2-1.4,10.4-3.8,17.6c-1.9,6.2-5.2,16.1-13.3,26.6c-6.6,8.5-17.6,23.3-32.3,25.2c-1.4,0-3.8,0-5.2-0.5
			c-41.8-21.4-77.4-37-89.7-40.4c-14.2-4.3-12.3-35.6-10.9-63.1c0.9-12.3,1.4-24.2,0.9-34.2c-1.9-35.1-8.1-73.1-38.5-91.6
			c-18-10.9-41.8-14.2-64.1-14.2c4.3-1.9,8.5-4.7,13.8-7.6l0,0c13.3-7.6,29.4-17.1,46.1-19c5.2-0.5,10.4-0.9,15.7-1.9
			c32.8-3.8,61.2-7.1,91.2,3.3c13.8,4.7,41.3,19.9,48.4,34.7c5.2,10,13.8,18,30.4,33.7c9,8.1,14.7,12.8,19,16.6l0,0
			c6.2,4.7,7.1,6.2,9,9.5C745,274.4,743.1,286.3,740.2,302.9z"/>
		<path class="st1" d="M588.7,446.8c1.9,0.5,2.8,2.8,1.4,4.7c-4.3,6.6-9.5,16.1-15.7,27.1c-2.8,5.2-5.7,10.4-8.1,14.2
			c-8.1,13.8-8.5,25.6-9,34.7c-0.5,10-0.9,14.2-7.1,18c-4.7,3.3-10,4.3-44.2,9.5c-6.2,0.9-8.5,1.9-10.9,3.3
			c-0.5,0.5-1.4,0.5-1.9,0.9c-1.9,0.9-3.8-0.9-3.8-2.8c0.5-4.7,0.5-10.9,0.5-19V536c0-6.6,0-12.3-0.5-16.6
			c-0.5-8.5-0.5-12.3,1.9-16.1c2.8-4.7,5.2-6.2,8.5-8.5c5.2-3.3,12.3-7.6,22.3-21.8c5.7-7.6,6.6-11.9,7.6-15.2
			c0.5-1.4,0.5-1.9,4.7-5.2c4.3-3.3,18-13.8,35.6-10.9C575.9,442.5,582.1,444.4,588.7,446.8z"/>
		<path class="st1" d="M452.5,604.4c-0.9,0.9-1.4,1.4-2.8,1.4c-3.8,0-6.2-0.9-7.6-2.8c-3.3-4.3-2.8-12.8-2.4-18l14.7-3.8
			C455.3,589.2,455.8,600.1,452.5,604.4z"/>
		<path class="st1" d="M453.4,552.2c-0.5,1.9-0.5,4.3-0.5,7.1c0,0.9,0,1.9,0,2.8c0,2.4,0,6.2,0,8.1c-4.7,1.4-8.5,1.4-13.3,1.4
			c0-1.4,0-3.8,0-5.2c0-0.9,0-2.4,0-3.3c0-1.4,0-2.4,0-3.8c0-2.8,0-7.1,0.5-8.5c1.4,0,2.8-0.5,4.3-0.9c2.8-0.5,7.1-1.4,9.5-0.9
			C453.9,549.8,453.9,551.2,453.4,552.2z"/>
		<path class="st1" d="M426.8,600.1c-0.5,7.6-2.8,16.6-10,18c-3.3,0.5-4.7-0.5-5.7-1.4c-4.7-4.3-5.2-17.6-4.7-27.1
			c3.3,0,7.1-0.5,11.9-1.4c2.8-0.5,5.7-1.4,8.1-1.9C426.8,590.2,427.3,594.9,426.8,600.1z"/>
		<path class="st1" d="M423.5,573.5l-15.7,5.7c0.9-6.2,1.9-14.7,2.4-20.4c0.5-3.8,1.4-5.2,1.9-5.7c0,0,0.5-0.5,0.9-0.5
			c0,0,0,0,0.5,0h0.5l10-0.5C423.5,556.9,423.5,567.4,423.5,573.5z"/>
		<path class="st1" d="M397.9,568.8c-0.9,2.4-1.9,9-2.4,13.8l-19.5-0.5c0.9-6.2,2.8-12.3,4.3-17.1c1.9-4.7,3.3-8.5,5.2-9.5
			c1.9-0.9,6.2-1.4,9,0.9C398.8,559.3,399.8,563.6,397.9,568.8z"/>
		<path class="st1" d="M390.8,629.1c-1.4,1.9-3.3,3.3-5.2,3.3c-2.4,0.5-3.8-0.5-5.2-1.4c-6.2-5.7-5.7-24.2-5.2-33.2
			c8.1-1.9,17.1-3.3,21.4-3.8C396.5,601.1,396.9,620.6,390.8,629.1z"/>
		<path class="st1" d="M365.1,581.1c-0.9,2.4-1.9,4.7-2.4,7.1c-2.4,0.9-9.5,0-16.6-1.4l4.7-30.9c8.1-2.4,17.6-2.8,19.5-0.5
			C373.7,558.8,367.5,574.5,365.1,581.1z"/>
		<path class="st1" d="M356.1,633.4c-3.8,4.7-9.5,7.1-17.6,6.6c-5.7,0-7.6-2.4-8.5-3.8c-4.3-7.1,0-23.7,4.3-34.2l26.6,1.4
			c0.5,1.9,0.5,4.3,0.5,6.6C361.8,618.2,360.8,627.7,356.1,633.4z"/>
		<path class="st1" d="M576.4,408.8c-24.2-6.6-21.8-41.8-19.9-76c0.5-11.9,1.4-23.3,0.9-32.8c-1.9-31.8-7.1-66.5-32.8-82.1
			c-27.5-16.6-72.6-12.8-100.2-9.5l0,0l0,0c-10,2.8-19.5,5.2-27.1,4.7c-16.1-0.9-29-7.6-40.4-13.8c-8.5-4.7-16.1-9-23.7-9
			c-0.5,0-0.9,0-0.9,0C311,191.8,301,197,292,205.1c-2.4,1.9-5.2,7.6-14.2,33.7c-4.7,13.3-5.2,20.4-6.2,27.1
			c-0.9,6.2-1.4,12.8-4.7,22.8c-2.4,6.6-4.3,12.3-5.7,18c-4.3,14.7-8.1,26.6-18.5,40.8c-1.4,1.4-2.8,4.3-4.7,6.6
			c-2.4,3.8-5.2,8.5-9.5,13.8c-2.8,3.8-9,18-8.5,22.3c0.5,7.1,2.8,11.4,5.2,16.1s5.7,10.4,6.2,18.5v1.4c0.9,12.3-0.9,18.5-24.2,39.4
			c-14.7,13.3-25.6,26.1-32.8,35.6c-0.5,0.9,0,1.9,1.4,1.9c0.5,0,0.5,0,0.5,0c0.5,0,0.9,0,1.4,0c0.5,0,0.9,0,1.4,0
			c0.5,0,0.9,0,1.4,0c5.7,0.5,11.4,2.8,15.2,7.1c0.5,0.9,1.9,0.9,2.8,0.5c3.8-1.4,8.1-1.4,11.9-0.9c4.7,0.5,10,1.9,13.3,5.2
			c0.9,0.9,2.4,1.4,3.8,0.9c3.8-0.9,8.1-0.9,11.9,0.5c2.8,0.9,5.7,2.8,7.6,5.2c1.4,1.4,3.8,1.9,5.7,0.9c0.9-0.5,2.4-1.4,3.8-1.9
			c5.2-1.9,10.9-0.9,15.7,0.9c2.4,0.9,4.7,1.4,7.1,3.3c3.8,2.8,6.6,6.6,8.1,10.9c0.9,2.4,4.3,3.3,6.2,1.4c3.8-2.8,6.6-3.3,9.5-2.4
			c1.4,0.5,2.4,1.4,3.3,2.8c1.4,1.9,3.8,3.8,5.7,2.8c8.1-2.4,17.6-0.9,24.7,2.8c2.4,1.4,5.2,3.3,6.6,6.2l0,0l0,0v-1.4
			c0-0.5,0.5-0.9,0.9-1.4l1.4-0.5c3.8-1.4,23.7-7.1,31.3,0.9c0.5,0.5,0.9,0.5,1.4,0c0.9-0.9,1.9-1.9,2.4-1.9
			c5.2-2.8,13.8-3.3,19.5,1.9c0.9,0.9,2.8,0.5,3.8-0.5c0.5-0.9,0.9-1.4,1.9-1.9c1.9-1.9,4.7-2.4,7.6-2.4l10.9-0.5
			c2.8,0,11.4-0.9,13.8-1.4h0.5c0.9,0,2.4-0.5,3.8-0.9c5.2-0.9,11.4-2.4,16.1,0c4.7,2.4,4.3,7.6,3.8,12.3c0,1.9-0.5,3.8-0.5,5.7
			c0,0.9,0,1.9,0,2.8c0,4.3,0,8.1-0.5,10.9l0,0l0,0l0.5,2.4c0,0,0,0,0,0.5c0.5,1.9,2.8,3.3,4.3,1.9c3.8-2.4,7.6-5.2,9-7.1v-0.5
			c0-0.5,0.5-1.4,0.9-3.3c0.5-4.3,1.4-12.3,1.4-29c0-0.9,0-1.4,0-1.9c0-6.2,0-11.4-0.5-15.7c-0.5-9-0.9-16.1,3.8-23.3
			c4.3-7.1,8.5-9.5,12.8-12.3c4.7-2.8,10-6.2,19-18.5c4.3-6.2,4.7-8.5,5.2-10.4c0.9-4.7,2.4-7.6,9.5-12.3
			c5.7-4.3,22.3-17.1,45.1-13.3c7.6,1.4,19.5,5.2,31.8,10l0,0l0,0c0.5,0,0.9,0.5,1.4,0.5h0.5c10.9,4.3,20.9,9,28,12.8
			c1.4,0.9,3.3,0.5,4.7-0.9c2.4-2.8,4.7-4.3,7.1-6.2c0.9-0.5,1.9-0.9,2.4-1.4c0.5,0,0.5-0.5,0.5-0.5c1.9-1.4,1.9-5.2-0.5-6.2
			C616.8,421.1,586.4,411.6,576.4,408.8z M347.5,415.9c-7.6,32.3-57.9,68.4-80.7,68.4h-0.5c-0.5,0-0.9,0-0.9,0c-0.5,0-0.9,0-1.4-0.5
			c-0.5,0-0.5,0-0.9,0c-4.3-1.4-10-4.3-14.2-8.5c-2.8-2.8-5.2-6.6-6.2-10c0-0.5-0.5-1.4-0.5-1.9c-1.4-5.7-2.8-12.3,1.9-23.7
			c0.5-1.4,1.4-2.8,1.9-4.3c0-0.5,0.5-0.9,0.5-1.4c0.5-1.4,0.9-2.4,1.4-3.3c0.5-1.9,1.4-3.3,1.9-4.3c0-0.5,0.5-0.9,0.5-1.4
			c1.4-3.8,1.4-5.2,1.9-6.6c0-0.9,0.5-2.8,0.9-4.7c1.4-6.2,2.4-11.4,2.8-15.7c0.9-8.1,2.4-15.2,6.6-21.8c0.9-0.9,1.4-1.9,2.4-2.8
			c0.5-0.5,0.5-0.5,0.9-0.9c0.5-0.5,0.5-0.5,0.9-0.9c0.9-0.9,2.4-1.4,3.3-1.9c0.5,0,0.9-0.5,1.4-0.5c0.9-0.5,1.9-0.5,2.8-0.9
			c4.3-0.9,9-0.9,14.7-0.5c6.2,0.5,11.9,1.4,16.6,2.8c4.3,0.9,8.1,2.4,10.9,3.8c0.5,0,0.5,0.5,0.9,0.5c0.5,0.5,0.9,0.5,1.9,0.9
			c0.9,0.5,1.4,0.5,2.4,0.9c0.9,0.5,1.9,0.9,2.8,1.4l0.9,0.5c3.3,1.4,6.6,3.3,9,5.2c1.4,0.9,2.4,1.9,3.3,2.8
			c0.5,0.5,0.9,0.5,0.9,0.9c0.5,0.5,0.5,0.5,0.9,0.9C349.9,396.9,349.4,408.8,347.5,415.9z M371.3,292.9l-0.9,5.7
			c-2.4,13.3-7.6,31.3-26.6,36.1c-18.5,4.3-22.8,5.2-35.6,6.2c-0.5,0-0.5,0-0.9,0c-9.5,0-28-6.2-31.3-20.9c-1.9-9.5,2.4-16.6,9-28
			c0.9-1.9,2.4-3.8,3.8-6.2c9.5-15.7,12.8-27.1,15.7-36.1c2.8-9,5.2-16.1,11.4-22.3c1.4-1.4,2.8-2.8,4.7-3.8
			c0.9-0.9,2.4-1.4,3.8-2.4c1.9-0.9,3.8-1.4,5.7-2.4c4.3-1.4,9-1.9,13.3-1.9c9,0,18,2.4,24.2,7.6c2.8,2.4,7.1,6.6,9.5,20.4
			C377.9,252.1,376,264.9,371.3,292.9z M507.6,330.9c-6.6,11.4-10,17.6-15.7,22.3c-11.4,9.5-24.2,11.4-35.1,11.4
			c-7.6,0-14.2-1.4-18.5-1.9c-11.4-1.9-31.8-5.7-38.9-22.3c-1.4-3.3-1.4-5.2-1.4-8.1c0-2.4,0-7.1-1.4-17.1v-0.5
			c-0.5-4.7-0.9-10,0-16.6v-0.9c3.8-19.9,5.2-22.8,5.7-24.7c1.9-3.8,6.6-5.7,10.9-3.3c3.8,1.9,5.2,6.6,3.8,10.4
			c-0.5,0.9-1.4,5.2-4.7,20.9v0.9c-0.9,4.3-0.5,7.6,0,11.9v0.5c1.4,11.4,1.4,16.1,1.4,19c0,0.5,0,0.9,0,1.4v0.5
			c1.4,3.3,4.3,5.2,7.6,7.1c2.4,0.9,4.7-0.9,4.3-3.3c-3.3-17.6-3.3-38,3.3-50.8c2.4-4.3,6.2-10.9,10-17.6l0,0l0,0
			c0.5-0.5,0.9-1.4,0.9-1.9c0.5-0.5,0.5-0.9,0.9-1.4c1.9-2.8,3.3-5.2,4.7-7.6c0-0.5,0.5-0.5,0.5-0.9l0.5-0.5
			c0.5-0.5,0.5-0.9,0.9-1.4c0,0,0-0.5,0.5-0.5l0,0l0.5-0.5c0-0.5,0.5-0.5,0.5-0.9l0,0l0,0l0,0c1.4-1.9,2.8-3.8,3.8-5.7
			c1.9-2.4-0.5-5.2-2.8-4.3c-6.6,2.8-10.9,6.2-11.9,6.6c-3.3,2.8-8.5,2.4-11.4-1.4c-2.8-3.3-2.4-8.5,1.4-11.4
			c4.3-3.3,26.1-19,52.2-11.9c19,5.2,28.5,19.9,32.3,25.2c2.8,4.3,12.3,17.6,11.9,36.6C524.2,302,518.5,312.4,507.6,330.9z"/>
		<path class="st1" d="M337.6,233.6c-1.4,3.3-2.8,7.1-4.7,11.4c-3.8,10-8.5,21.4-10.9,25.6c-3.8,7.1-6.6,11.9-9,15.2
			c-2.8,4.3-4.7,7.6-6.6,12.3c-2.8,8.1-3.3,17.1-1.4,27.1c-5.2-0.5-13.3-3.8-14.2-8.5c-0.5-3.3,1.4-6.6,7.1-16.6
			c0.9-1.9,2.4-4.3,3.8-6.2c10-17.1,14.2-29.9,17.1-39.4c3.3-10,4.7-14.2,10-18C331.9,235,334.7,234.1,337.6,233.6z"/>
		<path class="st1" d="M327.6,592.5c-5.7,11.4-12.3,21.8-16.6,27.1c-3.8-9.5-10-31.8-8.1-49.4c0-0.5,0-0.9,0-1.4
			c0.5-5.7,1.9-10.4,4.7-14.7c1.9-2.8,6.6-4.3,11.9-4.3c3.8,0,8.1,0.9,11.9,2.8l0,0c1.9,0.9,4.7,3.3,4.7,9.5
			C337.1,570.7,332.8,582.1,327.6,592.5z"/>
		<path class="st1" d="M631.5,465.8c0.5,0.5,0.5,0.9,0.5,1.4c-1.4,3.3-3.8,5.7-6.2,8.5c-2.8,3.3-6.2,7.1-9,13.3
			c-4.3,8.5-5.7,16.1-6.2,36.1c-0.9,23.3,0,36.1,0.9,45.6c0.5,9,0.9,14.7-0.5,23.7c-3.3,18-10.9,29.9-20.9,45.1
			c-12.3,19-24.7,38.5-45.6,44.6c-1.9,0.5-1.9,0.5-7.6,0.5c-4.7,0-12.8,0-27.5,0.5c-27.5,0.9-41.3,1.4-52.7,3.8
			c-12.3,2.4-18.5,5.2-25.2,7.6c-5.7,2.4-10.9,4.3-20.9,6.6c-6.2,1.4-15.2,2.4-46.1,2.8c-32.3,0-51.8,0-76.9-2.8
			c-35.1-3.8-52.7-6.2-64.6-12.3c-27.5-14.7-39.4-41.3-58.4-85l0,0c0-0.5,0.5-0.9,0.9-0.9c0.9,0.5,1.9,0.9,2.8,1.4
			c0.9,0.5,1.9,0.5,2.4,0.5c1.9,0.5,3.8,0.5,5.7,0c0.5,0,0.5,0,0.9-0.5l0,0c0.5,0,0.9,0,0.9,0.5c1.4,3.3,3.3,6.2,6.6,8.1
			c3.3,1.9,7.1,1.9,10.4,1.9c3.8,0,7.6-0.5,11.4-0.9c1.9,0,3.8,0.9,4.7,2.4c3.3,8.5,7.6,14.2,14.2,15.2c0.5,0,0.9,0,1.4,0
			c1.4,0,3.8-0.5,6.6-2.4c2.4-1.9,6.2-0.5,8.1,1.9c1.4,2.4,3.3,3.8,5.2,5.2c6.6,6.6,22.8,10,36.1,10c7.1,0,13.8-0.9,17.6-2.8
			c5.7-2.8,5.7-6.6,5.2-8.5c-0.5-2.8-0.9-6.2-1.4-9c0-0.5,0.5-0.5,0.5,0c0.9,1.9,1.9,3.8,4.3,4.3c0.5,0,0.5,0,0.9,0
			c3.8,0,9.5,1.4,10.4,4.7c0.5,1.9,1.4,3.3,2.4,5.2c2.4,3.3,6.6,7.6,15.7,8.1h0.5c10.4,0,18.5-3.3,23.7-10c0.5-0.5,0.5-0.9,0.9-1.4
			c1.9-2.8,7.6-2.8,10-0.5c2.8,2.4,6.2,3.8,10,3.8c0.5,0,1.4,0,1.9,0c4.7-0.5,8.5-2.8,11.9-7.1c1.9-2.8,3.3-6.2,4.3-10
			c0.5-0.9,1.9-1.4,2.8-0.5c1.9,1.9,5.2,3.8,10,3.8c0.9,0,2.4,0,3.8-0.5c9-1.9,13.8-9.5,15.7-17.6c0-0.5,0.5-0.5,0.5,0
			c2.4,2.8,6.6,6.2,13.8,6.2c0.5,0,0.9,0,0.9,0c3.8,0,7.1-1.9,9.5-4.7c2.8-3.8,3.8-9.5,4.3-14.7c0-1.4,0.9-2.8,2.8-3.8
			c7.6-3.3,17.1-10.4,19.9-15.2c0,0,0-0.5,0.5-0.5c0.5-1.4,1.9-2.4,2.8-2.4c6.2-0.9,8.5-2.4,10.9-3.3c1.9-0.9,3.3-1.4,8.1-2.4
			c34.7-5.2,41.3-6.6,48.9-11.4c11.4-7.6,11.9-18,12.3-28c0.5-8.5,0.9-18,7.6-29.4c2.4-4.3,5.2-9,8.1-14.7
			c5.2-9.5,12.3-22.8,17.6-29.9c0.9-1.4,2.8-1.9,4.3-0.9C619.1,459.1,629.6,463.9,631.5,465.8z"/>
		<path class="st1" d="M294.4,569.3c-1.4,11.9-2.4,28-0.5,48.9c0.5,5.7,1.4,11.9,2.4,18c-1.4,0.9-6.6,2.4-15.2,1.9
			c-12.3-0.5-24.7-3.3-28.5-7.6l-0.5-0.5c-2.8-2.4-5.2-4.3-5.2-8.5c0-1.4,0.5-2.8,1.9-5.2c0.9-0.9,1.9-2.4,2.8-4.3
			c1.9-2.8,4.7-6.2,7.6-10.9c8.1-13.3,10.9-17.6,14.7-22.8c0.5-0.5,0.5-0.9,0.9-1.4c2.4-2.8,4.7-6.6,9-12.8
			c2.8-4.3,5.2-8.1,7.6-10.9c3.3-4.7,5.7-7.1,7.1-8.5c0,1.9-0.5,4.7-0.9,7.6C295.8,557.9,294.8,563.1,294.4,569.3z"/>
		<path class="st1" d="M288.2,382.2C288.2,382.7,288.2,382.7,288.2,382.2c-1.9,2.4-3.8,5.2-6.2,10c-6.2,13.3-6.2,20.9-6.2,27.1
			c0,3.3,0,5.7-0.9,8.5c-0.5,1.9-1.4,4.3-2.8,6.6c-3.3,8.1-8.1,18.5-6.2,32.8c-2.8-1.4-7.1-4.7-8.1-6.2c0-0.9-0.5-1.4-0.5-2.4
			c-0.9-4.3-1.4-7.1,0.9-13.8c7.6-17.1,8.5-21.4,9-26.1c0-0.9,0.5-1.9,0.5-3.3c1.4-6.6,2.4-12.3,2.8-17.1c0.9-7.1,1.9-11.9,4.3-15.2
			c0.9-1.4,3.3-1.9,6.6-1.9c1.4,0,2.8,0,4.7,0.5h0.5C288.2,382.2,288.2,382.2,288.2,382.2z"/>
		<path class="st1" d="M278.7,551.7c-0.5-4.3-0.9-8.1-2.8-12.3c0,0-0.5-0.9-0.5-1.4c-0.5-0.5-0.5-0.9-0.9-1.4l0,0l0,0L274,536
			c-0.5-0.5-0.5-0.5-0.9-0.5l0,0l-0.5-0.5c-0.5,0-0.5-0.5-0.9-0.5h-0.5l0,0l0,0l0,0l0,0l0,0l0,0c-2.4-0.9-4.7-1.9-7.6-2.4l0,0l0,0
			c-0.5,0-0.9,0-0.9,0c-0.5,0-0.5,0-0.9,0h-0.5l0,0l0,0l0,0l0,0c-0.5,0-0.9,0.5-1.9,0.5c-0.5,0-0.5,0.5-0.9,0.5l-0.5,0.5l0,0l0,0
			c-0.5,0.5-0.5,0.5-0.9,0.9l-0.5,0.5l0,0l0,0l0,0l0,0v0.5c-0.9,1.4-1.9,2.8-2.8,4.3c-2.4,3.3-4.7,7.1-7.1,10.4
			c-2.4,3.3-4.3,6.2-6.6,9.5c-1.4,1.9-2.4,3.3-3.8,5.2c0,0.5-0.5,0.5-0.5,0.9c1.4,0.5,2.8,0.5,4.3,0.9c3.3,0.5,6.6,0.9,9.5,1.4
			c6.6,0.9,13.8,1.4,20.4,0.9c0.5,0,0.5,0,0.9,0c1.4-2.4,3.8-5.2,6.2-9c1.4-1.9,2.8-3.8,3.8-5.7
			C279.2,554.1,278.7,552.7,278.7,551.7z"/>
		<path class="st1" d="M254.5,579.7c-0.5,5.2-6.2,18.5-15.2,31.3c-7.6,10.4-12.3,13.3-13.3,13.3c-3.8-0.5-7.1-9.5-10-18.5
			c-0.9-3.8-2.4-7.1-2.8-10.4c-1.9-6.6-2.4-16.1-1.9-21.8c7.6,4.3,20.9,5.2,39.9,5.2l0,0C252.1,579.2,253.5,579.2,254.5,579.7z"/>
		<path class="st1" d="M241.2,537L241.2,537L241.2,537c-3.3,5.2-6.6,10-10,14.7c-1.9,2.4-3.3,4.7-5.2,7.1c-0.9,1.4-2.4,2.8-3.3,4.3
			c-2.8-0.5-5.2-1.4-8.1-1.9c-2.4-0.5-4.3-1.4-6.6-2.4c-0.5,0-0.9-0.5-1.4-0.5c-0.5-0.5-0.9-1.4-1.4-1.9l0,0
			c0.9-1.4,1.4-3.3,2.4-4.7c1.4-2.8,2.8-5.7,4.7-8.5c2.8-4.7,6.2-10,11.4-13.3c0.5,0,0.5-0.5,0.9-0.5c1.9-0.9,3.8-1.9,6.2-2.4
			c0.5,0,1.9,0,2.8,0h0.5l0,0c0,0,0,0,0.5,0c0.5,0,0.9,0.5,1.9,0.5c0,0,0.5,0,0.5,0.5c0.5,0.5,0.9,0.5,1.4,0.9
			c-0.9-0.5,0.9,1.4,0.9,0.9C240.2,532.7,240.7,534.1,241.2,537z"/>
		<path class="st1" d="M215.6,523.2c-6.2,4.7-10.4,11.4-13.8,18.5c-1.9,3.8-3.8,7.6-5.7,11.4c0,0.5-0.5,0.9-0.5,0.9
			c-1.9-0.5-3.8-0.9-5.2-1.4c-1.9-0.5-3.8-1.4-5.7-1.9c-0.9-0.5-1.4-0.9-2.4-1.4c1.9-3.3,3.8-6.6,6.2-10c2.8-4.3,6.2-9,9.5-12.8
			c1.4-1.4,2.8-3.3,4.3-4.3c1.9-0.9,3.8-0.9,6.2-0.5c2.4,0,4.7,0,6.6,0.9C214.6,522.7,215.1,523.2,215.6,523.2z"/>
		<path class="st1" d="M206.1,603.9c-0.5,0.5-0.5,0.5-0.9,0.9h-0.5c-1.4,0-2.8,0.5-4.3,0.5c-2.8,0-5.7,0.5-8.5,0
			c-1.4,0-2.8-0.5-3.8-1.4c-0.9-1.4-1.4-4.3-1.9-6.2c-1.9-10.4-1.9-20.9-0.9-31.3c5.2,1.9,10.9,3.3,16.6,4.3
			c-1.4,9.5,0.9,23.3,1.9,27.1C205.1,599.7,205.6,602,206.1,603.9z"/>
		<path class="st1" d="M189,519.9c-4.7,5.7-9,11.9-12.8,18.5c-1.4,2.4-3.3,5.2-4.7,8.1c-1.9-0.5-3.8-1.4-5.2-2.4
			c-1.4-0.9-2.8-1.9-3.8-2.8c-0.5-0.5-1.4-0.9-1.9-1.4c0,0-0.5,0-0.5-0.5c0.5-1.4,1.4-2.4,1.4-3.3c0.9-2.4,1.9-4.3,3.3-6.2
			c2.4-3.8,4.7-7.6,7.6-11.4c0.9-1.4,1.9-2.8,3.8-3.3c1.4-0.5,3.3,0,4.7,0C183.7,515.6,186.6,517.5,189,519.9z"/>
		<path class="st1" d="M152.4,545.1C152.4,544.6,152.9,544.6,152.4,545.1c1.9,1.9,3.3,3.3,5.2,4.7c0.9,0.5,1.4,1.4,2.4,1.9
			c0,0,0,0,0,0.5c-1.9,8.1-3.3,16.6-3.3,25.2c0,0.5-0.5,0.5-0.5,0C153.8,567.4,151,551.2,152.4,545.1z"/>
		<path class="st1" d="M175.7,562.6c-0.9,7.1-1.4,14.2-0.9,21.4c0,3.8,0.5,7.6,0.9,11.9l0,0l0,0c-0.9,0-1.9,0-2.8,0h-0.5l0,0h-0.5
			c-0.9-0.5-0.9-0.5-1.9-0.9c-0.9-0.5-1.9-1.9-2.8-3.3c-1.9-3.3-2.4-7.1-2.4-10.9c-0.5-7.1,0.5-14.7,1.9-21.8
			c0.9,0.5,2.4,0.9,3.8,1.4C172.3,561.2,173.8,562.2,175.7,562.6L175.7,562.6L175.7,562.6z"/>
	</g>
	<g>
		<g>
			<defs>
				<circle id="SVGID_00000075136666155982923320000006631995530619844259_" cx="440.6" cy="440.6" r="440.6"/>
			</defs>
			<clipPath id="SVGID_00000127010975492187018780000000877162616048393405_">
				<use xlink:href="#SVGID_00000075136666155982923320000006631995530619844259_"  style="overflow:visible;"/>
			</clipPath>
			
				<g id="Layer_2_00000107572151008996527030000016290061794924690866_" style="clip-path:url(#SVGID_00000127010975492187018780000000877162616048393405_);">
				<g class="st3">
					
						<linearGradient id="SVGID_00000152243037687886504110000011693166895992618925_" gradientUnits="userSpaceOnUse" x1="-59.7288" y1="323.6476" x2="945.8146" y2="-731.7286" gradientTransform="matrix(1 0 0 -1 0 226.6564)">
						<stop  offset="0.2057" style="stop-color:#89D0FF"/>
						<stop  offset="0.3984" style="stop-color:#EBBF9A"/>
						<stop  offset="0.6015" style="stop-color:#EB8280"/>
						<stop  offset="0.8411" style="stop-color:#A281FF"/>
					</linearGradient>
					
						<path style="opacity:0.8;fill:none;stroke:url(#SVGID_00000152243037687886504110000011693166895992618925_);stroke-width:1.0554;stroke-miterlimit:10;enable-background:new    ;" d="
						M362.7,933c-32.3,0-62.7-1.9-88.3-3.8l-7.1-0.5l-7.1-0.9c-3.3-0.5-7.1-0.9-11.4-1.4c-24.7-2.8-70.7-7.6-121.5-31.3l-8.1-3.8
						l-7.1-4.3C14.2,831.8-21.8,749.7-41.8,705.5c-1.4-2.8-2.8-6.2-4.3-9.5c-10-20.4-16.1-38.5-21.4-55.6l-0.9-3.8l-0.9-3.8
						c-14.2-50.3-17.6-93.5-11.4-136.7c6.6-43.2,22.3-82.1,50.3-123.4l14.2-23.3c2.8-4.7,4.7-10,6.2-15.2
						c10.9-54.1,35.6-92.6,48-111.1c3.3-22.3,9-44.2,16.6-65.5l0.9-3.3L57,151c0-0.5,0.5-1.4,0.9-2.8c5.7-16.6,18.5-55.1,51.3-95.9
						L121.5,38l12.8-11.4c32.3-29.4,71.2-51.3,113-63.6c23.3-7.1,47.5-11.4,72.2-12.8h2.4h3.3c4.3,0,8.5-0.5,12.3-0.5
						c15.2,0,30.4,1.4,45.6,3.8c9.5,1.4,19,0.5,28-3.3c26.1-10.9,53.2-18,81.2-21.8c2.4-0.5,4.3-0.5,6.2-0.9
						c4.3-0.5,11.4-1.4,19.9-2.4c14.7-1.4,37.5-3.3,61.7-3.3c48,0,89.3,6.2,126.3,19l3.3,0.9l2.8,0.9
						c81.7,30.9,123,74.1,152.9,111.6L867,56l4.3,3.8c27.1,20.9,49.9,47,67.9,76l5.7,9l4.7,9.5c39.9,81.2,27.1,156.7,22.3,184.7
						l-0.5,1.4c-3.3,20.9-9,41.3-16.1,61.2c-2.8,19-7.1,38-13.3,56c-10.4,32.3-26.1,63.1-46.1,90.7c-11.4,16.1-24.7,31.8-38.9,45.6
						c-5.2,4.7-8.5,11.4-9.5,18.5c-0.5,4.3-1.4,8.5-1.9,12.8c-11.9,62.7-38.9,106.4-50.3,123.9l-33.7,48.4
						c-40.8,50.8-89.3,84-147.7,102.1l-14.2,4.3l-15.2,2.8c-17.6,3.3-35.1,4.7-53.2,4.7c-2.4,0-4.7,0-7.6,0h-0.9h-2.8h-3.3l0,0
						c-6.6,0-13.3,1.4-19.9,3.3C457.7,927.3,415,933,362.7,933z"/>
					
						<linearGradient id="SVGID_00000098921177940265634320000001262979937807678889_" gradientUnits="userSpaceOnUse" x1="-20.5836" y1="278.0511" x2="906.1024" y2="-698.5377" gradientTransform="matrix(1 0 0 -1 0 226.6564)">
						<stop  offset="0.2057" style="stop-color:#89D0FF"/>
						<stop  offset="0.3984" style="stop-color:#EBBF9A"/>
						<stop  offset="0.6015" style="stop-color:#EB80DA"/>
						<stop  offset="0.8411" style="stop-color:#A281FF"/>
					</linearGradient>
					
						<path style="opacity:0.8;fill:none;stroke:url(#SVGID_00000098921177940265634320000001262979937807678889_);stroke-width:1.0554;stroke-miterlimit:10;enable-background:new    ;" d="
						M362.7,899.3c-30.9,0-60.8-1.9-85.5-3.8l-5.7-0.5l-5.7-0.9c-3.8-0.5-8.1-0.9-12.3-1.4c-24.2-2.4-64.1-7.1-108.7-28l-6.6-3.3
						L132,858C45.1,810,13.3,738.3-5.7,695.6c-1.4-2.8-2.8-6.6-4.7-10c-9-18-14.7-35.1-19.5-50.3l-0.9-3.3l-0.9-2.8
						c-12.3-45.1-15.7-83.1-10-120.6c5.7-37,19.9-71.7,44.6-107.8l18.5-29.9c3.3-5.2,5.7-11.4,6.6-17.6c9-51.3,33.2-87.4,44.2-104
						l1.4-1.9l0.5-0.9c0-0.5,0.5-0.9,0.5-1.4c0.5-2.4,1.4-4.3,1.9-6.2c2.8-20.9,8.1-41.8,15.2-61.7l0.9-2.8l0.9-2.8
						c0.5-0.9,0.5-1.9,1.4-4.7c5.2-15.7,16.1-48.4,44.6-83.6L150,70.7l10.4-9.5c28-25.6,61.7-44.6,97.8-55.1
						c20.9-6.2,41.8-10,63.6-10.9h1.9h2.8c3.8,0,7.1-0.5,10.4-0.5c15.7,0,30.9-4.3,46.1-1.4c11.9,2.4,23.7,0.9,34.7-3.8
						c20.4-9,48-12.3,79.3-16.6c2.4-0.5,4.3-0.5,5.7-0.9c4.3-0.5,10.9-1.4,18.5-1.9c13.8-1.4,35.1-2.8,58.4-2.8
						c43.7,0,80.7,5.7,113.5,16.6l2.8,0.9l2.4,0.9C770.6,13.3,806.2,49.4,834.2,85c1.4,1.9,3.3,3.8,3.8,4.7l0.5,0.5l5.2,4.7l0.5,0.9
						c24.2,18.5,44.6,41.3,60.3,66.9l4.7,7.6l3.8,8.1c34.2,69.8,23.7,133.9,19,161l-0.5,1.4c-3.3,19.9-8.5,38.9-15.7,57.9
						c-2.4,18-6.6,36.1-12.3,53.2c-9.5,28.5-23.3,55.6-40.8,80.2c-11.9,17.1-26.1,32.8-41.3,46.5c-7.1,6.6-11.9,15.2-12.8,25.2
						c-0.9,7.1-1.9,13.8-2.8,20.9c-10.4,55.6-34.2,93.5-45.6,110.6l-27.5,39.9c-36.6,47-79.8,77.4-132,93.5l-11.9,3.8l-12.8,2.4
						c-15.2,2.8-30.9,4.3-46.1,3.8c-2.4,0-4.7,0-7.1,0h-0.5h-1.4c0,0-0.5,0-1.4,0h-2.8h-2.8h-5.2c-7.1,0.5-14.2,1.4-21.4,3.8
						C452.5,894,412.1,899.3,362.7,899.3z"/>
					
						<linearGradient id="SVGID_00000084530947841748643030000009814852691918447273_" gradientUnits="userSpaceOnUse" x1="18.8344" y1="238.75" x2="866.895" y2="-659.2935" gradientTransform="matrix(1 0 0 -1 0 226.6564)">
						<stop  offset="0.2057" style="stop-color:#89D0FF"/>
						<stop  offset="0.3984" style="stop-color:#EBBF9A"/>
						<stop  offset="0.6015" style="stop-color:#EB8280"/>
						<stop  offset="0.8411" style="stop-color:#A281FF"/>
					</linearGradient>
					
						<path style="opacity:0.8;fill:none;stroke:url(#SVGID_00000084530947841748643030000009814852691918447273_);stroke-width:0.9894;stroke-miterlimit:10;enable-background:new    ;" d="
						M362.7,859.8c-29.4,0-58.4-1.9-82.6-3.8l-4.7-0.5l-4.7-0.5c-4.3-0.5-9-0.9-13.8-1.4c-22.8-2.4-57.4-6.2-96.4-24.7l-5.2-2.4
						l-4.7-2.8C76,782,48.4,720.3,30.4,679.4c-1.4-3.3-3.3-7.6-4.7-10.9c-8.1-16.1-13.3-31.3-17.6-45.6l-0.9-2.4l-0.5-2.4
						c-10.9-38.9-13.8-72.2-9-103.5C2.4,482.9,15.2,453,37,421.1l2.8-3.8l2.8-3.8c1.9-2.4,3.3-4.7,5.2-6.6l10.9-20.4
						c3.8-6.6,6.2-13.8,7.1-21.4c7.1-45.6,29-78.3,38.9-93.5l0,0c0.5-0.9,1.4-1.9,1.9-2.4l2.4-3.3c0.9-1.9,1.9-4.3,2.8-7.1
						c0.9-2.8,2.4-7.1,3.3-10.9c2.4-19.5,7.1-38.5,13.8-57l0.9-2.4l0.9-2.4c0.5-1.9,1.4-3.3,2.4-6.6c4.7-14.7,13.8-41.8,38-71.2
						l8.1-10l8.5-7.6c23.7-21.8,52.2-37.5,83.1-47c18-5.2,36.1-8.5,55.1-9.5h1.4h2.4c2.8,0,5.7,0,9,0c16.1,0,31.8,1.9,47.5,6.2
						c13.3,3.3,27.5,1.9,39.9-4.3c19.9-9.5,46.5-19.9,77.4-23.7c1.9-0.5,3.8-0.5,5.2-0.9c3.8-0.5,10-1.4,17.6-1.9
						c12.8-1.4,33.2-2.8,54.6-2.8c38.9,0,71.7,4.7,100.7,14.7l1.9,0.9l1.9,0.9c66.5,25.2,95.9,57.9,118.7,86.9
						c5.2,6.2,5.7,7.1,9,10.4l4.3,3.8l1.4,1.9c10.9,8.5,33.2,26.1,52.7,57.9l3.8,6.2l3.3,6.2c29,58.4,19.9,111.6,15.7,137.2
						l-0.5,1.4c-2.8,18.5-8.1,37-15.7,54.6v1.4c-1.9,16.6-5.7,33.2-10.9,48.9c-8.1,25.2-19.9,48.4-35.6,69.8
						c-12.8,18.5-28.5,35.1-46.1,49.4c-4.3,3.3-7.6,7.6-10,12.3s-3.8,10-4.3,15.2c-0.5,10.4-1.9,20.9-3.8,31.3
						c-9,48-29.9,81.2-40.4,97.8L706,747.3c-31.8,42.7-69.8,70.3-115.8,84.5l-9.5,2.8l-10.4,1.9c-12.8,2.4-26.1,3.3-39.4,3.3
						c-1.9,0-4.3,0-6.6,0h-0.5h-2.4c-0.5,0-1.4,0-3.8,0h-2.4h-1.9l-10.9,0.5c-7.6,0.5-15.2,1.4-22.3,4.3
						C447.3,855.1,409.7,859.8,362.7,859.8z"/>
					
						<linearGradient id="SVGID_00000021824828681735033420000010050998371234976156_" gradientUnits="userSpaceOnUse" x1="58.192" y1="199.3181" x2="827.4553" y2="-619.9379" gradientTransform="matrix(1 0 0 -1 0 226.6564)">
						<stop  offset="0.2057" style="stop-color:#89D0FF"/>
						<stop  offset="0.3984" style="stop-color:#EBBF9A"/>
						<stop  offset="0.6015" style="stop-color:#EB80E7"/>
						<stop  offset="0.8411" style="stop-color:#A281FF"/>
					</linearGradient>
					
						<path style="opacity:0.8;fill:none;stroke:url(#SVGID_00000021824828681735033420000010050998371234976156_);stroke-width:0.9235;stroke-miterlimit:10;enable-background:new    ;" d="
						M362.7,820.4c-28,0-56-1.9-79.3-3.8l-3.3-0.5l-3.3-0.5c-4.7-0.5-10-1.4-14.7-1.9c-21.4-2.4-50.8-5.7-84-20.9l-3.8-1.9l-3.8-1.9
						C107.3,753.5,84,701.3,66.9,663.3c-1.9-3.8-3.8-8.1-5.2-11.9c-7.1-14.7-11.9-28.5-15.7-40.4l-0.5-1.9l-1.4-1.4
						c-18.5-65.5-11.4-111.6,24.7-164.3l1.9-2.8l1.9-2.8c2.4-2.8,4.7-6.2,7.1-9c3.3-4.3,6.6-9,10.4-13.3c2.4-2.8,4.3-6.2,5.7-9.5
						l4.3-10.4c1.9-4.7,2.8-9.5,3.3-14.2c3.8-42.3,24.2-72.6,34.2-87.8l0,0c0.9-0.9,1.9-2.8,2.4-3.3l2.4-3.8l0.9-0.9
						c1.4-2.4,3.8-8.1,5.7-13.8c0.9-3.8,2.8-10,4.7-15.2v-0.5c1.9-17.6,6.2-35.1,12.3-51.8l0.5-1.4l0.5-1.4c0.9-2.8,1.9-5.2,2.8-8.5
						c4.3-12.8,11.4-34.7,30.9-58.9l6.2-7.6l6.2-5.7c46.1-41.8,97.3-45.1,114.4-46.5h0.9h1.9c2.4,0,4.7,0,7.1,0
						c20.4,0,40.4,4.3,59.3,12.3c3.3,1.4,7.1,1.9,10.4,1.9c3.8,0,7.1-0.9,10.4-2.8l0,0c17.6-10,49.4-28.5,90.2-33.2
						c1.9-0.5,3.8-0.5,5.2-0.5c3.8-0.5,9.5-0.9,16.1-1.9c12.3-0.9,30.9-2.4,50.8-2.4c34.7,0,63.1,4.3,87.4,12.3l1.4,0.5l1.4,0.5
						c57,21.4,81.2,48.4,101.6,74.1c5.2,7.1,8.1,10,13.8,15.7l3.3,2.8l2.4,2.8l1.9,1.4c9.5,7.6,27.5,21.4,43.7,47.5l2.8,4.7l2.4,4.7
						c23.3,47.5,15.7,90.2,11.9,113v1.4c-2.8,16.6-7.6,33.2-14.2,48.9l-0.5,1.4c0,0.5,0,0.5-0.5,1.4c-0.5,1.4-0.5,2.8-0.5,4.3
						L838,387c-1.4,14.2-4.7,28-9.5,41.3c-7.1,21.4-17.1,41.3-30.4,59.3c-12.8,18.5-27.5,33.7-43.7,45.6
						c-7.1,5.2-12.8,11.9-17.1,19.9s-6.2,16.6-6.2,25.6c0,10.9-1.4,22.3-3.3,33.2c-7.6,40.8-24.7,68.4-35.6,85l-15.7,23.3
						c-27.5,38.5-60.3,63.1-99.7,75.5l-1.9,0.5c-3.3,0.9-6.6,1.9-10,2.4l-2.4,0.5c-10.9,1.9-21.8,2.8-32.8,2.8c-1.9,0-3.8,0-5.7,0
						h-0.5c-0.9,0-1.9,0-2.8,0s-2.8,0-6.6,0h-1.4h-1.4c-5.2,0-11.9,0.5-17.6,0.5c-8.1,0.5-15.7,1.9-23.3,4.7
						C442,815.7,407.4,820.4,362.7,820.4z"/>
					
						<linearGradient id="SVGID_00000050621784830401589370000001758007451390318989_" gradientUnits="userSpaceOnUse" x1="97.3248" y1="159.8042" x2="787.9142" y2="-580.5774" gradientTransform="matrix(1 0 0 -1 0 226.6564)">
						<stop  offset="0.2057" style="stop-color:#89D0FF"/>
						<stop  offset="0.3984" style="stop-color:#EBBF9A"/>
						<stop  offset="0.6015" style="stop-color:#EB80D3"/>
						<stop  offset="0.8411" style="stop-color:#A281FF"/>
					</linearGradient>
					
						<path style="opacity:0.8;fill:none;stroke:url(#SVGID_00000050621784830401589370000001758007451390318989_);stroke-width:0.8575;stroke-miterlimit:10;enable-background:new    ;" d="
						M362.7,781c-27.1,0-53.7-1.9-76.4-3.8h-2.4l-2.4-0.5c-5.2-0.9-10.9-1.4-16.1-1.9c-19.9-2.4-44.6-4.7-71.2-17.6l-2.8-1.4
						l-2.4-1.4c-51.8-29-71.2-72.6-86.4-107.8c-1.9-4.3-3.8-8.5-5.7-13.3c-6.2-12.3-10.4-24.7-13.8-35.1l-0.5-1.4l-0.5-1.4
						c-15.2-54.1-10-88.3,19.5-131l1.4-1.9l1.4-1.9c2.4-3.3,4.7-6.2,7.1-9.5c7.6-10,15.2-19.9,26.1-31.8c2.4-2.4,3.8-6.2,4.3-9.5
						l0.5-10.9l-0.5-4.3v-4.3c0.9-35.1,18.5-61.2,28-75.5c0.9-1.4,2.4-3.3,2.8-4.3l1.4-2.4l1.4-1.9c1.9-2.8,6.2-12.8,10-21.8
						c1.4-3.8,3.3-11.4,5.7-17.6c0.5-1.9,0.5-2.4,0.9-6.6c1.4-14.7,5.2-29.4,10-43.2l0.5-0.9l0.5-0.9c1.4-3.8,2.4-6.6,3.8-10.4
						c3.8-11.4,9.5-28,24.2-46.5l4.3-5.2l4.3-3.8c32.3-29,66.9-34.7,90.7-36.1h0.9h0.9c1.9,0,3.3,0,5.2,0c19.9,0,44.2,9.5,57,15.7
						c2.8,1.4,6.2,2.4,9.5,2.4s6.6-0.5,10-1.4c8.1-2.8,15.7-6.2,22.8-10c16.1-9.5,42.7-24.7,76-28.5c1.9-0.5,3.3-0.5,4.7-0.5
						c3.3-0.5,8.5-0.9,15.2-1.9c11.4-0.9,28.5-2.4,47-2.4c29.9,0,54.6,3.3,74.5,10.4l0.9,0.5l0.9,0.5c47.5,18,66.5,38.5,84.5,61.7
						c5.7,7.6,10,12.8,18.5,20.4l1.9,1.9l1.9,1.9c1.9,1.9,3.8,3.3,5.7,4.7c8.1,6.2,21.8,17.1,33.7,37l1.9,2.8l1.4,3.3
						c17.6,35.6,11.9,69.3,8.5,89.3v1.4c-2.4,13.8-6.2,27.1-11.9,39.9l0,0c-1.4,3.3-2.4,6.6-3.3,10.4c-0.5,2.4-0.9,4.7-0.9,6.6
						l-0.5,1.9c-1.4,11.4-3.8,22.8-7.6,33.7c-5.7,17.6-14.2,34.2-24.7,48.9c-16.1,22.8-34.7,38.9-57,49.4c-5.2,2.4-10,6.2-13.3,11.4
						c-3.3,4.7-5.2,10.9-5.7,16.6c0,2.4,0,4.3,0,5.7c0.9,17.1,2.4,36.6-1.4,57c-6.2,33.2-20.4,55.6-30.9,72.2
						c0,0-48.4,67.4-92.6,81.2l-4.7,1.4l-5.2,0.9c-8.5,1.4-17.1,2.4-26.1,2.4c-1.4,0-3.3,0-5.2,0l0,0c-0.9,0-2.4,0-3.8,0
						c-1.9,0-4.7,0-9,0.5h-0.9h-0.9c-17.1,0.5-32.8,0.9-37.5,1.9c-2.4,0.5-4.7,0.9-7.1,1.9C440.6,776.3,407.8,781,362.7,781z"/>
					
						<linearGradient id="SVGID_00000012457200277153905440000006408662596845782416_" gradientUnits="userSpaceOnUse" x1="137.0908" y1="120.632" x2="748.715" y2="-540.9272" gradientTransform="matrix(1 0 0 -1 0 226.6564)">
						<stop  offset="0.2057" style="stop-color:#89D0FF"/>
						<stop  offset="0.3984" style="stop-color:#EBBF9A"/>
						<stop  offset="0.6015" style="stop-color:#A280EB"/>
						<stop  offset="0.8411" style="stop-color:#A281FF"/>
					</linearGradient>
					
						<path style="opacity:0.8;fill:none;stroke:url(#SVGID_00000012457200277153905440000006408662596845782416_);stroke-width:0.8575;stroke-miterlimit:10;enable-background:new    ;" d="
						M362.7,742.1c-25.6,0-51.3-1.9-73.1-3.3h-0.9h-0.9c-6.2-0.9-11.9-1.4-17.1-1.9c-18.5-1.9-38-4.3-58.9-13.8l-1.4-0.5l-1.4-0.5
						c-40.4-22.8-55.6-56.5-69.8-89.3c-1.9-4.7-4.3-9.5-6.6-14.2c-4.7-9.5-8.5-19.9-11.4-29.9v-0.5v-0.5c-12.3-43.2-9-65,13.8-98.3
						l0.5-0.9l0.5-0.9c2.8-3.3,5.2-6.6,7.6-9.5c10.9-14.2,20.4-26.6,41.8-46.5l0,0c1.4-1.4,2.8-3.3,3.3-5.7c0.5-1.9,0.5-4.3-0.5-6.2
						l-3.8-10.9c-0.9-3.3-1.4-7.1-1.4-10.4l0,0v-2.8v-2.4c0.9-23.7,13.3-42.3,21.4-54.6c1.4-1.9,2.4-3.8,3.3-5.2l0.9-1.4l0.9-1.4
						c4.3-5.7,11.4-22.3,15.2-32.3c0.9-3.3,3.3-11.4,5.7-17.6c1.4-4.7,2.4-9.5,2.8-14.2c1.4-11.9,3.8-23.7,8.1-34.7v-0.5v-0.5
						c1.9-4.7,3.3-8.5,4.3-12.3c3.3-10,7.1-21.4,17.6-34.2l1.9-2.4l1.9-1.9c22.8-20.9,48-24.7,66.9-26.1h0.5h0.5c0.9,0,2.4,0,3.3,0
						c19,0,33.2,7.6,42.7,12.8l2.4,0.9h0.5c2.8,1.4,4.7,2.8,7.1,3.8c5.7,2.8,12.8,3.8,19,1.9c13.3-3.3,33.7-11.4,47-19h0.5
						c14.2-8.5,36.1-20.9,61.7-23.7c1.4-0.5,3.3-0.5,4.7-0.5c2.8-0.5,8.1-0.9,13.8-1.4c10.4-0.9,26.6-2.4,43.2-2.4
						c25.6,0,46.1,2.8,61.7,8.1h0.5h0.5c38,14.2,52.2,29.4,67.4,49.4c6.2,8.1,12.3,15.7,23.7,25.6l0.9,0.9l0.9,0.9
						c2.8,2.8,6.2,5.7,10,8.5c6.6,5.2,16.1,12.3,24.2,26.1l0.9,1.4l0.9,1.4c11.9,24.7,8.1,48,5.2,65.5v1.4
						c-1.9,10.9-4.7,21.4-9.5,31.8c-2.4,5.7-4.3,11.9-5.2,18c-0.5,3.8-0.9,6.6-1.4,9l-0.5,1.9c-0.9,9-2.8,17.6-5.7,26.1
						c-4.3,13.8-10.9,26.6-19.5,38.5c-14.2,20.9-30.4,33.7-51.8,40.4c-10.4,3.3-19,10-24.7,19l-1.9,2.4l-1.9,2.4
						c-5.2,6.2-3.8,29.9-2.8,44.2c0.9,15.7,1.9,31.8-0.9,47c-4.7,26.1-16.1,43.7-26.1,58.9c0,0-37,53.7-70.7,63.6l-2.4,0.9l-2.4,0.5
						c-6.2,0.9-12.8,1.9-19.5,1.9c-1.4,0-2.8,0-4.7,0c-1.4,0-2.8,0-4.7,0c-2.4,0-5.7,0-11.4,0.5h-0.5H509
						c-22.3,0.9-36.1,1.4-43.7,2.8c-5.2,0.9-10,2.4-14.7,4.3C430.2,737.8,402.6,742.1,362.7,742.1z"/>
				</g>
			</g>
		</g>
	</g>
</g>
</svg>
