<?xml version="1.0" encoding="utf-8"?>
<!-- Generator: Adobe Illustrator 26.0.2, SVG Export Plug-In . SVG Version: 6.00 Build 0)  -->
<svg version="1.1" id="Layer_1" xmlns="http://www.w3.org/2000/svg" xmlns:xlink="http://www.w3.org/1999/xlink" x="0px" y="0px"
	 viewBox="0 0 450 400.1" style="enable-background:new 0 0 450 400.1;" xml:space="preserve">
<style type="text/css">
	.st0{fill:#B2053A;}
	.st1{fill:#9B0030;}
	.st2{fill:#DEECF1;}
</style>
<path class="st0" d="M450,50.4v299.3c0,27.8-22.6,50.4-50.4,50.4H50.2C22.5,400.1,0,377.6,0,349.9V50C0,22.4,22.4,0,50,0h349.6
	C427.4,0,450,22.6,450,50.4z"/>
<path class="st1" d="M450,49.9v300c0,27.7-22.5,50.2-50.2,50.2H225V0h175.1C427.6,0,450,22.4,450,49.9z"/>
<g>
	<path class="st2" d="M342.9,149L211,280.9c-9.8,9.8-25.6,9.8-35.4,0l-68.1-68.1c-9.8-9.8-9.8-25.6,0-35.4c9.8-9.8,25.6-9.8,35.4,0
		l50.4,50.4l114.2-114.2c9.8-9.8,25.6-9.8,35.4,0C352.6,123.3,352.6,139.2,342.9,149z"/>
</g>
</svg>
