<?xml version="1.0" encoding="utf-8"?>
<!-- Generator: Adobe Illustrator 27.0.0, SVG Export Plug-In . SVG Version: 6.00 Build 0)  -->
<svg version="1.1" id="Capa_1" xmlns="http://www.w3.org/2000/svg" xmlns:xlink="http://www.w3.org/1999/xlink" x="0px" y="0px"
	 viewBox="0 0 30 42.7" style="enable-background:new 0 0 30 42.7;" xml:space="preserve">
<g >
	<path fill='#DE0E54' d="M1.4,19.4c-1.7-1.4-1.9-4-0.5-5.6s4-1.9,5.6-0.5l4.4,3.8V4c0-2.2,1.8-4,4-4c2.2,0,4,1.8,4,4v13.1l4.4-3.8
		c1.7-1.4,4.2-1.2,5.6,0.5c1.4,1.7,1.2,4.2-0.5,5.6l-11,9.4c-0.7,0.6-1.7,1-2.6,1s-1.8-0.3-2.6-1L1.4,19.4z M23.4,26.3L15,33.5
		l-8.4-7.2c-1.7-1.4-4.2-1.2-5.6,0.5c-1.4,1.7-1.2,4.2,0.5,5.6l11,9.4c0.7,0.6,1.7,1,2.6,1c0.9,0,1.8-0.3,2.6-1l11-9.4
		c1.7-1.4,1.9-4,0.5-5.6C27.6,25.1,25.1,24.9,23.4,26.3z"/>
</g>
</svg>
