<?xml version="1.0" encoding="utf-8"?>
<!-- Generator: Adobe Illustrator 26.2.1, SVG Export Plug-In . SVG Version: 6.00 Build 0)  -->
<svg version="1.1" id="Layer_1" xmlns="http://www.w3.org/2000/svg" xmlns:xlink="http://www.w3.org/1999/xlink" x="0px" y="0px"
	 viewBox="0 0 20 17.2" style="enable-background:new 0 0 20 17.2;" xml:space="preserve">
<style type="text/css">
	.st0{fill:#DE0E54;}
	.st1{fill:#00C213;}
</style>
<path class="st0" d="M0.7,9.9l1.4,0.3l1-1.6L1.1,8.2C0.6,8.1,0.2,8.3,0,8.8S0.2,9.8,0.7,9.9z"/>
<path class="st0" d="M18.5,10.2l-4.5,4l-5.2-4.1C8.7,10.1,8.6,10,8.4,10L7.7,9.8l-1,1.6l1.1,0.3l5.7,4.4c0.3,0.3,0.8,0.3,1.2,0
	l5-4.5c0.4-0.3,0.4-0.9,0.1-1.3c0,0,0,0,0,0C19.4,9.9,18.9,9.9,18.5,10.2z"/>
<path class="st1" d="M8.7,5.8l4.9,3.1c0.4,0.3,1,0.2,1.2-0.2l5-7.2c0.3-0.4,0.2-1-0.2-1.3c0,0,0,0,0,0c-0.4-0.3-1-0.2-1.3,0.2
	l-4.5,6.5L8.9,3.8C8.7,3.6,8.4,3.6,8.2,3.6C8,3.7,7.8,3.8,7.6,4L0.1,15.8c-0.3,0.4-0.1,1,0.3,1.2c0.1,0.1,0.3,0.1,0.5,0.1
	c0.3,0,0.6-0.2,0.8-0.4C1.7,16.8,8.7,5.8,8.7,5.8z"/>
</svg>
