<?xml version="1.0" encoding="utf-8"?>
<!-- Generator: Adobe Illustrator 27.0.0, SVG Export Plug-In . SVG Version: 6.00 Build 0)  -->
<svg version="1.1" id="Layer_1" xmlns="http://www.w3.org/2000/svg" xmlns:xlink="http://www.w3.org/1999/xlink" x="0px" y="0px"
	 viewBox="0 0 48.2 48.2" style="enable-background:new 0 0 48.2 48.2;" xml:space="preserve">
<style type="text/css">
	.st0{fill:#F6F300;}
</style>
<path class="st0" d="M48.2,24.1c0,13.3-10.8,24.1-24.1,24.1S0,37.4,0,24.1S10.8,0,24.1,0S48.2,10.8,48.2,24.1z M16.4,13.9
	c-2.4,0-4.3,1.9-4.3,4.3s1.9,4.3,4.3,4.3s4.3-1.9,4.3-4.3S18.8,13.9,16.4,13.9z M31.9,13.9c-2.4,0-4.3,1.9-4.3,4.3s1.9,4.3,4.3,4.3
	s4.3-1.9,4.3-4.3S34.3,13.9,31.9,13.9z M31.7,30.6c-2,1.8-4.7,2.8-7.6,2.8c-2.8,0-5.4-1-7.5-2.7l-0.9-0.8c-0.3-0.2-0.5-0.3-1.1-0.3
	c-1.1,0-1.9,0.9-1.9,1.9c0,0.5,0.2,1,0.6,1.4l0.7,0.6c2.7,2.4,6.3,3.8,10.1,3.8c3.9,0,7.5-1.5,10.2-3.9l0.5-0.5
	c0.4-0.4,0.6-0.9,0.6-1.4c0-1.1-0.9-1.9-1.9-1.9c-0.5,0-0.9,0.2-1.2,0.4L31.7,30.6z"/>
</svg>
