<?xml version="1.0" encoding="utf-8"?>
<!-- Generator: Adobe Illustrator 27.2.0, SVG Export Plug-In . SVG Version: 6.00 Build 0)  -->
<svg version="1.1" id="Layer_1" xmlns="http://www.w3.org/2000/svg" xmlns:xlink="http://www.w3.org/1999/xlink" x="0px" y="0px"
	 viewBox="0 0 20 17" style="enable-background:new 0 0 20 17;" xml:space="preserve">
<style type="text/css">
	.st0{fill:#9A33FF;}
	.st1{fill:#FFFFFF;}
</style>
<path class="st0" d="M14.9,17H5.1C2.3,17,0,14.7,0,11.9V5.1C0,2.3,2.3,0,5.1,0h9.7C17.7,0,20,2.3,20,5.1v6.7
	C20,14.7,17.7,17,14.9,17z"/>
<path class="st1" d="M7.5,5.6c0.3,0.1,0.4,0.5,0.3,0.8S7.3,6.8,7,6.7C6.7,6.5,6.4,6.5,6,6.5c-0.9,0-1.5,0.8-1.5,1.9s0.6,1.9,1.5,1.9
	c0.4,0,0.8-0.2,1-0.5l0,0V9.1H6.6H6.5C6.2,9.1,6,8.9,6,8.6V8.5V8.4c0.1-0.3,0.3-0.5,0.5-0.6h0.1h1h0.1C8,7.8,8.2,8,8.2,8.3v0.1v1.5
	V10l0,0v0.1v0.1l-0.1,0.2c-0.4,0.8-1.2,1.2-2.1,1.2c-1.7,0-2.8-1.4-2.8-3.1S4.4,5.4,6,5.4C6.6,5.4,7,5.5,7.5,5.6z"/>
<path class="st1" d="M11.2,6L11.2,6v4.9V11c0,0.3-0.3,0.5-0.6,0.5S10,11.3,10,11v-0.1V6.1V6c0-0.3,0.3-0.5,0.6-0.5
	C10.9,5.5,11.2,5.7,11.2,6z"/>
<path class="st1" d="M13.6,5.5h2l0,0c0.4,0.1,0.6,0.3,0.7,0.6c0,0.3-0.2,0.6-0.5,0.6h-0.1h-1.4v1.8h1.1h0.1C15.8,8.5,16,8.7,16,9
	l0,0.2v0.1c0,0.3-0.3,0.4-0.6,0.4h-0.1h-1.1v1.1v0.1c0,0.3-0.2,0.5-0.5,0.5h-0.1h-0.1c-0.3,0-0.5-0.2-0.5-0.5v-0.1V6.1V6
	C13,5.7,13.3,5.5,13.6,5.5h2H13.6z"/>
</svg>
