<?xml version="1.0" encoding="utf-8"?>
<!-- Generator: Adobe Illustrator 27.2.0, SVG Export Plug-In . SVG Version: 6.00 Build 0)  -->
<svg version="1.1" id="Layer_1" xmlns="http://www.w3.org/2000/svg" xmlns:xlink="http://www.w3.org/1999/xlink" x="0px" y="0px"
	 viewBox="0 0 800 800" style="enable-background:new 0 0 800 800;" xml:space="preserve">
<style type="text/css">
	.st0{fill-rule:evenodd;clip-rule:evenodd;fill:#FFFFFF;}
</style>
<path class="st0" d="M233.3,333.3c0-18.4,14.9-33.3,33.3-33.3h0.3c18.4,0,33.3,14.9,33.3,33.3c0,18.4-14.9,33.3-33.3,33.3h-0.3
	C248.3,366.7,233.3,351.7,233.3,333.3z M366.7,333.3c0-18.4,14.9-33.3,33.3-33.3h0.3c18.4,0,33.3,14.9,33.3,33.3
	c0,18.4-14.9,33.3-33.3,33.3H400C381.6,366.7,366.7,351.7,366.7,333.3z M533.3,300c-18.4,0-33.3,14.9-33.3,33.3
	c0,18.4,14.9,33.3,33.3,33.3h0.3c18.4,0,33.3-14.9,33.3-33.3c0-18.4-14.9-33.3-33.3-33.3H533.3z M231.1,66.7c0.7,0,1.5,0,2.2,0
	h335.5c29.5,0,55,0,75.4,2.7C666.1,72.3,687.1,79,704,96c17,17,23.6,37.9,26.6,59.8c2.7,20.4,2.7,45.8,2.7,75.4v204.4
	c0,29.6,0,55-2.7,75.4c-2.9,21.9-9.6,42.8-26.6,59.8c-17,17-37.9,23.6-59.8,26.6c-20.4,2.7-45.9,2.7-75.4,2.7H466.7
	c-3.8,0-7.5,1.2-10.5,3.4L309.2,710.3c-31.6,23-75.9,0.4-75.9-38.6V600c-25.8,0-52,0.7-77.6-2.7c-21.9-2.9-42.8-9.6-59.8-26.6
	c-17-17-23.6-37.9-26.6-59.8c-2.7-20.4-2.7-45.8-2.7-75.4V233.3c0-0.7,0-1.5,0-2.2c0-29.5,0-55,2.7-75.4C72.3,133.9,79,112.9,96,96
	c17-17,37.9-23.6,59.8-26.6C176.1,66.7,201.6,66.7,231.1,66.7z"/>
</svg>
