<?xml version="1.0" encoding="utf-8"?>
<!-- Generator: Adobe Illustrator 27.0.0, SVG Export Plug-In . SVG Version: 6.00 Build 0)  -->
<svg version="1.1" id="Layer_1" xmlns="http://www.w3.org/2000/svg" xmlns:xlink="http://www.w3.org/1999/xlink" x="0px" y="0px"
	 viewBox="0 0 20 17.8" style="enable-background:new 0 0 20 17.8;" xml:space="preserve">
<style type="text/css">
	.st0{fill:#FFFFFF;}
</style>
<path class="st0" d="M19.8,14.3c-0.5-1-1.2-2.2-1.9-3.4c-0.7-1.3-1.3-2.3-1.8-3.4c-1.1-2-2.7-4.7-4-6.5C11.6,0.5,10.8,0,10,0
	S8.4,0.4,8,1.1C6.7,2.9,5.2,5.6,4,7.6c-1.2,2.1-2.8,4.8-3.7,6.7C-0.1,15,0,15.9,0.3,16.6c0.5,0.7,1.2,1.1,2,1.2c2.2,0.1,5.3,0,7.6,0
	c2.3,0,5.4,0,7.6,0c0.8,0,1.6-0.4,2-1.2C20,15.9,20.1,15,19.8,14.3z M11,14.9c0,0.5-0.4,1-1,1s-1-0.4-1-1V10c0-0.5,0.4-1,1-1
	s1,0.4,1,1V14.9z M10,7.6C9.4,7.6,8.8,7,8.8,6.4S9.4,5.2,10,5.2s1.2,0.6,1.2,1.2S10.6,7.6,10,7.6z"/>
</svg>
