<?xml version="1.0" encoding="utf-8"?>
<!-- Generator: Adobe Illustrator 27.1.1, SVG Export Plug-In . SVG Version: 6.00 Build 0)  -->
<svg version="1.1" id="Layer_1" xmlns="http://www.w3.org/2000/svg" xmlns:xlink="http://www.w3.org/1999/xlink" x="0px" y="0px"
	 viewBox="0 0 733.3 733.3" style="enable-background:new 0 0 733.3 733.3;" xml:space="preserve">
<style type="text/css">
	.st0{fill-rule:evenodd;clip-rule:evenodd;fill:#DE0E54;}
</style>
<path class="st0" d="M366.7,0C164.2,0,0,164.2,0,366.7c0,202.5,164.2,366.7,366.7,366.7c202.5,0,366.7-164.2,366.7-366.7
	C733.3,164.2,569.2,0,366.7,0z M216.8,146.1C259.5,117,311.1,100,366.7,100c147.3,0,266.7,119.4,266.7,266.7
	c0,55.6-17,107.2-46.1,149.9L216.8,146.1z M146.1,216.8C117,259.5,100,311.1,100,366.7c0,147.3,119.4,266.7,266.7,266.7
	c55.6,0,107.2-17,149.9-46.1L146.1,216.8z"/>
</svg>
