<?xml version="1.0" encoding="utf-8"?>
<!-- Generator: Adobe Illustrator 27.0.1, SVG Export Plug-In . SVG Version: 6.00 Build 0)  -->
<svg version="1.1" id="Layer_1" xmlns="http://www.w3.org/2000/svg" xmlns:xlink="http://www.w3.org/1999/xlink" x="0px" y="0px"
	 viewBox="0 0 256 198.2" style="enable-background:new 0 0 256 198.2;" xml:space="preserve">
<style type="text/css">
	.st0{fill:#5865F2;}
</style>
<g>
	<path class="st0" d="M216.9,16.6C200.3,8.8,182.6,3.2,164,0c-2.3,4.1-4.9,9.6-6.8,14c-19.7-3-39.2-3-58.5,0
		c-1.8-4.4-4.6-9.9-6.8-14C73.4,3.2,55.6,8.9,39,16.6C5.6,67.1-3.4,116.4,1.1,165c22.2,16.6,43.7,26.6,64.8,33.2
		c5.2-7.2,9.9-14.8,13.9-22.8c-7.6-2.9-14.9-6.5-21.8-10.6c1.8-1.4,3.6-2.8,5.4-4.2c42.1,19.7,87.9,19.7,129.5,0
		c1.8,1.5,3.5,2.9,5.4,4.2c-6.9,4.2-14.3,7.8-21.9,10.7c4,8,8.6,15.7,13.9,22.8c21.1-6.6,42.6-16.6,64.8-33.2
		C260.2,108.7,245.8,59.9,216.9,16.6z M85.5,135.1c-12.6,0-23-11.8-23-26.2s10.1-26.2,23-26.2c12.9,0,23.2,11.8,23,26.2
		C108.5,123.3,98.3,135.1,85.5,135.1z M170.5,135.1c-12.6,0-23-11.8-23-26.2s10.1-26.2,23-26.2c12.9,0,23.2,11.8,23,26.2
		C193.5,123.3,183.4,135.1,170.5,135.1z"/>
</g>
</svg>
