<?xml version="1.0" encoding="utf-8"?>
<!-- Generator: Adobe Illustrator 27.2.0, SVG Export Plug-In . SVG Version: 6.00 Build 0)  -->
<svg version="1.1" id="Layer_1" xmlns="http://www.w3.org/2000/svg" xmlns:xlink="http://www.w3.org/1999/xlink" x="0px" y="0px"
	 viewBox="0 0 881.2 881.2" style="enable-background:new 0 0 881.2 881.2;" xml:space="preserve">
<style type="text/css">
	.st0{fill:#F7760D;}
	.st1{fill:#61B510;}
</style>
<circle cx="440.6" cy="440.6" r="440.6"/>
<g id="Layer_00000009551734974918442710000002482033183623358126_">
	<path id="Layer" class="st0" d="M719,200.2c1.2-0.4,2.4-0.8,3.7-1.2c1.2-0.3,2.5-0.7,3.7-0.9c1.2-0.2,2.5-0.5,3.8-0.7
		c-3.2,6.9-6.4,13.8-9.4,20.8c-3,7-5.9,14-8.7,21.1c-2.8,7.1-5.4,14.2-8,21.3c-2.6,7.1-5,14.3-7.3,21.5
		c-6.6,20.3-12.2,40.9-16.9,61.8c-6.5,29-15,82.3-16,85.1c-1,2.8-2.2,5.5-3.7,8c-1.5,2.6-3.3,5-5.2,7.2c-2,2.2-4.1,4.3-6.5,6.1
		c-2.4,1.8-4.9,3.4-7.6,4.7c-0.4,0.1-0.7,0.2-1.1,0.2c-0.4,0-0.8-0.1-1.1-0.2c-0.4-0.1-0.7-0.3-1-0.5c-0.3-0.2-0.5-0.5-0.7-0.8
		c-0.7-1,0.7-2.6,1.5-3.5c1.4-1.6,2.6-3.3,3.6-5.2c1-1.8,1.7-3.8,2.3-5.9c0.5-2.1,0.7-4.1,0.7-6.2c0-2.1-0.3-4.2-0.9-6.2
		c-4.1-20.3-75.1-23-163.5-1.1c-88.4,21.9-148.9,57.5-142.5,77.2c0.5,2,1.3,4,2.3,5.9c1,1.8,2.3,3.6,3.7,5.1s3.1,3,4.9,4.1
		c1.8,1.2,3.7,2.1,5.7,2.8c1.1,0.5,3.2,1.2,3,2.4c0,0.4-0.1,0.7-0.2,1.1c-0.1,0.3-0.4,0.7-0.6,0.9c-0.2,0.3-0.5,0.5-0.9,0.7
		c-0.3,0.2-0.7,0.3-1,0.3c-3,0.1-6-0.1-9-0.6c-3-0.5-5.9-1.2-8.7-2.3c-2.8-1-5.5-2.3-8.1-3.9c-2.6-1.6-5-3.3-7.2-5.4
		c0,0-34.3-45.2-54.4-67.6c-14.5-16.1-29.6-31.7-45.3-46.5c-5.6-5.3-11.3-10.5-17.1-15.6c-5.8-5.1-11.6-10.2-17.6-15.1
		c-5.9-4.9-11.9-9.8-18-14.5c-6.1-4.8-12.3-9.4-18.5-14c1.2-0.5,2.4-1,3.6-1.4c1.2-0.4,2.5-0.9,3.7-1.2c1.3-0.3,2.5-0.7,3.8-1
		c1.3-0.3,2.5-0.5,3.8-0.7c22.4-1.7,42.8,15.1,53.8,24.5h0.1c8.4-9.4,24.9-26.9,45.1-29.3c0.5,2.4,0.9,7,1.1,9.5c0.3,4,0.2,8-0.4,12
		c-0.6,4-1.6,7.9-3,11.6c-1.4,3.8-3.2,7.4-5.4,10.8c-2.2,3.4-4.7,6.6-7.6,9.4c4,2.1,8.1,4,12.4,5.6s8.6,3,13,4.1
		c4.4,1.1,8.9,2,13.4,2.6c4.5,0.6,9.1,1,13.6,1c1.1-0.1,2.1-0.2,3.1-0.4c1.1-0.2,2.1-0.4,3.1-0.6c1-0.2,2-0.5,3-0.8c1-0.3,2-0.7,3-1
		c4.1-1.6,7.9-3.7,11.4-6.4c3.4-2.7,6.5-5.8,9-9.4c2.5-3.5,4.4-7.4,5.7-11.5c1.3-4.1,2-8.4,2-12.7c4.6,2.8,9.6,4.8,15,5.9
		c5.3,1.1,10.8,1.1,16.2,0.3c5.4-0.9,10.5-2.7,15.2-5.4c4.7-2.7,8.8-6.2,12.2-10.3c0.5-0.8,1-1.6,1.5-2.4c0.5-0.8,1-1.6,1.4-2.4
		c0.5-0.8,0.9-1.6,1.4-2.4c0.4-0.8,0.9-1.7,1.3-2.5c0.7-1.4,1.4-2.8,2-4.1c0.1-0.6,0.4-1.1,0.5-1.7c0,0.1,0,0.2,0.1,0.3
		c2.4-5.4,4.3-10.9,5.8-16.5c1.5-5.7,2.5-11.4,3-17.2c0.5-5.8,0.6-11.7,0.2-17.5c-0.4-5.8-1.3-11.6-2.6-17.3
		c-0.3,0.1-0.6,0.3-0.9,0.4c-4.1,1.7-8.5,2.8-12.9,3.5c-4.4,0.7-8.9,0.9-13.4,0.6c-4.5-0.3-8.9-1.1-13.2-2.4
		c-4.3-1.3-8.4-3.1-12.2-5.3c-0.4-0.2-0.8-0.5-1.3-0.7c-0.4-0.2-0.8-0.5-1.2-0.7c-0.4-0.3-0.8-0.5-1.2-0.8c-0.4-0.3-0.8-0.5-1.2-0.8
		c0.2-0.4,0.4-0.9,0.6-1.3c0.2-0.4,0.4-0.8,0.7-1.3c0.2-0.4,0.4-0.8,0.7-1.3c0.2-0.4,0.5-0.8,0.7-1.3c2-3.4,4.4-6.5,7.1-9.4
		c2.7-2.9,5.7-5.5,8.9-7.8c3.3-2.3,6.7-4.3,10.4-5.8s7.5-2.8,11.4-3.7c1.8-0.4,3.7-0.7,5.5-0.9c-10.4-17.2-13.5-50.2-2.3-68.6
		c0.3-0.5,0.6-1,0.9-1.5s0.7-1,1-1.5s0.7-1,1-1.4c0.4-0.5,0.7-0.9,1.1-1.4l1.1-1.4l1.7,0.7c0.6,0.3,1.2,0.5,1.9,0.8
		c0.6,0.3,1.2,0.6,1.8,0.9c0.6,0.3,1.2,0.6,1.8,0.9s1.2,0.7,1.8,1c18.8,10.9,34.1,40.9,33.6,60.8c1.7-0.7,3.5-1.3,5.3-1.8
		c4.3-1.3,8.8-2,13.3-2.3c4.5-0.2,9,0,13.4,0.8c4.4,0.8,8.8,2,12.9,3.8c4.1,1.7,8.1,3.9,11.7,6.5c-0.2,0.4-0.4,0.8-0.6,1.3
		c-0.2,0.4-0.4,0.8-0.7,1.3c-0.2,0.4-0.5,0.8-0.7,1.3c-0.2,0.4-0.5,0.8-0.7,1.2c-2.3,3.8-5,7.2-8.1,10.4c-3.1,3.1-6.6,6-10.3,8.3
		c-3.8,2.4-7.8,4.3-12,5.8c-4.2,1.5-8.6,2.4-13,2.9c-0.3,0-0.7,0.1-1,0.1c1.8,6.1,4.1,12,6.9,17.8c2.8,5.7,6.1,11.2,9.9,16.3
		s8,10,12.6,14.5c4.6,4.4,9.6,8.5,15,12.1c2.6,1.7,5.2,3.4,7.8,4.9c5,2,10.3,3.2,15.7,3.4c5.4,0.2,10.8-0.6,15.9-2.3
		c5.1-1.7,9.9-4.3,14-7.7c4.1-3.4,7.6-7.5,10.3-12.1c2.1,3.8,4.8,7.2,7.9,10.3c3.1,3,6.8,5.5,10.7,7.5c3.9,2,8.1,3.4,12.5,4.1
		c4.4,0.8,8.8,0.9,13.2,0.4c1.7-0.1,3.5-0.3,5.2-0.7c1.7-0.3,3.4-0.8,5.1-1.3c1.7-0.5,3.3-1.2,4.8-1.9c1.6-0.7,3.1-1.6,4.6-2.5
		c3.4-2.1,6.6-4.5,9.8-6.9c3.1-2.5,6.1-5.1,9-7.9c2.8-2.8,5.5-5.7,8.1-8.8c2.5-3.1,4.9-6.2,7.1-9.5c-4-1.2-7.8-2.7-11.3-4.7
		s-7-4.3-10.1-6.9c-3.1-2.7-5.9-5.6-8.4-8.8c-2.4-3.2-4.5-6.7-6.2-10.3c-0.3-0.5-0.5-1.1-0.7-1.7c-0.2-0.6-0.5-1.1-0.7-1.7
		c-0.2-0.6-0.4-1.1-0.6-1.7c-0.2-0.6-0.4-1.2-0.6-1.8c4.5-1.7,9.2-2.9,13.9-3.5c4.8-0.6,9.6-0.6,14.4-0.1c4.8,0.6,9.5,1.7,14,3.4
		c4.5,1.7,8.8,3.9,12.7,6.6h0.1c0.3-5.2,1.3-10.3,3-15.2c1.7-4.9,4.1-9.5,7-13.8c3-4.3,6.6-8.1,10.6-11.5c4.1-3.3,8.6-6.1,13.4-8.2
		C716.6,201,717.8,200.6,719,200.2L719,200.2z"/>
	<path id="Layer_00000068650761067015376940000016844605858126260669_" class="st1" d="M403.1,469.1c11.9-5,24-9.5,36.2-13.7
		c12.2-4.2,24.6-7.9,37.1-11.3c12.5-3.4,25.1-6.3,37.8-8.8c12.7-2.5,25.5-4.6,38.3-6.3c12.9-1.7,100.4,9.6,100.4,124.5
		S569.1,734,455,734s-174.3-49-174.3-101.3c0-52.2,38.5-60.5,56.4-60.5c17.9,0,50.3,15.7,50.3,56.7c0,0-32.3-7.7-32.3,19.5
		c0,27.2,38.1,44.1,90.4,44.1c52.2,0,126-22.3,126-121.8c0-106.1-50.4-110.8-85.4-110.8v182c0.1,2.2,0.7,4.4,1.7,6.4
		s2.4,3.8,4.1,5.2c1.7,1.5,3.7,2.7,5.8,3.4s4.4,1.1,6.7,1c2.3-0.1-18.4,15.2-64,15.2s-58.5-14.3-58.5-14.3s21.5,0.1,21.5-18.5
		C403.6,621.7,403.1,469.1,403.1,469.1L403.1,469.1z"/>
</g>
</svg>
