<?xml version="1.0" encoding="utf-8"?>
<!-- Generator: Adobe Illustrator 26.2.1, SVG Export Plug-In . SVG Version: 6.00 Build 0)  -->
<svg version="1.1" id="Layer_1" xmlns="http://www.w3.org/2000/svg" xmlns:xlink="http://www.w3.org/1999/xlink" x="0px" y="0px"
	 viewBox="0 0 2500 2500" style="enable-background:new 0 0 2500 2500;" xml:space="preserve">
<style type="text/css">
	.st0{fill:#C2A633;}
</style>
<g>
	<path class="st0" d="M1280,823.8h-178.6v352.1h281v147.4h-281v352.1h187.3c48.1,0,395.2,5.4,394.7-409.6S1346.8,823.8,1280,823.8z"
		/>
	<path class="st0" d="M1250,0C559.6,0,0,559.6,0,1250s559.6,1250,1250,1250s1250-559.6,1250-1250S1940.4,0,1250,0z M1299.1,1925.1
		H846.4v-601.8H686.8v-147.4h159.6V574h388.5c91.9,0,700.7-19.1,700.7,686.8C1935.6,1978.5,1299.1,1925.1,1299.1,1925.1
		L1299.1,1925.1z"/>
</g>
</svg>
