<?xml version="1.0" encoding="utf-8"?>
<!-- Generator: Adobe Illustrator 27.2.0, SVG Export Plug-In . SVG Version: 6.00 Build 0)  -->
<svg version="1.1" id="Layer_1" xmlns="http://www.w3.org/2000/svg" xmlns:xlink="http://www.w3.org/1999/xlink" x="0px" y="0px"
	 viewBox="0 0 800 800" style="enable-background:new 0 0 800 800;" xml:space="preserve">
<style type="text/css">
	.st0{fill-rule:evenodd;clip-rule:evenodd;fill:#FFFFFF;}
</style>
<path class="st0" d="M400,800C179.1,800,0,620.9,0,400C0,179.1,179.1,0,400,0c220.9,0,400,179.1,400,400
	C800,620.9,620.9,800,400,800z M66.7,400c0,184.1,149.2,333.3,333.3,333.3c184.1,0,333.3-149.2,333.3-333.3
	c0-184.1-149.2-333.3-333.3-333.3C215.9,66.7,66.7,215.9,66.7,400z M543.1,376.4L433.3,486.2V200h-66.7v286.2L256.9,376.4
	l-47.1,47.1l166.7,166.7l23.6,23.6l23.6-23.6l166.7-166.7L543.1,376.4z"/>
</svg>
