<?xml version="1.0" encoding="utf-8"?>
<!-- Generator: Adobe Illustrator 27.0.1, SVG Export Plug-In . SVG Version: 6.00 Build 0)  -->
<svg version="1.1" id="Layer_1" xmlns="http://www.w3.org/2000/svg" xmlns:xlink="http://www.w3.org/1999/xlink" x="0px" y="0px"
	 viewBox="0 0 2500 2500" style="enable-background:new 0 0 2500 2500;" xml:space="preserve">
<style type="text/css">
	.st0{fill-rule:evenodd;clip-rule:evenodd;fill:#2B86F8;}
</style>
<path class="st0" d="M1250,0c690.4,0,1250,559.6,1250,1250s-559.6,1250-1250,1250S0,1940.4,0,1250S559.6,0,1250,0z M1288.9,312.5
	v693l585.7,261.7L1288.9,312.5z M1288.9,312.5l-585.8,954.7l585.8-261.7V312.5z M1288.9,1716.2v470.9l586.1-810.9L1288.9,1716.2z
	 M1288.9,2187.1v-470.9l-585.8-339.9L1288.9,2187.1z M1288.9,1607.3l585.7-340.1l-585.7-261.6L1288.9,1607.3L1288.9,1607.3z
	 M703.1,1267.2l585.8,340.1v-601.6L703.1,1267.2z"/>
</svg>
