<?xml version="1.0" encoding="utf-8"?>
<!-- Generator: Adobe Illustrator 26.5.0, SVG Export Plug-In . SVG Version: 6.00 Build 0)  -->
<svg version="1.1" id="Capa_1" xmlns="http://www.w3.org/2000/svg" xmlns:xlink="http://www.w3.org/1999/xlink" x="0px" y="0px"
	 viewBox="0 0 55.9 53.2" style="enable-background:new 0 0 55.9 53.2;" xml:space="preserve">
<path d="M55.8,20.3c-0.1-0.4-0.4-0.6-0.8-0.7l-18.1-2.6L28.8,0.6C28.7,0.2,28.3,0,27.9,0S27.2,0.2,27,0.6L18.9,17L0.9,19.6
	c-0.4,0.1-0.7,0.3-0.8,0.7c-0.1,0.4,0,0.8,0.3,1L13.4,34l-3.1,18c-0.1,0.4,0.1,0.8,0.4,1c0.3,0.2,0.7,0.3,1.1,0.1l16.2-8.5l16.2,8.5
	c0.1,0.1,0.3,0.1,0.5,0.1c0.2,0,0.4-0.1,0.6-0.2c0.3-0.2,0.5-0.6,0.4-1l-3.1-18l13.1-12.8C55.8,21,55.9,20.6,55.8,20.3z"/>
</svg>
