<?xml version="1.0" encoding="utf-8"?>
<!-- Generator: Adobe Illustrator 27.2.0, SVG Export Plug-In . SVG Version: 6.00 Build 0)  -->
<svg version="1.1" id="Layer_1" xmlns="http://www.w3.org/2000/svg" xmlns:xlink="http://www.w3.org/1999/xlink" x="0px" y="0px"
	 viewBox="0 0 881.2 881.2" style="enable-background:new 0 0 881.2 881.2;" xml:space="preserve">
<style type="text/css">
	.st0{fill:#17468F;}
	.st1{fill:#FFFFFF;}
</style>
<circle class="st0" cx="440.6" cy="440.6" r="440.6"/>
<g>
	<path class="st1" d="M276.2,399.5c-1.6-5.5-3.8-10.4-6.7-14.7c-2.9-4.3-6.4-7.9-10.5-10.9c-4.1-3-8.8-5.3-14.1-6.9
		c-5.3-1.6-11.1-2.4-17.4-2.4c-11.9,0-22.3,3-31.3,8.9c-9,5.9-16,14.5-21,25.7s-7.5,25-7.5,41.2c0,16.2,2.5,30,7.4,41.4
		c4.9,11.4,11.9,20,20.9,26c9,5.9,19.7,8.9,31.9,8.9c11.1,0,20.7-2,28.6-6c7.9-4,14-9.6,18.2-16.9c4.2-7.3,6.3-15.9,6.3-25.8l10,1.5
		h-60v-37h97.4v29.3c0,20.5-4.3,38-13,52.7c-8.6,14.7-20.5,25.9-35.7,33.9c-15.2,7.9-32.5,11.9-52,11.9c-21.8,0-41-4.8-57.5-14.5
		c-16.5-9.7-29.4-23.4-38.6-41.2c-9.2-17.8-13.8-39-13.8-63.6c0-18.9,2.7-35.7,8.2-50.5c5.5-14.8,13.2-27.4,23.1-37.7
		c9.9-10.3,21.5-18.1,34.7-23.5c13.2-5.4,27.5-8.1,42.8-8.1c13.2,0,25.5,1.9,36.8,5.7c11.4,3.8,21.5,9.2,30.3,16.2
		c8.8,7,16,15.2,21.6,24.8c5.6,9.6,9.2,20.1,10.8,31.6H276.2z"/>
	<path class="st1" d="M436.2,557h-82.5V324.2h83.2c23.4,0,43.6,4.6,60.5,13.9c16.9,9.3,29.9,22.6,39,39.9
		c9.1,17.3,13.7,38.1,13.7,62.3c0,24.2-4.6,45.1-13.7,62.5c-9.1,17.4-22.2,30.8-39.2,40.1C480.2,552.3,459.9,557,436.2,557z
		 M402.9,514.8h31.2c14.5,0,26.8-2.6,36.8-7.8c10-5.2,17.5-13.3,22.5-24.2c5-10.9,7.6-25.1,7.6-42.4c0-17.2-2.5-31.2-7.6-42.2
		c-5-10.9-12.5-18.9-22.4-24.1c-9.9-5.2-22.2-7.7-36.7-7.7h-31.4V514.8z"/>
	<path class="st1" d="M610.4,324.2l46.9,79.3h1.8l47.2-79.3h55.6l-71,116.4L763.5,557h-56.6l-47.7-79.4h-1.8L609.6,557h-56.4
		l72.8-116.4l-71.5-116.4H610.4z"/>
</g>
</svg>
