<?xml version="1.0" encoding="utf-8"?>
<!-- Generator: Adobe Illustrator 27.1.1, SVG Export Plug-In . SVG Version: 6.00 Build 0)  -->
<svg version="1.1" id="Layer_1" xmlns="http://www.w3.org/2000/svg" xmlns:xlink="http://www.w3.org/1999/xlink" x="0px" y="0px"
	 viewBox="0 0 881.2 881.2" style="enable-background:new 0 0 881.2 881.2;" xml:space="preserve">
<style type="text/css">
	.st0{fill:#ED1E25;}
	.st1{fill:#FFFFFF;}
</style>
<circle class="st0" cx="440.6" cy="440.6" r="440.6"/>
<g>
	<path class="st1" d="M186.8,413.6c-1-3.6-2.5-6.9-4.4-9.7c-1.9-2.8-4.2-5.2-6.9-7.2c-2.7-2-5.8-3.5-9.3-4.5
		c-3.5-1-7.3-1.6-11.5-1.6c-7.8,0-14.7,1.9-20.6,5.8c-5.9,3.9-10.5,9.5-13.8,16.9s-4.9,16.4-4.9,27.1s1.6,19.7,4.9,27.2
		c3.2,7.5,7.8,13.2,13.7,17.1c5.9,3.9,12.9,5.9,21,5.9c7.3,0,13.6-1.3,18.8-3.9c5.2-2.6,9.2-6.3,11.9-11.1
		c2.8-4.8,4.1-10.4,4.1-16.9l6.6,1h-39.4v-24.3h64v19.3c0,13.4-2.8,25-8.5,34.6c-5.7,9.6-13.5,17-23.4,22.2
		c-10,5.2-21.3,7.8-34.2,7.8c-14.3,0-26.9-3.2-37.8-9.5c-10.8-6.3-19.3-15.4-25.3-27.1c-6-11.7-9.1-25.6-9.1-41.8
		c0-12.4,1.8-23.5,5.4-33.2c3.6-9.7,8.7-18,15.2-24.7c6.5-6.8,14.1-11.9,22.8-15.5s18-5.3,28.1-5.3c8.7,0,16.7,1.3,24.2,3.8
		c7.5,2.5,14.1,6.1,19.9,10.6c5.8,4.6,10.5,10,14.2,16.3c3.7,6.3,6,13.2,7.1,20.8H186.8z"/>
	<path class="st1" d="M378.2,440.6c0,16.7-3.1,30.9-9.4,42.5c-6.3,11.7-14.9,20.6-25.7,26.8c-10.8,6.1-23,9.2-36.5,9.2
		c-13.6,0-25.8-3.1-36.6-9.3c-10.8-6.2-19.3-15.1-25.6-26.8c-6.3-11.7-9.4-25.9-9.4-42.5c0-16.7,3.1-30.9,9.4-42.5
		c6.3-11.7,14.8-20.6,25.6-26.8c10.8-6.1,23-9.2,36.6-9.2c13.5,0,25.6,3.1,36.5,9.2c10.8,6.1,19.4,15.1,25.7,26.8
		C375.1,409.8,378.2,423.9,378.2,440.6z M345.4,440.6c0-10.8-1.6-19.9-4.8-27.3c-3.2-7.4-7.7-13-13.5-16.9s-12.6-5.7-20.5-5.7
		c-7.8,0-14.6,1.9-20.5,5.7c-5.8,3.8-10.3,9.5-13.5,16.9c-3.2,7.4-4.8,16.5-4.8,27.3c0,10.8,1.6,19.9,4.8,27.3
		c3.2,7.4,7.7,13,13.5,16.9c5.8,3.8,12.6,5.7,20.5,5.7c7.8,0,14.6-1.9,20.5-5.7c5.8-3.8,10.3-9.5,13.5-16.9
		C343.8,460.5,345.4,451.4,345.4,440.6z"/>
	<path class="st1" d="M535,440.6c0,16.7-3.1,30.9-9.4,42.5c-6.3,11.7-14.9,20.6-25.7,26.8c-10.8,6.1-23,9.2-36.5,9.2
		c-13.6,0-25.8-3.1-36.6-9.3c-10.8-6.2-19.3-15.1-25.6-26.8c-6.3-11.7-9.4-25.9-9.4-42.5c0-16.7,3.1-30.9,9.4-42.5
		c6.3-11.7,14.8-20.6,25.6-26.8c10.8-6.1,23-9.2,36.6-9.2c13.5,0,25.6,3.1,36.5,9.2c10.8,6.1,19.4,15.1,25.7,26.8
		C531.9,409.8,535,423.9,535,440.6z M502.2,440.6c0-10.8-1.6-19.9-4.8-27.3c-3.2-7.4-7.7-13-13.5-16.9s-12.6-5.7-20.5-5.7
		c-7.8,0-14.6,1.9-20.5,5.7c-5.8,3.8-10.3,9.5-13.5,16.9c-3.2,7.4-4.8,16.5-4.8,27.3c0,10.8,1.6,19.9,4.8,27.3
		c3.2,7.4,7.7,13,13.5,16.9c5.8,3.8,12.6,5.7,20.5,5.7c7.8,0,14.6-1.9,20.5-5.7c5.8-3.8,10.3-9.5,13.5-16.9
		C500.6,460.5,502.2,451.4,502.2,440.6z"/>
	<path class="st1" d="M652.7,413.6c-1-3.6-2.5-6.9-4.4-9.7c-1.9-2.8-4.2-5.2-6.9-7.2c-2.7-2-5.8-3.5-9.3-4.5
		c-3.5-1-7.3-1.6-11.5-1.6c-7.8,0-14.7,1.9-20.6,5.8c-5.9,3.9-10.5,9.5-13.8,16.9s-4.9,16.4-4.9,27.1s1.6,19.7,4.9,27.2
		c3.2,7.5,7.8,13.2,13.7,17.1c5.9,3.9,12.9,5.9,21,5.9c7.3,0,13.6-1.3,18.8-3.9c5.2-2.6,9.2-6.3,11.9-11.1
		c2.8-4.8,4.1-10.4,4.1-16.9l6.6,1H623v-24.3h64v19.3c0,13.4-2.8,25-8.5,34.6c-5.7,9.6-13.5,17-23.4,22.2c-10,5.2-21.3,7.8-34.2,7.8
		c-14.3,0-26.9-3.2-37.8-9.5c-10.8-6.3-19.3-15.4-25.3-27.1c-6-11.7-9.1-25.6-9.1-41.8c0-12.4,1.8-23.5,5.4-33.2
		c3.6-9.7,8.7-18,15.2-24.7c6.5-6.8,14.1-11.9,22.8-15.5s18-5.3,28.1-5.3c8.7,0,16.7,1.3,24.2,3.8c7.5,2.5,14.1,6.1,19.9,10.6
		c5.8,4.6,10.5,10,14.2,16.3c3.7,6.3,6,13.2,7.1,20.8H652.7z"/>
	<path class="st1" d="M703.7,517V364.2H736v126.2h65.5V517H703.7z"/>
</g>
</svg>
