<?xml version="1.0" encoding="utf-8"?>
<!-- Generator: Adobe Illustrator 27.2.0, SVG Export Plug-In . SVG Version: 6.00 Build 0)  -->
<svg version="1.1" id="Layer_1" xmlns="http://www.w3.org/2000/svg" xmlns:xlink="http://www.w3.org/1999/xlink" x="0px" y="0px"
	 viewBox="0 0 881.2 881.2" style="enable-background:new 0 0 881.2 881.2;" xml:space="preserve">
<style type="text/css">
	.st0{fill:#07CB00;}
	.st1{fill:#FFFFFF;}
</style>
<circle class="st0" cx="440.6" cy="440.6" r="440.6"/>
<g>
	<path class="st1" d="M63.1,538.1v-195h41.2v80.5H188v-80.5h41.1v195H188v-80.6h-83.7v80.6H63.1z"/>
	<path class="st1" d="M432.7,440.6c0,21.3-4,39.4-12,54.3c-8,14.9-19,26.3-32.8,34.1c-13.8,7.8-29.3,11.8-46.5,11.8
		c-17.3,0-32.9-3.9-46.7-11.8c-13.8-7.9-24.7-19.3-32.7-34.2c-8-14.9-12-33-12-54.2c0-21.3,4-39.4,12-54.3
		c8-14.9,18.9-26.3,32.7-34.1c13.8-7.8,29.3-11.8,46.7-11.8c17.2,0,32.7,3.9,46.5,11.8c13.8,7.8,24.7,19.2,32.8,34.1
		C428.7,401.2,432.7,419.3,432.7,440.6z M390.9,440.6c0-13.8-2-25.4-6.1-34.9c-4.1-9.5-9.9-16.6-17.3-21.5
		c-7.4-4.9-16.1-7.3-26.1-7.3c-10,0-18.7,2.4-26.1,7.3c-7.4,4.9-13.2,12.1-17.3,21.5c-4.1,9.5-6.1,21.1-6.1,34.9
		c0,13.8,2,25.4,6.1,34.9c4.1,9.5,9.9,16.6,17.3,21.5c7.4,4.9,16.1,7.3,26.1,7.3c10,0,18.7-2.4,26.1-7.3
		c7.4-4.9,13.2-12.1,17.3-21.5C388.9,466,390.9,454.4,390.9,440.6z"/>
	<path class="st1" d="M632.8,440.6c0,21.3-4,39.4-12,54.3c-8,14.9-19,26.3-32.8,34.1c-13.8,7.8-29.3,11.8-46.5,11.8
		c-17.3,0-32.9-3.9-46.7-11.8c-13.8-7.9-24.7-19.3-32.7-34.2c-8-14.9-12-33-12-54.2c0-21.3,4-39.4,12-54.3
		c8-14.9,18.9-26.3,32.7-34.1c13.8-7.8,29.3-11.8,46.7-11.8c17.2,0,32.7,3.9,46.5,11.8c13.8,7.8,24.7,19.2,32.8,34.1
		C628.8,401.2,632.8,419.3,632.8,440.6z M591,440.6c0-13.8-2-25.4-6.1-34.9c-4.1-9.5-9.9-16.6-17.3-21.5c-7.4-4.9-16.1-7.3-26.1-7.3
		c-10,0-18.7,2.4-26.1,7.3c-7.4,4.9-13.2,12.1-17.3,21.5c-4.1,9.5-6.1,21.1-6.1,34.9c0,13.8,2,25.4,6.1,34.9
		c4.1,9.5,9.9,16.6,17.3,21.5c7.4,4.9,16.1,7.3,26.1,7.3c10,0,18.7-2.4,26.1-7.3c7.4-4.9,13.2-12.1,17.3-21.5
		C588.9,466,591,454.4,591,440.6z"/>
	<path class="st1" d="M722.7,538.1h-69.1v-195h69.7c19.6,0,36.5,3.9,50.7,11.7c14.2,7.8,25.1,18.9,32.7,33.5
		c7.6,14.5,11.5,31.9,11.5,52.2c0,20.3-3.8,37.8-11.5,52.4c-7.7,14.6-18.6,25.8-32.9,33.6C759.6,534.2,742.5,538.1,722.7,538.1z
		 M694.8,502.8H721c12.2,0,22.5-2.2,30.8-6.5c8.3-4.3,14.6-11.1,18.9-20.3c4.2-9.2,6.3-21,6.3-35.6c0-14.4-2.1-26.2-6.3-35.3
		c-4.2-9.1-10.5-15.9-18.8-20.2c-8.3-4.3-18.6-6.5-30.8-6.5h-26.3V502.8z"/>
</g>
</svg>
