<?xml version="1.0" encoding="utf-8"?>
<!-- Generator: Adobe Illustrator 27.2.0, SVG Export Plug-In . SVG Version: 6.00 Build 0)  -->
<svg version="1.1" id="Layer_1" xmlns="http://www.w3.org/2000/svg" xmlns:xlink="http://www.w3.org/1999/xlink" x="0px" y="0px"
	 viewBox="0 0 666.7 600" style="enable-background:new 0 0 666.7 600;" xml:space="preserve">
<style type="text/css">
	.st0{fill:#4296FF;}
	.st1{fill:#FFFFFF;}
</style>
<path class="st0" d="M166.7,0C74.6,0,0,74.6,0,166.7v266.7C0,525.4,74.6,600,166.7,600H500c92,0,166.7-74.6,166.7-166.7V166.7
	C666.7,74.6,592,0,500,0H166.7z"/>
<path class="st1" d="M596.4,460l-66.6-84c-31.6-39.9-88.2-49.7-131.4-22.7l-27.9,17.4c-15.3,9.6-35.4,5.2-45.4-9.8l-47.9-71.8
	c-37.1-55.6-117.2-59.9-160-8.6l-50.6,60.7v92.1c0,55.2,44.8,100,100,100H500C546,533.3,584.7,502.3,596.4,460z"/>
<path class="st1" d="M466.7,266.7c36.8,0,66.7-29.8,66.7-66.7c0-36.8-29.8-66.7-66.7-66.7S400,163.2,400,200
	C400,236.8,429.8,266.7,466.7,266.7z"/>
</svg>
