<?xml version="1.0" encoding="utf-8"?>
<!-- Generator: Adobe Illustrator 27.2.0, SVG Export Plug-In . SVG Version: 6.00 Build 0)  -->
<svg version="1.1" id="Layer_1" xmlns="http://www.w3.org/2000/svg" xmlns:xlink="http://www.w3.org/1999/xlink" x="0px" y="0px"
	 viewBox="0 0 881.2 881.2" style="enable-background:new 0 0 881.2 881.2;" xml:space="preserve">
<style type="text/css">
	.st0{fill:#0E4A68;}
	.st1{fill:#FFFFFF;}
</style>
<path class="st0" d="M440.6,0c243.3,0,440.6,197.3,440.6,440.6S683.9,881.2,440.6,881.2"/>
<path class="st0" d="M440.6,881.2C197.3,881.2,0,683.9,0,440.6S197.3,0,440.6,0"/>
<g>
	<path class="st1" d="M164.6,324.2V557h-49.2V324.2H164.6z"/>
	<path class="st1" d="M246,557l-66.6-232.7h53.8l38.5,161.7h1.9l42.5-161.7h46l42.4,162h2l38.5-162h53.8L432.3,557h-48L340,404.8
		h-1.8L294,557H246z"/>
	<path class="st1" d="M513.6,324.2h60.7l64.1,156.4h2.7l64.1-156.4h60.7V557h-47.7V405.5h-1.9L656,555.8h-32.5l-60.2-150.9h-1.9v152
		h-47.7V324.2z"/>
</g>
</svg>
