<?xml version="1.0" encoding="utf-8"?>
<!-- Generator: Adobe Illustrator 26.0.3, SVG Export Plug-In . SVG Version: 6.00 Build 0)  -->
<svg version="1.1" id="Layer_1" xmlns="http://www.w3.org/2000/svg" xmlns:xlink="http://www.w3.org/1999/xlink" x="0px" y="0px"
	 viewBox="0 0 250 250" style="enable-background:new 0 0 250 250;" xml:space="preserve">
<style type="text/css">
	.st0{fill:#8247E5;}
	.st1{fill:#FFFFFF;}
</style>
<circle class="st0" cx="125" cy="125" r="125"/>
<path class="st1" d="M160.2,101c-2.5-1.5-5.9-1.5-8.7,0L131.7,113l-13.5,7.8l-19.8,12.1c-2.5,1.5-5.9,1.5-8.7,0l-15.7-9.4
	c-2.5-1.5-4.4-4.5-4.4-7.6V97.3c0-3.1,1.5-6,4.4-7.6l15.6-9.2c2.5-1.5,5.9-1.5,8.7,0l15.6,9.2c2.5,1.5,4.4,4.5,4.4,7.6v12.1
	l13.5-8.1V89.2c0-3.1-1.5-6-4.4-7.6L98.3,64.2c-2.5-1.5-5.9-1.5-8.7,0L60.4,81.5C57.6,83.1,56,86,56,89.1v34.8c0,3.1,1.5,6,4.4,7.6
	l29.3,17.3c2.5,1.5,5.9,1.5,8.7,0l19.8-11.8l13.5-8.1l19.8-11.8c2.5-1.5,5.9-1.5,8.7,0l15.6,9.2c2.5,1.5,4.4,4.5,4.4,7.6v18.7
	c0,3.1-1.5,6-4.4,7.6l-15.6,9.4c-2.5,1.5-5.9,1.5-8.7,0l-15.6-9.2c-2.5-1.5-4.4-4.5-4.4-7.6v-12.1l-13.5,8.1v12.1
	c0,3.1,1.5,6,4.4,7.6l29.3,17.3c2.5,1.5,5.9,1.5,8.7,0l29.3-17.3c2.5-1.5,4.4-4.5,4.4-7.6v-34.8c0-3.1-1.5-6-4.4-7.6L160.2,101z"/>
</svg>
