<?xml version="1.0" encoding="utf-8"?>
<!-- Generator: Adobe Illustrator 27.1.1, SVG Export Plug-In . SVG Version: 6.00 Build 0)  -->
<svg version="1.1" id="Layer_1" xmlns="http://www.w3.org/2000/svg" xmlns:xlink="http://www.w3.org/1999/xlink" x="0px" y="0px"
	 viewBox="0 0 881.2 881.2" style="enable-background:new 0 0 881.2 881.2;" xml:space="preserve">
<style type="text/css">
	.st0{fill:#4867AA;}
	.st1{fill:#FFFFFF;}
</style>
<circle class="st0" cx="440.6" cy="440.6" r="440.6"/>
<g>
	<path class="st1" d="M89.1,343.1h50.9l53.7,131h2.3l53.7-131h50.9v195h-40V411.2h-1.6l-50.5,126h-27.2l-50.5-126.5h-1.6v127.4h-40
		V343.1z"/>
	<path class="st1" d="M324.7,538.1v-195h131.4v34H366v46.5h83.4v34H366v46.6h90.6v34H324.7z"/>
	<path class="st1" d="M471.9,377.1v-34h160.2v34h-59.7v161h-40.8v-161H471.9z"/>
	<path class="st1" d="M658.6,538.1h-44.2l67.3-195h53.1l67.2,195h-44.2L709,387.7h-1.5L658.6,538.1z M655.8,461.5h104.4v32.2H655.8
		V461.5z"/>
</g>
</svg>
