<?xml version="1.0" encoding="utf-8"?>
<!-- Generator: Adobe Illustrator 27.2.0, SVG Export Plug-In . SVG Version: 6.00 Build 0)  -->
<svg version="1.1" id="Layer_1" xmlns="http://www.w3.org/2000/svg" xmlns:xlink="http://www.w3.org/1999/xlink" x="0px" y="0px"
	 viewBox="0 0 881.2 881.2" style="enable-background:new 0 0 881.2 881.2;" xml:space="preserve">
<style type="text/css">
	.st0{fill:#E60814;}
	.st1{fill:#FFFFFF;}
</style>
<g>
	<circle class="st0" cx="440.6" cy="440.6" r="440.6"/>
	<g>
		<path class="st1" d="M281.7,343.1v195h-35.6l-84.9-122.8h-1.4v122.8h-41.2v-195h36.2l84.2,122.7h1.7V343.1H281.7z"/>
		<path class="st1" d="M306,538.1v-195h129.1v34h-87.9v46.5h79.3v34h-79.3v80.6H306z"/>
		<path class="st1" d="M453.2,538.1v-195h41.2v161h83.6v34H453.2z"/>
		<path class="st1" d="M634.4,343.1l39.3,66.5h1.5l39.5-66.5h46.6l-59.5,97.5l60.9,97.5h-47.4l-40-66.6h-1.5l-40,66.6h-47.2l61-97.5
			l-59.9-97.5H634.4z"/>
	</g>
</g>
</svg>
