<?xml version="1.0" encoding="utf-8"?>
<!-- Generator: Adobe Illustrator 27.1.1, SVG Export Plug-In . SVG Version: 6.00 Build 0)  -->
<svg version="1.1" id="Layer_1" xmlns="http://www.w3.org/2000/svg" xmlns:xlink="http://www.w3.org/1999/xlink" x="0px" y="0px"
	 viewBox="0 0 881.2 881.2" style="enable-background:new 0 0 881.2 881.2;" xml:space="preserve">
<style type="text/css">
	.st0{fill:#76B900;}
	.st1{fill:#FFFFFF;}
</style>
<circle class="st0" cx="440.6" cy="440.6" r="440.6"/>
<g>
	<path class="st1" d="M252.2,343.1v195h-35.6l-84.9-122.8h-1.4v122.8H89.1v-195h36.2l84.2,122.7h1.7V343.1H252.2z"/>
	<path class="st1" d="M311.8,343.1l47.1,148.2h1.8L408,343.1h45.7l-67.2,195h-53.1l-67.3-195H311.8z"/>
	<path class="st1" d="M536.6,538.1h-69.1v-195h69.7c19.6,0,36.5,3.9,50.7,11.7c14.2,7.8,25.1,18.9,32.7,33.5
		c7.6,14.5,11.5,31.9,11.5,52.2c0,20.3-3.8,37.8-11.5,52.4c-7.7,14.6-18.6,25.8-32.9,33.6C573.4,534.2,556.4,538.1,536.6,538.1z
		 M508.7,502.8h26.2c12.2,0,22.5-2.2,30.8-6.5c8.3-4.3,14.6-11.1,18.9-20.3c4.2-9.2,6.3-21,6.3-35.6c0-14.4-2.1-26.2-6.3-35.3
		c-4.2-9.1-10.5-15.9-18.8-20.2c-8.3-4.3-18.6-6.5-30.8-6.5h-26.3V502.8z"/>
	<path class="st1" d="M675.5,538.1h-44.2l67.3-195h53.1l67.2,195h-44.2L726,387.7h-1.5L675.5,538.1z M672.8,461.5h104.4v32.2H672.8
		V461.5z"/>
</g>
</svg>
