<?xml version="1.0" encoding="utf-8"?>
<!-- Generator: Adobe Illustrator 27.1.1, SVG Export Plug-In . SVG Version: 6.00 Build 0)  -->
<svg version="1.1" id="Isolation_Mode" xmlns="http://www.w3.org/2000/svg" xmlns:xlink="http://www.w3.org/1999/xlink" x="0px"
	 y="0px" viewBox="0 0 611.1 337.1" style="enable-background:new 0 0 611.1 337.1;" xml:space="preserve">
<path id="XMLID_351_" d="M611,35.7c0-0.6-0.1-1.3-0.1-1.9c0-0.6-0.1-1.1-0.1-1.7c-0.1-0.6-0.2-1.2-0.3-1.7c-0.1-0.6-0.2-1.2-0.3-1.8
	c-0.1-0.5-0.3-1.1-0.4-1.6c-0.2-0.6-0.3-1.2-0.5-1.8c-0.2-0.5-0.4-1-0.6-1.6c-0.2-0.6-0.4-1.1-0.7-1.7c-0.2-0.5-0.5-1.1-0.8-1.6
	c-0.3-0.5-0.5-1-0.8-1.5c-0.3-0.5-0.6-1.1-1-1.6c-0.3-0.5-0.6-1-0.9-1.4c-0.3-0.5-0.7-1-1.1-1.4c-0.4-0.5-0.7-0.9-1.1-1.4
	c-0.4-0.4-0.7-0.8-1.1-1.2c-0.5-0.5-0.9-1-1.4-1.4c-0.2-0.2-0.3-0.3-0.5-0.5c-0.2-0.2-0.5-0.4-0.7-0.6c-0.5-0.4-1-0.9-1.5-1.3
	c-0.4-0.3-0.9-0.7-1.4-1c-0.5-0.4-1-0.7-1.5-1c-0.5-0.3-1-0.6-1.5-0.9c-0.5-0.3-1-0.6-1.6-0.8c-0.5-0.3-1.1-0.5-1.6-0.8
	C589,3,588.5,2.7,588,2.5c-0.6-0.2-1.1-0.4-1.7-0.6c-0.6-0.2-1.1-0.4-1.7-0.5c-0.6-0.2-1.2-0.3-1.7-0.4c-0.6-0.1-1.1-0.2-1.7-0.3
	c-0.6-0.1-1.2-0.2-1.8-0.3c-0.6-0.1-1.1-0.1-1.7-0.2c-0.7-0.1-1.3-0.1-2-0.1c-0.3,0-0.6,0-1,0H429.2c-20.1,0-36.4,16.3-36.4,36.4
	s16.3,36.4,36.4,36.4h62.2L371.7,210.1L237.3,75.8c-7-7-16.5-10.8-26.4-10.6c-9.9,0.2-19.3,4.4-26,11.6L9.7,276
	c-13.7,14.7-12.8,37.7,2,51.4c7,6.5,15.9,9.7,24.7,9.7c9.8,0,19.5-3.9,26.7-11.6l149.6-171.5L347,288.3c7,7,16.6,10.9,26.4,10.6
	c9.9-0.2,19.3-4.4,26-11.7l138.9-158.1v52.7c0,20.1,16.3,36.4,36.4,36.4s36.4-16.3,36.4-36.4V36.4C611.1,36.1,611,35.9,611,35.7z"/>
</svg>
