<?xml version="1.0" encoding="utf-8"?>
<!-- Generator: Adobe Illustrator 26.5.0, SVG Export Plug-In . SVG Version: 6.00 Build 0)  -->
<svg version="1.1" id="Layer_1" xmlns="http://www.w3.org/2000/svg" xmlns:xlink="http://www.w3.org/1999/xlink" x="0px" y="0px"
	 viewBox="0 0 18 16" style="enable-background:new 0 0 18 16;" xml:space="preserve">
<style type="text/css">
	.st0{fill-rule:evenodd;clip-rule:evenodd;}
</style>
<path class="st0" d="M0.9,0h11C15.3,0,18,2.7,18,6.1v9c0,0.5-0.4,0.9-0.9,0.9H0.9C0.4,16,0,15.6,0,15.1V0.9C0,0.4,0.4,0,0.9,0z
	 M6.9,2h4.3C13.9,2,16,4.1,16,6.7v6.3c0,0.5-0.4,0.9-0.9,0.9H6.9C6.4,14,6,13.6,6,13.1V2.9C6,2.4,6.4,2,6.9,2z"/>
</svg>
