<?xml version="1.0" encoding="utf-8"?>
<!-- Generator: Adobe Illustrator 26.5.0, SVG Export Plug-In . SVG Version: 6.00 Build 0)  -->
<svg version="1.1" id="Layer_1" xmlns="http://www.w3.org/2000/svg" xmlns:xlink="http://www.w3.org/1999/xlink" x="0px" y="0px"
	 viewBox="0 0 18 9.7" style="enable-background:new 0 0 18 9.7;" xml:space="preserve">
<path d="M17.3,2.3c-0.9-1.5-2.6-2.4-4.3-2.3c-1.3,0.1-2.5,0.7-3.3,1.8C9.7,1.9,9.8,2,9.8,2.1l0.9,1.7l0.1-0.3
	C11.2,2.7,12.1,2.1,13,2c1.6-0.1,2.9,1.2,2.9,2.7s-1.2,2.9-2.7,2.9c-0.1,0-0.1,0-0.2,0c-1-0.1-1.8-0.7-2.2-1.5l-0.7-1.3L8.9,2.6
	C8.2,1.1,6.7,0.1,5,0C2.4-0.1,0.1,2,0,4.6c-0.1,2.7,2,4.9,4.6,5c0.1,0,0.3,0,0.4,0C6.4,9.6,7.6,9,8.4,7.9C8.3,7.8,8.2,7.7,8.2,7.6
	L7.3,5.9L7.2,6.2C6.7,7,5.9,7.6,5,7.7c-1,0-2-0.5-2.6-1.4c-0.6-0.9-0.6-2,0-2.9C2.9,2.5,3.8,2,4.8,2H5c1,0.1,1.8,0.7,2.2,1.5
	l0.7,1.3l1.2,2.3c0.7,1.5,2.2,2.5,3.9,2.6h0.2c2.7,0,4.8-2.2,4.8-4.9C18,3.9,17.7,3.1,17.3,2.3z"/>
</svg>
