<?xml version="1.0" encoding="utf-8"?>
<!-- Generator: Adobe Illustrator 27.2.0, SVG Export Plug-In . SVG Version: 6.00 Build 0)  -->
<svg version="1.1" id="Layer_1" xmlns="http://www.w3.org/2000/svg" xmlns:xlink="http://www.w3.org/1999/xlink" x="0px" y="0px"
	 viewBox="0 0 881.2 881.2" style="enable-background:new 0 0 881.2 881.2;" xml:space="preserve">
<style type="text/css">
	.st0{fill:#003087;}
	.st1{fill:#FFFFFF;}
</style>
<circle class="st0" cx="440.6" cy="440.6" r="440.6"/>
<g>
	<path class="st1" d="M121.8,538.1v-195h77c14.8,0,27.4,2.8,37.8,8.4c10.4,5.6,18.4,13.4,23.9,23.3c5.5,9.9,8.2,21.4,8.2,34.3
		s-2.8,24.4-8.4,34.3c-5.6,9.9-13.7,17.6-24.2,23.1s-23.3,8.3-38.3,8.3h-49v-33h42.4c7.9,0,14.5-1.4,19.7-4.1s9-6.6,11.6-11.5
		c2.6-4.9,3.9-10.6,3.9-17c0-6.5-1.3-12.1-3.9-17c-2.6-4.9-6.5-8.6-11.7-11.3c-5.2-2.7-11.8-4-19.8-4h-27.8v161.3H121.8z"/>
	<path class="st1" d="M274.4,343.1h46.2l44.5,84h1.9l44.5-84h46.2l-71.1,126.1v69h-41v-69L274.4,343.1z"/>
	<path class="st1" d="M470.5,538.1v-195h77c14.8,0,27.4,2.8,37.8,8.4c10.4,5.6,18.4,13.4,23.9,23.3c5.5,9.9,8.2,21.4,8.2,34.3
		s-2.8,24.4-8.4,34.3c-5.6,9.9-13.7,17.6-24.2,23.1s-23.3,8.3-38.3,8.3h-49v-33h42.4c7.9,0,14.5-1.4,19.7-4.1s9-6.6,11.6-11.5
		c2.6-4.9,3.9-10.6,3.9-17c0-6.5-1.3-12.1-3.9-17c-2.6-4.9-6.5-8.6-11.7-11.3c-5.2-2.7-11.8-4-19.8-4h-27.8v161.3H470.5z"/>
	<path class="st1" d="M634.5,538.1v-195h41.2v161h83.6v34H634.5z"/>
</g>
</svg>
