<?xml version="1.0" encoding="utf-8"?>
<!-- Generator: Adobe Illustrator 27.2.0, SVG Export Plug-In . SVG Version: 6.00 Build 0)  -->
<svg version="1.1" id="Layer_1" xmlns="http://www.w3.org/2000/svg" xmlns:xlink="http://www.w3.org/1999/xlink" x="0px" y="0px"
	 viewBox="0 0 881.2 881.2" style="enable-background:new 0 0 881.2 881.2;" xml:space="preserve">
<style type="text/css">
	.st0{fill:#FEA103;}
	.st1{fill:#FFFFFF;}
</style>
<g>
	<circle class="st0" cx="440.6" cy="440.6" r="440.6"/>
	<g>
		<path id="path-1_00000132065053229572677840000000597715133636129926_" class="st1" d="M489.7,206.6c129.2,0,234,104.8,234,234
			s-104.8,234-234,234c-5.7,0-11.3-0.2-16.9-0.6l-368.9-16.1l341.8-30.1l-98.2-1.3c-28.8-22-52.2-50.6-68.3-83.4l-100.2-10.5
			l91.4-9.9c-9.6-25.5-14.8-53.2-14.8-82c0-28.9,5.2-56.5,14.8-82l-91.4-9.9l100.2-10.5c16-32.9,39.5-61.4,68.3-83.4l98.2-1.3
			l-341.8-30.1l367.8-16C477.7,206.9,483.7,206.6,489.7,206.6z M489.7,352.9c-48.5,0-87.7,39.3-87.7,87.7s39.3,87.7,87.7,87.7
			s87.7-39.3,87.7-87.7S538.2,352.9,489.7,352.9z"/>
	</g>
</g>
</svg>
