<?xml version="1.0" encoding="utf-8"?>
<!-- Generator: Adobe Illustrator 27.2.0, SVG Export Plug-In . SVG Version: 6.00 Build 0)  -->
<svg version="1.1" id="Layer_1" xmlns="http://www.w3.org/2000/svg" xmlns:xlink="http://www.w3.org/1999/xlink" x="0px" y="0px"
	 viewBox="0 0 600 600" style="enable-background:new 0 0 600 600;" xml:space="preserve">
<style type="text/css">
	.st0{fill-rule:evenodd;clip-rule:evenodd;fill:#FFFFFF;}
</style>
<path class="st0" d="M266.7,66.7c-110.5,0-200,89.5-200,200c0,110.5,89.5,200,200,200c110.5,0,200-89.5,200-200
	C466.7,156.2,377.1,66.7,266.7,66.7z M0,266.7C0,119.4,119.4,0,266.7,0c147.3,0,266.7,119.4,266.7,266.7c0,61.6-20.9,118.4-56,163.5
	l112.9,112.9c13,13,13,34.1,0,47.1c-13,13-34.1,13-47.1,0L430.2,477.3c-45.2,35.1-101.9,56-163.5,56C119.4,533.3,0,413.9,0,266.7z"
	/>
</svg>
