<?xml version="1.0" encoding="utf-8"?>
<!-- Generator: Adobe Illustrator 27.0.0, SVG Export Plug-In . SVG Version: 6.00 Build 0)  -->
<svg version="1.1" id="Capa_1" xmlns="http://www.w3.org/2000/svg" xmlns:xlink="http://www.w3.org/1999/xlink" x="0px" y="0px"
	 viewBox="0 0 231.6 231.6" style="enable-background:new 0 0 231.6 231.6;" xml:space="preserve">
<style type="text/css">
	.st0{fill:#FFFFFF;}
</style>
<path class="st0" d="M115.8,231.6c63.8,0,115.8-51.9,115.8-115.8C231.6,51.9,179.6,0,115.8,0C51.9,0,0,51.9,0,115.8
	C0,179.6,51.9,231.6,115.8,231.6z M115.8,31.6c46.4,0,84.2,37.8,84.2,84.2S162.2,200,115.8,200s-84.2-37.8-84.2-84.2
	S69.4,31.6,115.8,31.6z M76.2,160.3l-7.2-7.7l34.1-32.2V56.8h25.3v46.3H169v25.3h-58.9L76.2,160.3z"/>
</svg>
