<?xml version="1.0" encoding="utf-8"?>
<!-- Generator: Adobe Illustrator 27.1.1, SVG Export Plug-In . SVG Version: 6.00 Build 0)  -->
<svg version="1.1" id="Layer_1" xmlns="http://www.w3.org/2000/svg" xmlns:xlink="http://www.w3.org/1999/xlink" x="0px" y="0px"
	 viewBox="0 0 881.2 881.2" style="enable-background:new 0 0 881.2 881.2;" xml:space="preserve">
<style type="text/css">
	.st0{fill:#FEFC00;}
	.st1{fill:#FFFFFF;}
</style>
<circle class="st0" cx="441.2" cy="440.8" r="440.6"/>
<g>
	<g>
		<path class="st1" d="M-892.2,1639.4c-0.9-9.2-4.8-16.3-11.7-21.4c-6.9-5.1-16.2-7.6-28.1-7.6c-8,0-14.8,1.1-20.3,3.4
			c-5.5,2.2-9.8,5.3-12.7,9.3c-2.9,3.9-4.4,8.4-4.4,13.4c-0.2,4.2,0.7,7.8,2.7,10.9c1.9,3.1,4.6,5.8,8,8c3.4,2.2,7.3,4.2,11.8,5.8
			c4.5,1.6,9.2,3,14.3,4.1l20.9,5c10.2,2.3,19.5,5.3,28,9.1c8.5,3.8,15.8,8.4,22,14c6.2,5.5,11,12,14.5,19.5
			c3.4,7.5,5.2,16.1,5.3,25.8c-0.1,14.2-3.7,26.6-10.9,37c-7.2,10.4-17.5,18.5-30.9,24.2c-13.4,5.7-29.6,8.6-48.6,8.6
			c-18.8,0-35.1-2.9-49-8.6c-13.9-5.8-24.7-14.3-32.5-25.6c-7.8-11.3-11.8-25.4-12.2-42.1h47.6c0.5,7.8,2.8,14.3,6.8,19.5
			c4,5.2,9.3,9.1,16,11.7c6.7,2.6,14.3,3.9,22.8,3.9c8.3,0,15.6-1.2,21.8-3.6c6.2-2.4,11-5.8,14.4-10.1s5.1-9.3,5.1-14.9
			c0-5.2-1.5-9.6-4.6-13.2c-3.1-3.6-7.5-6.6-13.4-9.1c-5.9-2.5-13.1-4.8-21.5-6.8l-25.3-6.4c-19.6-4.8-35.1-12.2-46.5-22.4
			c-11.4-10.2-17-23.8-16.9-41c-0.1-14.1,3.7-26.4,11.3-36.9c7.6-10.5,18.1-18.8,31.4-24.7c13.3-5.9,28.5-8.9,45.5-8.9
			c17.3,0,32.4,3,45.3,8.9c12.9,5.9,23,14.1,30.2,24.7c7.2,10.5,10.9,22.7,11.1,36.6H-892.2z"/>
		<path class="st1" d="M-820.4,1805.2v-232.7h91.8c17.7,0,32.7,3.4,45.1,10.1c12.4,6.7,21.9,16,28.5,27.8c6.6,11.9,9.8,25.5,9.8,41
			c0,15.5-3.3,29.1-10,40.9c-6.7,11.8-16.3,21-28.9,27.6s-27.9,9.9-45.7,9.9h-58.5v-39.4h50.6c9.5,0,17.3-1.6,23.5-4.9
			c6.2-3.3,10.8-7.9,13.9-13.8c3.1-5.9,4.6-12.6,4.6-20.3c0-7.7-1.5-14.5-4.6-20.3c-3.1-5.8-7.7-10.3-13.9-13.5
			c-6.2-3.2-14.1-4.8-23.6-4.8h-33.2v192.5H-820.4z"/>
		<path class="st1" d="M-653.1,1572.5h55.1l53.1,100.2h2.3l53.1-100.2h55.1l-84.9,150.5v82.3h-48.9V1723L-653.1,1572.5z"/>
	</g>
</g>
<g>
	<g>
		<path class="st1" d="M178.4,1639.4c-0.9-9.2-4.8-16.3-11.7-21.4c-6.9-5.1-16.2-7.6-28.1-7.6c-8,0-14.8,1.1-20.3,3.4
			c-5.5,2.2-9.8,5.3-12.7,9.3c-2.9,3.9-4.4,8.4-4.4,13.4c-0.2,4.2,0.7,7.8,2.7,10.9c1.9,3.1,4.6,5.8,8,8c3.4,2.2,7.3,4.2,11.8,5.8
			c4.5,1.6,9.2,3,14.3,4.1l20.9,5c10.2,2.3,19.5,5.3,28,9.1c8.5,3.8,15.8,8.4,22,14c6.2,5.5,11,12,14.5,19.5
			c3.4,7.5,5.2,16.1,5.3,25.8c-0.1,14.2-3.7,26.6-10.9,37c-7.2,10.4-17.5,18.5-30.9,24.2c-13.4,5.7-29.6,8.6-48.6,8.6
			c-18.8,0-35.1-2.9-49-8.6c-13.9-5.8-24.7-14.3-32.5-25.6c-7.8-11.3-11.8-25.4-12.2-42.1h47.6c0.5,7.8,2.8,14.3,6.8,19.5
			c4,5.2,9.3,9.1,16,11.7c6.7,2.6,14.3,3.9,22.8,3.9c8.3,0,15.6-1.2,21.8-3.6c6.2-2.4,11-5.8,14.4-10.1s5.1-9.3,5.1-14.9
			c0-5.2-1.5-9.6-4.6-13.2c-3.1-3.6-7.5-6.6-13.4-9.1c-5.9-2.5-13.1-4.8-21.5-6.8l-25.3-6.4c-19.6-4.8-35.1-12.2-46.5-22.4
			c-11.4-10.2-17-23.8-16.9-41c-0.1-14.1,3.7-26.4,11.3-36.9c7.6-10.5,18.1-18.8,31.4-24.7c13.3-5.9,28.5-8.9,45.5-8.9
			c17.3,0,32.4,3,45.3,8.9c12.9,5.9,23,14.1,30.2,24.7c7.2,10.5,10.9,22.7,11.1,36.6H178.4z"/>
		<path class="st1" d="M444.8,1572.5v232.7h-42.5l-101.2-146.5h-1.7v146.5h-49.2v-232.7h43.2l100.5,146.4h2v-146.4H444.8z"/>
		<path class="st1" d="M514,1805.2h-52.7l80.3-232.7H605l80.2,232.7h-52.7l-58.3-179.5h-1.8L514,1805.2z M510.7,1713.8h124.5v38.4
			H510.7V1713.8z"/>
		<path class="st1" d="M701.7,1805.2v-232.7h91.8c17.7,0,32.7,3.4,45.1,10.1c12.4,6.7,21.9,16,28.5,27.8c6.6,11.9,9.8,25.5,9.8,41
			c0,15.5-3.3,29.1-10,40.9c-6.7,11.8-16.3,21-28.9,27.6s-27.9,9.9-45.7,9.9h-58.5v-39.4h50.6c9.5,0,17.3-1.6,23.5-4.9
			c6.2-3.3,10.8-7.9,13.9-13.8c3.1-5.9,4.6-12.6,4.6-20.3c0-7.7-1.5-14.5-4.6-20.3c-3.1-5.8-7.7-10.3-13.9-13.5
			c-6.2-3.2-14.1-4.8-23.6-4.8h-33.2v192.5H701.7z"/>
	</g>
</g>
<g>
	<path d="M198.4,398.2c-0.8-7.9-4.1-14-10.1-18.4c-5.9-4.4-14-6.5-24.1-6.5c-6.9,0-12.7,1-17.5,2.9c-4.8,1.9-8.4,4.6-10.9,8
		c-2.5,3.4-3.8,7.2-3.8,11.5c-0.1,3.6,0.6,6.7,2.3,9.4c1.7,2.7,4,5,6.9,6.9c2.9,1.9,6.3,3.6,10.2,5c3.8,1.4,7.9,2.6,12.3,3.6l18,4.3
		c8.7,2,16.7,4.6,24,7.8c7.3,3.3,13.6,7.3,19,12c5.3,4.8,9.5,10.4,12.5,16.8c3,6.4,4.5,13.8,4.5,22.2c-0.1,12.2-3.2,22.9-9.3,31.8
		c-6.2,9-15,15.9-26.6,20.8c-11.6,4.9-25.5,7.4-41.8,7.4c-16.2,0-30.2-2.5-42.2-7.4c-12-5-21.3-12.3-27.9-22
		c-6.7-9.7-10.2-21.8-10.5-36.2h40.9c0.5,6.7,2.4,12.3,5.8,16.8c3.4,4.5,8,7.8,13.8,10.1c5.8,2.2,12.3,3.4,19.6,3.4
		c7.2,0,13.4-1,18.7-3.1c5.3-2.1,9.4-5,12.4-8.7c2.9-3.7,4.4-8,4.4-12.8c0-4.5-1.3-8.3-4-11.3c-2.6-3.1-6.5-5.7-11.5-7.8
		c-5-2.1-11.2-4.1-18.5-5.9l-21.8-5.5c-16.9-4.1-30.2-10.5-40-19.3c-9.8-8.7-14.6-20.5-14.6-35.3c-0.1-12.1,3.2-22.7,9.7-31.8
		c6.5-9.1,15.6-16.1,27-21.2c11.5-5.1,24.5-7.6,39.1-7.6c14.9,0,27.8,2.5,38.9,7.6c11.1,5.1,19.8,12.2,25.9,21.2
		c6.2,9.1,9.4,19.5,9.6,31.5H198.4z"/>
	<path d="M427.5,340.7v200.1H391l-87.1-126h-1.5v126h-42.3V340.7h37.1l86.4,125.9h1.8V340.7H427.5z"/>
	<path d="M487,540.8h-45.3l69.1-200.1h54.5l69,200.1h-45.3l-50.1-154.4h-1.6L487,540.8z M484.2,462.2h107.1v33H484.2V462.2z"/>
	<path d="M648.4,540.8V340.7h79c15.2,0,28.1,2.9,38.8,8.6c10.7,5.8,18.8,13.7,24.5,23.9c5.6,10.2,8.5,21.9,8.5,35.2
		c0,13.3-2.9,25-8.6,35.2c-5.7,10.2-14,18.1-24.9,23.7c-10.8,5.7-24,8.5-39.3,8.5H676V442h43.5c8.1,0,14.9-1.4,20.2-4.3
		c5.3-2.8,9.3-6.8,11.9-11.8c2.6-5,4-10.9,4-17.4c0-6.6-1.3-12.5-4-17.4c-2.6-5-6.6-8.9-12-11.6c-5.3-2.8-12.1-4.2-20.3-4.2h-28.5
		v165.5H648.4z"/>
</g>
</svg>
