<?xml version="1.0" encoding="utf-8"?>
<!-- Generator: Adobe Illustrator 27.2.0, SVG Export Plug-In . SVG Version: 6.00 Build 0)  -->
<svg version="1.1" id="Layer_1" xmlns="http://www.w3.org/2000/svg" xmlns:xlink="http://www.w3.org/1999/xlink" x="0px" y="0px"
	 viewBox="0 0 881.2 881.2" style="enable-background:new 0 0 881.2 881.2;" xml:space="preserve">
<style type="text/css">
	.st0{fill:#0064A7;}
	.st1{fill:#FFFFFF;}
</style>
<circle class="st0" cx="440.6" cy="440.6" r="440.6"/>
<g>
	<path class="st1" d="M217.6,399.1c-0.8-7.7-4-13.6-9.8-17.9c-5.8-4.3-13.6-6.4-23.5-6.4c-6.7,0-12.4,0.9-17,2.8
		c-4.6,1.9-8.2,4.5-10.6,7.8c-2.4,3.3-3.7,7-3.7,11.2c-0.1,3.5,0.6,6.5,2.2,9.1c1.6,2.6,3.9,4.8,6.7,6.7c2.9,1.9,6.2,3.5,9.9,4.9
		c3.7,1.4,7.7,2.5,12,3.5l17.5,4.2c8.5,1.9,16.3,4.4,23.4,7.6c7.1,3.2,13.3,7.1,18.5,11.7c5.2,4.6,9.3,10.1,12.1,16.4
		c2.9,6.3,4.4,13.5,4.4,21.6c-0.1,11.9-3.1,22.3-9.1,31c-6,8.7-14.6,15.5-25.9,20.3c-11.3,4.8-24.8,7.2-40.7,7.2
		c-15.7,0-29.4-2.4-41.1-7.2c-11.7-4.8-20.7-12-27.2-21.5c-6.5-9.5-9.9-21.3-10.2-35.3h39.9c0.4,6.5,2.3,12,5.7,16.3
		c3.3,4.3,7.8,7.6,13.4,9.8c5.6,2.2,12,3.3,19.1,3.3c7,0,13.1-1,18.2-3c5.2-2,9.2-4.9,12-8.5c2.9-3.6,4.3-7.8,4.3-12.5
		c0-4.4-1.3-8.1-3.9-11c-2.6-3-6.3-5.5-11.2-7.6c-4.9-2.1-10.9-4-18-5.7l-21.2-5.3c-16.4-4-29.4-10.3-39-18.8s-14.3-20-14.2-34.4
		c-0.1-11.8,3.1-22.1,9.5-31c6.4-8.8,15.2-15.7,26.3-20.7c11.2-5,23.9-7.4,38.1-7.4c14.5,0,27.1,2.5,38,7.4
		c10.8,5,19.3,11.8,25.3,20.7c6,8.8,9.1,19,9.3,30.7H217.6z"/>
	<path class="st1" d="M457,440.6c0,21.3-4,39.4-12,54.3c-8,14.9-19,26.3-32.8,34.1c-13.8,7.8-29.3,11.8-46.5,11.8
		c-17.3,0-32.9-3.9-46.7-11.8c-13.8-7.9-24.7-19.3-32.7-34.2c-8-14.9-12-33-12-54.2c0-21.3,4-39.4,12-54.3
		c8-14.9,18.9-26.3,32.7-34.1c13.8-7.8,29.3-11.8,46.7-11.8c17.2,0,32.7,3.9,46.5,11.8c13.8,7.8,24.7,19.2,32.8,34.1
		C453,401.2,457,419.3,457,440.6z M415.2,440.6c0-13.8-2-25.4-6.1-34.9c-4.1-9.5-9.9-16.6-17.3-21.5c-7.4-4.9-16.1-7.3-26.1-7.3
		c-10,0-18.7,2.4-26.1,7.3c-7.4,4.9-13.2,12.1-17.3,21.5c-4.1,9.5-6.1,21.1-6.1,34.9c0,13.8,2,25.4,6.1,34.9
		c4.1,9.5,9.9,16.6,17.3,21.5c7.4,4.9,16.1,7.3,26.1,7.3c10,0,18.7-2.4,26.1-7.3c7.4-4.9,13.2-12.1,17.3-21.5
		C413.1,466,415.2,454.3,415.2,440.6z"/>
	<path class="st1" d="M507.5,343l39.3,66.5h1.5l39.5-66.5h46.6L575,440.6l60.9,97.5h-47.4l-40-66.6h-1.5l-40,66.6h-47.2l61-97.5
		L460.8,343H507.5z"/>
	<path class="st1" d="M650.8,538.1V343h41.2v161h83.6v34H650.8z"/>
</g>
</svg>
