<?xml version="1.0" encoding="utf-8"?>
<!-- Generator: Adobe Illustrator 26.5.0, SVG Export Plug-In . SVG Version: 6.00 Build 0)  -->
<svg version="1.1" id="Layer_1" xmlns="http://www.w3.org/2000/svg" xmlns:xlink="http://www.w3.org/1999/xlink" x="0px" y="0px"
	 viewBox="0 0 881.2 881.2" style="enable-background:new 0 0 881.2 881.2;" xml:space="preserve">
<style type="text/css">
	.st0{fill:#13A96C;}
	.st1{fill:#FFFFFF;}
</style>
<circle class="st0" cx="440.6" cy="440.6" r="440.6"/>
<g>
	<path class="st1" d="M278.6,391.1c-0.9-9.2-4.8-16.3-11.7-21.4c-6.9-5.1-16.3-7.6-28.1-7.6c-8,0-14.8,1.1-20.3,3.4
		c-5.5,2.2-9.8,5.3-12.7,9.3c-2.9,3.9-4.4,8.4-4.4,13.4c-0.2,4.2,0.7,7.8,2.7,10.9c1.9,3.1,4.6,5.8,8,8c3.4,2.2,7.3,4.2,11.8,5.8
		c4.5,1.6,9.2,3,14.3,4.1l20.9,5c10.2,2.3,19.5,5.3,28,9.1c8.5,3.8,15.8,8.4,22,14c6.2,5.5,11,12,14.5,19.5
		c3.4,7.5,5.2,16.1,5.3,25.8c-0.1,14.2-3.7,26.6-10.9,37c-7.2,10.4-17.5,18.5-30.9,24.2c-13.4,5.7-29.6,8.6-48.6,8.6
		c-18.8,0-35.1-2.9-49-8.6c-13.9-5.8-24.7-14.3-32.5-25.6c-7.8-11.3-11.8-25.4-12.2-42.1h47.6c0.5,7.8,2.8,14.3,6.8,19.5
		c4,5.2,9.3,9.1,16,11.7c6.7,2.6,14.3,3.9,22.8,3.9c8.3,0,15.6-1.2,21.8-3.6c6.2-2.4,11-5.8,14.4-10.1s5.1-9.3,5.1-14.9
		c0-5.2-1.5-9.6-4.6-13.2c-3.1-3.6-7.5-6.6-13.4-9.1c-5.9-2.5-13.1-4.8-21.5-6.8l-25.3-6.4c-19.6-4.8-35.1-12.2-46.5-22.4
		c-11.4-10.2-17-23.8-16.9-41c-0.1-14.1,3.7-26.4,11.3-36.9c7.6-10.5,18.1-18.8,31.4-24.7c13.3-5.9,28.5-8.9,45.5-8.9
		c17.3,0,32.4,3,45.3,8.9c12.9,5.9,23,14.1,30.2,24.7c7.2,10.5,10.9,22.7,11.1,36.6H278.6z"/>
	<path class="st1" d="M350.4,556.9V324.2h91.8c17.7,0,32.7,3.4,45.1,10.1c12.4,6.7,21.9,16,28.5,27.8c6.6,11.9,9.8,25.5,9.8,41
		s-3.3,29.1-10,40.9c-6.7,11.8-16.3,21-28.9,27.6s-27.9,9.9-45.7,9.9h-58.5V442H433c9.5,0,17.3-1.6,23.5-4.9
		c6.2-3.3,10.8-7.9,13.9-13.8c3.1-5.9,4.6-12.6,4.6-20.3c0-7.7-1.5-14.5-4.6-20.3c-3.1-5.8-7.7-10.3-13.9-13.5
		c-6.2-3.2-14.1-4.8-23.6-4.8h-33.2v192.5H350.4z"/>
	<path class="st1" d="M517.7,324.2h55.1l53.1,100.2h2.3l53.1-100.2h55.1l-84.9,150.5v82.3h-48.9v-82.3L517.7,324.2z"/>
</g>
<g>
	<g>
		<path class="st1" d="M-892.2,1639.4c-0.9-9.2-4.8-16.3-11.7-21.4c-6.9-5.1-16.2-7.6-28.1-7.6c-8,0-14.8,1.1-20.3,3.4
			c-5.5,2.2-9.8,5.3-12.7,9.3c-2.9,3.9-4.4,8.4-4.4,13.4c-0.2,4.2,0.7,7.8,2.7,10.9c1.9,3.1,4.6,5.8,8,8c3.4,2.2,7.3,4.2,11.8,5.8
			c4.5,1.6,9.2,3,14.3,4.1l20.9,5c10.2,2.3,19.5,5.3,28,9.1c8.5,3.8,15.8,8.4,22,14c6.2,5.5,11,12,14.5,19.5
			c3.4,7.5,5.2,16.1,5.3,25.8c-0.1,14.2-3.7,26.6-10.9,37c-7.2,10.4-17.5,18.5-30.9,24.2c-13.4,5.7-29.6,8.6-48.6,8.6
			c-18.8,0-35.1-2.9-49-8.6c-13.9-5.8-24.7-14.3-32.5-25.6c-7.8-11.3-11.8-25.4-12.2-42.1h47.6c0.5,7.8,2.8,14.3,6.8,19.5
			c4,5.2,9.3,9.1,16,11.7c6.7,2.6,14.3,3.9,22.8,3.9c8.3,0,15.6-1.2,21.8-3.6c6.2-2.4,11-5.8,14.4-10.1s5.1-9.3,5.1-14.9
			c0-5.2-1.5-9.6-4.6-13.2c-3.1-3.6-7.5-6.6-13.4-9.1c-5.9-2.5-13.1-4.8-21.5-6.8l-25.3-6.4c-19.6-4.8-35.1-12.2-46.5-22.4
			c-11.4-10.2-17-23.8-16.9-41c-0.1-14.1,3.7-26.4,11.3-36.9c7.6-10.5,18.1-18.8,31.4-24.7c13.3-5.9,28.5-8.9,45.5-8.9
			c17.3,0,32.4,3,45.3,8.9c12.9,5.9,23,14.1,30.2,24.7c7.2,10.5,10.9,22.7,11.1,36.6H-892.2z"/>
		<path class="st1" d="M-820.4,1805.2v-232.7h91.8c17.7,0,32.7,3.4,45.1,10.1c12.4,6.7,21.9,16,28.5,27.8c6.6,11.9,9.8,25.5,9.8,41
			c0,15.5-3.3,29.1-10,40.9c-6.7,11.8-16.3,21-28.9,27.6s-27.9,9.9-45.7,9.9h-58.5v-39.4h50.6c9.5,0,17.3-1.6,23.5-4.9
			c6.2-3.3,10.8-7.9,13.9-13.8c3.1-5.9,4.6-12.6,4.6-20.3c0-7.7-1.5-14.5-4.6-20.3c-3.1-5.8-7.7-10.3-13.9-13.5
			c-6.2-3.2-14.1-4.8-23.6-4.8h-33.2v192.5H-820.4z"/>
		<path class="st1" d="M-653.1,1572.5h55.1l53.1,100.2h2.3l53.1-100.2h55.1l-84.9,150.5v82.3h-48.9V1723L-653.1,1572.5z"/>
	</g>
</g>
</svg>
