<?xml version="1.0" encoding="utf-8"?>
<!-- Generator: Adobe Illustrator 26.5.0, SVG Export Plug-In . SVG Version: 6.00 Build 0)  -->
<svg version="1.1" id="Layer_1" xmlns="http://www.w3.org/2000/svg" xmlns:xlink="http://www.w3.org/1999/xlink" x="0px" y="0px"
	 viewBox="0 0 881.2 881.2" style="enable-background:new 0 0 881.2 881.2;" xml:space="preserve">
<style type="text/css">
	.st0{fill:#13A96C;}
</style>
<path class="st0" d="M881.2,440.6c0,243.3-197.3,440.6-440.6,440.6S0,683.9,0,440.6S197.3,0,440.6,0S881.2,197.3,881.2,440.6z
	 M325.7,391.1c-0.2-13.9-3.9-26.1-11.1-36.6c-7.2-10.5-17.3-18.8-30.2-24.7c-12.9-5.9-28-8.9-45.3-8.9c-17,0-32.1,3-45.5,8.9
	c-13.3,5.9-23.8,14.1-31.4,24.7c-7.6,10.5-11.4,22.8-11.3,36.9c-0.1,17.2,5.6,30.9,16.9,41c11.4,10.2,26.9,17.6,46.5,22.4l25.3,6.4
	c8.5,2,15.7,4.3,21.5,6.8c5.9,2.5,10.3,5.5,13.4,9.1c3.1,3.6,4.6,8,4.6,13.2c0,5.6-1.7,10.6-5.1,14.9s-8.2,7.7-14.4,10.1
	c-6.2,2.4-13.4,3.6-21.8,3.6c-8.5,0-16.1-1.3-22.8-3.9c-6.7-2.6-12-6.5-16-11.7c-4-5.2-6.2-11.7-6.8-19.5h-47.6
	c0.4,16.7,4.4,30.8,12.2,42.1c7.8,11.3,18.6,19.9,32.5,25.6c13.9,5.8,30.2,8.6,49,8.6c18.9,0,35.1-2.9,48.6-8.6
	c13.4-5.7,23.8-13.8,30.9-24.2c7.2-10.4,10.8-22.7,10.9-37c-0.1-9.7-1.8-18.3-5.3-25.8c-3.4-7.5-8.3-14-14.5-19.5
	c-6.2-5.5-13.6-10.2-22-14c-8.5-3.8-17.8-6.8-28-9.1l-20.9-5c-5.1-1.1-9.8-2.5-14.3-4.1c-4.5-1.6-8.4-3.6-11.8-5.8
	c-3.4-2.2-6.1-4.9-8-8c-1.9-3.1-2.8-6.7-2.7-10.9c0-5,1.5-9.5,4.4-13.4c2.9-3.9,7.1-7,12.7-9.3c5.5-2.2,12.3-3.4,20.3-3.4
	c11.8,0,21.2,2.5,28.1,7.6c6.9,5.1,10.8,12.2,11.7,21.4H325.7z M399.6,556.9V364.4h33.2c9.5,0,17.4,1.6,23.6,4.8
	c6.2,3.2,10.9,7.7,13.9,13.5c3.1,5.8,4.6,12.6,4.6,20.3c0,7.7-1.5,14.4-4.6,20.3c-3.1,5.9-7.7,10.5-13.9,13.8
	c-6.2,3.3-14,4.9-23.5,4.9h-33.4v39.4h41.4c17.9,0,33.1-3.3,45.7-9.9s22.3-15.8,28.9-27.6c6.7-11.8,10-25.5,10-40.9
	s-3.3-29.1-9.8-41c-6.6-11.9-16-21.1-28.5-27.8c-12.4-6.7-27.5-10.1-45.1-10.1h-91.8v232.7H399.6z M602.6,474.6v82.3h48.9v-82.3
	l84.9-150.5h-55.1l-53.1,100.2h-2.3l-53.1-100.2h-55.1L602.6,474.6z"/>
</svg>
