<?xml version="1.0" encoding="utf-8"?>
<!-- Generator: Adobe Illustrator 27.1.1, SVG Export Plug-In . SVG Version: 6.00 Build 0)  -->
<svg version="1.1" id="Layer_1" xmlns="http://www.w3.org/2000/svg" xmlns:xlink="http://www.w3.org/1999/xlink" x="0px" y="0px"
	 viewBox="0 0 881.2 881.2" style="enable-background:new 0 0 881.2 881.2;" xml:space="preserve">
<style type="text/css">
	.st0{fill:#91CC67;}
</style>
<circle class="st0" cx="440.6" cy="440.6" r="440.6"/>
<g>
	<path d="M189.7,394.5c-0.7-7.4-3.9-13.1-9.4-17.2c-5.5-4.1-13-6.1-22.5-6.1c-6.4,0-11.9,0.9-16.3,2.7c-4.4,1.8-7.8,4.3-10.2,7.4
		c-2.3,3.2-3.5,6.8-3.5,10.8c-0.1,3.3,0.6,6.3,2.1,8.8c1.6,2.5,3.7,4.6,6.4,6.4c2.7,1.8,5.9,3.3,9.5,4.7c3.6,1.3,7.4,2.4,11.5,3.3
		l16.8,4c8.2,1.8,15.6,4.3,22.4,7.3c6.8,3,12.7,6.8,17.7,11.2c5,4.4,8.9,9.7,11.6,15.7c2.8,6,4.2,12.9,4.2,20.7
		c-0.1,11.4-3,21.3-8.7,29.7c-5.7,8.4-14,14.8-24.8,19.4c-10.8,4.6-23.8,6.9-39,6.9c-15.1,0-28.2-2.3-39.4-6.9
		c-11.2-4.6-19.9-11.5-26.1-20.6c-6.2-9.1-9.5-20.4-9.8-33.8h38.2c0.4,6.3,2.2,11.5,5.4,15.6c3.2,4.2,7.5,7.3,12.9,9.4
		s11.5,3.1,18.3,3.1c6.7,0,12.5-1,17.5-2.9c5-1.9,8.8-4.7,11.5-8.1c2.7-3.5,4.1-7.5,4.1-12c0-4.2-1.2-7.7-3.7-10.6
		s-6.1-5.3-10.8-7.3c-4.7-2-10.5-3.8-17.3-5.5l-20.3-5.1c-15.8-3.8-28.2-9.8-37.3-18c-9.1-8.2-13.7-19.1-13.6-32.9
		c-0.1-11.3,3-21.2,9.1-29.7c6.1-8.5,14.5-15.1,25.2-19.8c10.7-4.7,22.9-7.1,36.5-7.1c13.9,0,26,2.4,36.4,7.1
		c10.4,4.7,18.4,11.3,24.2,19.8c5.8,8.5,8.8,18.2,8.9,29.4H189.7z"/>
	<path d="M419.1,434.2c0,20.4-3.8,37.7-11.5,52c-7.7,14.3-18.2,25.2-31.4,32.7c-13.2,7.5-28.1,11.3-44.6,11.3
		c-16.6,0-31.5-3.8-44.7-11.3c-13.2-7.5-23.6-18.5-31.3-32.8c-7.7-14.3-11.5-31.6-11.5-51.9c0-20.4,3.8-37.7,11.5-52
		c7.7-14.3,18.1-25.2,31.3-32.7c13.2-7.5,28.1-11.3,44.7-11.3c16.5,0,31.3,3.8,44.6,11.3c13.2,7.5,23.7,18.4,31.4,32.7
		C415.2,396.5,419.1,413.8,419.1,434.2z M379,434.2c0-13.2-2-24.3-5.9-33.4c-3.9-9.1-9.4-15.9-16.6-20.6c-7.1-4.7-15.5-7-25-7
		c-9.6,0-17.9,2.3-25,7c-7.1,4.7-12.6,11.6-16.6,20.6c-3.9,9.1-5.9,20.2-5.9,33.4c0,13.2,2,24.3,5.9,33.4
		c3.9,9.1,9.4,15.9,16.6,20.6c7.1,4.7,15.5,7,25,7c9.5,0,17.9-2.3,25-7c7.1-4.7,12.6-11.6,16.6-20.6
		C377.1,458.6,379,447.4,379,434.2z M317.9,462.7h33.6l16.9,21.7l16.6,19.3l31.3,39.2h-36.9l-21.5-26.5l-11-15.7L317.9,462.7z"/>
	<path d="M610.9,434.2c0,20.4-3.8,37.7-11.5,52c-7.7,14.3-18.2,25.2-31.4,32.7c-13.2,7.5-28.1,11.3-44.6,11.3
		c-16.6,0-31.5-3.8-44.7-11.3c-13.2-7.5-23.6-18.5-31.3-32.8c-7.7-14.3-11.5-31.6-11.5-51.9c0-20.4,3.8-37.7,11.5-52
		c7.7-14.3,18.1-25.2,31.3-32.7c13.2-7.5,28.1-11.3,44.7-11.3c16.5,0,31.3,3.8,44.6,11.3c13.2,7.5,23.7,18.4,31.4,32.7
		C607.1,396.5,610.9,413.8,610.9,434.2z M570.9,434.2c0-13.2-2-24.3-5.9-33.4c-3.9-9.1-9.4-15.9-16.6-20.6c-7.1-4.7-15.5-7-25-7
		c-9.6,0-17.9,2.3-25,7c-7.1,4.7-12.6,11.6-16.6,20.6c-3.9,9.1-5.9,20.2-5.9,33.4c0,13.2,2,24.3,5.9,33.4
		c3.9,9.1,9.4,15.9,16.6,20.6c7.1,4.7,15.5,7,25,7c9.5,0,17.9-2.3,25-7c7.1-4.7,12.6-11.6,16.6-20.6
		C568.9,458.6,570.9,447.4,570.9,434.2z M509.8,462.7h33.6l16.9,21.7l16.6,19.3l31.3,39.2h-36.9l-21.5-26.5l-11-15.7L509.8,462.7z"
		/>
	<path d="M802.8,434.2c0,20.4-3.8,37.7-11.5,52c-7.7,14.3-18.2,25.2-31.4,32.7c-13.2,7.5-28.1,11.3-44.6,11.3
		c-16.6,0-31.5-3.8-44.7-11.3c-13.2-7.5-23.6-18.5-31.3-32.8c-7.7-14.3-11.5-31.6-11.5-51.9c0-20.4,3.8-37.7,11.5-52
		c7.7-14.3,18.1-25.2,31.3-32.7c13.2-7.5,28.1-11.3,44.7-11.3c16.5,0,31.3,3.8,44.6,11.3c13.2,7.5,23.7,18.4,31.4,32.7
		C799,396.5,802.8,413.8,802.8,434.2z M762.7,434.2c0-13.2-2-24.3-5.9-33.4c-3.9-9.1-9.4-15.9-16.6-20.6c-7.1-4.7-15.5-7-25-7
		c-9.6,0-17.9,2.3-25,7c-7.1,4.7-12.6,11.6-16.6,20.6c-3.9,9.1-5.9,20.2-5.9,33.4c0,13.2,2,24.3,5.9,33.4
		c3.9,9.1,9.4,15.9,16.6,20.6c7.1,4.7,15.5,7,25,7c9.5,0,17.9-2.3,25-7c7.1-4.7,12.6-11.6,16.6-20.6
		C760.8,458.6,762.7,447.4,762.7,434.2z M701.6,462.7h33.6l16.9,21.7l16.6,19.3L800,543h-36.9l-21.5-26.5l-11-15.7L701.6,462.7z"/>
</g>
</svg>
