<?xml version="1.0" encoding="utf-8"?>
<!-- Generator: Adobe Illustrator 26.5.0, SVG Export Plug-In . SVG Version: 6.00 Build 0)  -->
<svg version="1.1" id="Capa_1" xmlns="http://www.w3.org/2000/svg" xmlns:xlink="http://www.w3.org/1999/xlink" x="0px" y="0px"
	 viewBox="0 0 489.4 489.4" style="enable-background:new 0 0 489.4 489.4;" xml:space="preserve">
<g>
	<g>
		<path d="M261.3,326.1c-8.3-7.3-21.8-6.2-29.1,2.1l-77,86.8V68.1c0-11.4-9.4-20.8-20.8-20.8s-20.8,9.4-20.8,20.8V415l-77-86.8
			c-8.3-8.3-20.8-9.4-29.1-2.1c-8.3,8.3-9.4,20.8-2.1,29.1l113.4,126.9c8.5,10.5,23.5,8.9,30.2,0l114.4-126.9
			C270.7,347,269.7,333.4,261.3,326.1z"/>
		<path d="M484,134.7L371.6,7.8c-10-10.1-22.5-10.7-31.2,0L226,134.7c-7.3,8.3-6.2,21.8,2.1,29.1c12.8,10.2,25.7,3.2,29.1-2.1
			l77-86.8v345.9c0,11.4,9.4,20.8,20.8,20.8s20.8-8.3,20.8-19.8V75l77,86.8c8.3,8.3,20.8,9.4,29.1,2.1
			C490.2,155.5,491.3,143,484,134.7z"/>
	</g>
</g>
</svg>
