<?xml version="1.0" encoding="utf-8"?>
<!-- Generator: Adobe Illustrator 27.0.1, SVG Export Plug-In . SVG Version: 6.00 Build 0)  -->
<svg version="1.1" id="Layer_1" xmlns="http://www.w3.org/2000/svg" xmlns:xlink="http://www.w3.org/1999/xlink" x="0px" y="0px"
	 viewBox="0 0 1024 1024" style="enable-background:new 0 0 1024 1024;" xml:space="preserve">
<style type="text/css">
	.st0{fill:#C90000;}
	.st1{fill:#FFFFFF;}
</style>
<circle class="st0" cx="512" cy="512" r="512"/>
<path class="st1" d="M511.5,872.4l89.9-506c85.8,0,112.8,9.4,116.7,47.8c0,0,57.5-21.5,86.5-65c-113.2-52.4-227-54.8-227-54.8
	l-66.4,80.8h0.1L445,294.3c0,0-113.8,2.4-227,54.8c29,43.5,86.5,65,86.5,65c3.9-38.4,30.9-47.8,116.1-47.9L511.5,872.4 M511.5,270.9
	c91.5-0.8,196.2,14.1,303.5,60.9c14.4-25.8,18-37.1,18-37.1c-117.2-46.4-227-62.3-321.5-62.7c-94.6,0.4-204.4,16.3-321.5,62.7
	c0,0,5.3,14,18,37.1C315.1,285.2,420,270.3,511.5,270.9"/>
</svg>
