<?xml version="1.0" encoding="utf-8"?>
<!-- Generator: Adobe Illustrator 27.2.0, SVG Export Plug-In . SVG Version: 6.00 Build 0)  -->
<svg version="1.1" id="Layer_1" xmlns="http://www.w3.org/2000/svg" xmlns:xlink="http://www.w3.org/1999/xlink" x="0px" y="0px"
	 viewBox="0 0 881.2 881.2" style="enable-background:new 0 0 881.2 881.2;" xml:space="preserve">
<style type="text/css">
	.st0{fill:#FF060A;}
	.st1{fill:#FFFFFF;}
</style>
<g>
	<path class="st0" d="M440.6,881.2c243.4,0,440.6-197.3,440.6-440.6S684,0,440.6,0S0,197.3,0,440.6S197.3,881.2,440.6,881.2z"/>
	<path class="st1" d="M688.4,364.8c-24.3-21.6-58.1-54.5-85.4-77.8l-1.7-1c-2.7-2-5.7-3.7-8.9-4.9l0,0c-66.2-11.8-374.1-67-380-66.3
		c-1.7,0.2-3.4,0.8-4.7,1.7l-1.5,1.2c-1.9,1.9-3.4,4.1-4.2,6.6l-0.3,1v5.6v0.8c34.6,92.5,171.5,395.4,198.5,466.6
		c1.7,4.9,4.7,14,10.5,14.5h1.4c3,0,16.2-16.7,16.2-16.7s235.2-273.1,259-302.2c3-3.5,5.7-7.4,8.1-11.5c0.7-3.2,0.3-6.4-0.8-9.5
		C693.2,369.9,691,367,688.4,364.8L688.4,364.8z M488.2,396.7L588.5,317l58.9,52L488.2,396.7z M449.2,391.5L276.5,255.8l279.6,49.5
		L449.2,391.5z M464.7,426.9l176.7-27.3L439.4,633.1L464.7,426.9z M253.1,269.4l181.8,147.7l-26.3,216.1L253.1,269.4z"/>
</g>
</svg>
