<?xml version="1.0" encoding="utf-8"?>
<!-- Generator: Adobe Illustrator 27.0.0, SVG Export Plug-In . SVG Version: 6.00 Build 0)  -->
<svg version="1.1" id="Layer_1" xmlns="http://www.w3.org/2000/svg" xmlns:xlink="http://www.w3.org/1999/xlink" x="0px" y="0px"
	 viewBox="0 0 23 18.7" style="enable-background:new 0 0 23 18.7;" xml:space="preserve">
<style type="text/css">
	.st0{fill-rule:evenodd;clip-rule:evenodd;fill:#1DA1F2;}
</style>
<g id="Web">
	<g id="Webbsite-1.0" transform="translate(-107.000000, -977.000000)">
		<path id="Path" class="st0" d="M127.6,981.7c0,0.2,0,0.4,0,0.6c0,6.2-4.7,13.4-13.4,13.4c-2.7,0-5.1-0.8-7.2-2.1
			c0.4,0,0.7,0.1,1.1,0.1c2.2,0,4.2-0.8,5.9-2c-2.1,0-3.8-1.4-4.4-3.3c0.3,0.1,0.6,0.1,0.9,0.1c0.4,0,0.8-0.1,1.2-0.2
			c-2.2-0.4-3.8-2.3-3.8-4.6c0,0,0,0,0-0.1c0.6,0.4,1.4,0.6,2.1,0.6c-1.3-0.8-2.1-2.3-2.1-3.9c0-0.9,0.2-1.7,0.6-2.4
			c2.3,2.9,5.8,4.7,9.7,4.9c-0.1-0.3-0.1-0.7-0.1-1.1c0-2.6,2.1-4.7,4.7-4.7c1.4,0,2.6,0.6,3.4,1.5c1.1-0.2,2.1-0.6,3-1.1
			c-0.4,1.1-1.1,2-2.1,2.6c1-0.1,1.9-0.4,2.7-0.7C129.4,980.2,128.6,981,127.6,981.7z"/>
	</g>
</g>
</svg>
