<?xml version="1.0" encoding="utf-8"?>
<!-- Generator: Adobe Illustrator 26.3.1, SVG Export Plug-In . SVG Version: 6.00 Build 0)  -->
<svg version="1.1" id="Layer_1" xmlns="http://www.w3.org/2000/svg" xmlns:xlink="http://www.w3.org/1999/xlink" x="0px" y="0px"
	 viewBox="0 0 1504.1 1441.7" style="enable-background:new 0 0 1504.1 1441.7;" xml:space="preserve">
<style type="text/css">
	.st0{fill:#FFFFFF;}
</style>
<path class="st0" d="M1027,866.7c0-145.8-87.5-195.8-262.5-216.7c-125-16.7-150-50-150-108.3s41.7-95.8,125-95.8
	c75,0,116.7,25,137.5,87.5c4.2,12.5,16.7,20.8,29.2,20.8h66.7c16.7,0,29.2-12.5,29.2-29.2v-4.2c-16.7-91.7-91.7-162.5-187.5-170.8
	V250c0-16.7-12.5-29.2-33.3-33.3h-62.5c-16.7,0-29.2,12.5-33.3,33.3v95.8c-125,16.7-204.2,100-204.2,204.2
	c0,137.5,83.3,191.7,258.3,212.5c116.7,20.8,154.2,45.8,154.2,112.5s-58.3,112.5-137.5,112.5c-108.3,0-145.8-45.8-158.3-108.3
	c-4.2-16.7-16.7-25-29.2-25h-70.8c-16.7,0-29.2,12.5-29.2,29.2v4.2c16.7,104.2,83.3,179.2,220.8,200v100c0,16.7,12.5,29.2,33.3,33.3
	h62.5c16.7,0,29.2-12.5,33.3-33.3v-100C943.7,1066.7,1027,979.2,1027,866.7L1027,866.7z"/>
<path class="st0" d="M539.5,1304.2c-325-116.7-491.7-479.2-370.8-800c62.5-175,200-308.3,370.8-370.8c16.7-8.3,25-20.8,25-41.7V33.3
	c0-16.7-8.3-29.2-25-33.3c-4.2,0-12.5,0-16.7,4.2C127,129.2-89.6,550,35.4,945.8c75,233.3,254.2,412.5,487.5,487.5
	c16.7,8.3,33.3,0,37.5-16.7c4.2-4.2,4.2-8.3,4.2-16.7v-58.3C564.5,1329.2,552,1312.5,539.5,1304.2z M981.2,4.2
	c-16.7-8.3-33.3,0-37.5,16.7c-4.2,4.2-4.2,8.3-4.2,16.7v58.3c0,16.7,12.5,33.3,25,41.7c325,116.7,491.7,479.2,370.8,800
	c-62.5,175-200,308.3-370.8,370.8c-16.7,8.3-25,20.8-25,41.7v58.3c0,16.7,8.3,29.2,25,33.3c4.2,0,12.5,0,16.7-4.2
	c395.8-125,612.5-545.8,487.5-941.7C1393.7,258.3,1210.4,79.2,981.2,4.2L981.2,4.2z"/>
</svg>
