<?xml version="1.0" encoding="utf-8"?>
<!-- Generator: Adobe Illustrator 27.1.1, SVG Export Plug-In . SVG Version: 6.00 Build 0)  -->
<svg version="1.1" id="Layer_1" xmlns="http://www.w3.org/2000/svg" xmlns:xlink="http://www.w3.org/1999/xlink" x="0px" y="0px"
	 viewBox="0 0 881.2 881.2" style="enable-background:new 0 0 881.2 881.2;" xml:space="preserve">
<style type="text/css">
	.st0{fill:#5D9833;}
	.st1{fill:#FFFFFF;}
</style>
<circle class="st0" cx="440.6" cy="440.6" r="440.6"/>
<g>
	<path class="st1" d="M129.5,333.5l51.8,162.8h2l51.9-162.8h50.2l-73.9,214.3h-58.4l-74-214.3H129.5z"/>
	<path class="st1" d="M345.8,333.5v214.3h-45.3V333.5H345.8z"/>
	<path class="st1" d="M415,333.5l43.2,73h1.7l43.4-73h51.2l-65.4,107.1l66.9,107.1h-52.1l-43.9-73.1h-1.7l-43.9,73.1h-51.9
		l67.1-107.1l-65.8-107.1H415z"/>
	<path class="st1" d="M572.4,333.5h55.9l59,144h2.5l59-144h55.9v214.3h-43.9V408.3H759l-55.5,138.4h-29.9l-55.5-138.9h-1.8v140
		h-43.9V333.5z"/>
</g>
</svg>
