<?xml version="1.0" encoding="utf-8"?>
<!-- Generator: Adobe Illustrator 27.1.1, SVG Export Plug-In . SVG Version: 6.00 Build 0)  -->
<svg version="1.1" id="Layer_1" xmlns="http://www.w3.org/2000/svg" xmlns:xlink="http://www.w3.org/1999/xlink" x="0px" y="0px"
	 viewBox="0 0 881.2 881.2" style="enable-background:new 0 0 881.2 881.2;" xml:space="preserve">
<style type="text/css">
	.st0{fill:#005568;}
	.st1{fill:#FFFFFF;}
</style>
<circle class="st0" cx="440.6" cy="440.6" r="440.6"/>
<g>
	<path class="st1" d="M133.2,326.4l55.2,173.6h2.1l55.3-173.6h53.5l-78.7,228.4h-62.2L79.6,326.4H133.2z"/>
	<path class="st1" d="M363.9,326.4v228.4h-48.3V326.4H363.9z"/>
	<path class="st1" d="M437.7,326.4l46.1,77.9h1.8l46.3-77.9h54.5l-69.7,114.2l71.3,114.2h-55.5l-46.8-78h-1.8l-46.8,78h-55.3
		l71.5-114.2l-70.2-114.2H437.7z"/>
	<path class="st1" d="M592.1,326.4h54.1l52.1,98.4h2.2l52.1-98.4h54.1l-83.3,147.7v80.8h-48v-80.8L592.1,326.4z"/>
</g>
</svg>
