<?xml version="1.0" encoding="utf-8"?>
<!-- Generator: Adobe Illustrator 26.3.1, SVG Export Plug-In . SVG Version: 6.00 Build 0)  -->
<svg version="1.1" id="Layer_1" xmlns="http://www.w3.org/2000/svg" xmlns:xlink="http://www.w3.org/1999/xlink" x="0px" y="0px"
	 viewBox="0 0 301.9 167.1" style="enable-background:new 0 0 301.9 167.1;" xml:space="preserve">
<style type="text/css">
	.st0{fill:#00AEF0;}
</style>
<g>
	<path class="st0" d="M132.3,58.7c-0.2,12.8-4.9,23.7-14.1,32.9c9.2,9.3,13.9,20.3,14.1,33.1c0,3.7-1.3,6.8-3.8,9.3
		c-2.5,2.5-5.6,3.8-9.3,3.8c-3.6,0-6.7-1.3-9.3-3.8c-2.6-2.5-3.9-5.6-3.9-9.3c0-5.4-1.9-10.1-5.8-14c-3.9-3.9-8.5-5.9-13.9-5.9
		c-5.5,0-10.2,2-14.1,5.9s-5.8,8.6-5.8,14c0,3.7-1.3,6.8-3.9,9.3c-2.6,2.5-5.7,3.8-9.3,3.8c-3.7,0-6.8-1.3-9.3-3.8s-3.8-5.6-3.8-9.3
		c0.2-12.8,4.9-23.8,14.1-33.1c-9.2-9.2-13.9-20.2-14.1-32.9c0-3.7,1.3-6.8,3.8-9.3c2.5-2.5,5.6-3.8,9.3-3.8c3.6,0,6.7,1.3,9.3,3.8
		c2.6,2.5,3.9,5.6,3.9,9.3c0,5.4,1.9,10.1,5.8,14c3.9,3.9,8.6,5.9,14.1,5.9c5.4,0,10.1-2,13.9-5.9c3.9-3.9,5.8-8.6,5.8-14
		c0-3.7,1.3-6.8,3.9-9.3c2.6-2.5,5.7-3.8,9.3-3.8c3.7,0,6.8,1.3,9.3,3.8C131.1,52,132.3,55.1,132.3,58.7z"/>
	<path class="st0" d="M184,29.2c3.6,0.1,6.6,1.4,9.2,4s3.8,5.6,3.8,9.2c0,3.7-1.3,6.8-3.9,9.3c-2.6,2.5-5.6,3.8-9.1,3.8
		c-5.5,0-10.2,2-14.1,5.9s-5.8,8.6-5.8,14v3.4h19.8c3.6,0,6.7,1.3,9.3,3.9c2.6,2.6,3.9,5.7,3.9,9.3c0,3.7-1.3,6.8-3.9,9.3
		c-2.6,2.5-5.7,3.8-9.3,3.8h-19.8v19.9c0,3.7-1.3,6.8-3.9,9.3c-2.6,2.5-5.7,3.8-9.3,3.8c-3.7,0-6.8-1.3-9.3-3.8
		c-2.5-2.5-3.8-5.6-3.8-9.3V74.4c0.4-12.4,5-22.9,13.6-31.7C160.2,33.9,171,29.4,184,29.2z"/>
	<path class="st0" d="M248.6,111.7c3.5,0,6.5,1.3,9.1,3.8c2.6,2.5,3.9,5.6,3.9,9.3c0,3.6-1.3,6.6-3.8,9.2c-2.6,2.6-5.6,3.9-9.2,4
		c-13-0.2-23.8-4.7-32.5-13.5s-13.2-19.4-13.6-31.7V42.3c0-3.7,1.3-6.8,3.8-9.3c2.5-2.5,5.6-3.8,9.3-3.8c3.6,0,6.7,1.3,9.3,3.8
		c2.6,2.5,3.9,5.6,3.9,9.3v3.4h19.8c3.6,0,6.7,1.3,9.3,3.8c2.6,2.5,3.9,5.6,3.9,9.3c0,3.6-1.3,6.7-3.9,9.3c-2.6,2.6-5.7,3.9-9.3,3.9
		h-19.8v19.9c0,5.4,1.9,10.1,5.8,14C238.4,109.8,243.1,111.7,248.6,111.7z"/>
</g>
<path class="st0" d="M276,167.1H25.9C11.6,167.1,0,155.5,0,141.2V25.9C0,11.6,11.6,0,25.9,0H276c14.3,0,25.9,11.6,25.9,25.9v115.2
	C301.9,155.5,290.3,167.1,276,167.1z M25.9,4.3C14,4.3,4.3,14,4.3,25.9l8,115.2c0.2,5,6.9,14.4,13.6,13.7l250.1,7.9
	c11.9,0,21.6-9.7,21.6-21.6l-7.9-115.2c-1.3-7.1-7.6-13.4-13.7-13.7L25.9,4.3z"/>
</svg>
