<?xml version="1.0" encoding="utf-8"?>
<!-- Generator: Adobe Illustrator 27.2.0, SVG Export Plug-In . SVG Version: 6.00 Build 0)  -->
<svg version="1.1" id="Layer_1" xmlns="http://www.w3.org/2000/svg" xmlns:xlink="http://www.w3.org/1999/xlink" x="0px" y="0px"
	 viewBox="0 0 3527.5 795.8" style="enable-background:new 0 0 3527.5 795.8;" xml:space="preserve">
<style type="text/css">
	.st0{fill:#FFFFFF;}
</style>
<path class="st0" d="M3176.9,82c0-22.3,7.8-41.5,23.4-57.7S3235.1,0,3258,0c22.2,0,41.5,8.1,57.7,24.3
	c16.2,16.2,24.3,35.5,24.3,57.7"/>
<path class="st0" d="M3340,713.7c0,22.3-7.8,41.5-23.4,57.7c-15.6,16.2-34.8,24.3-57.7,24.3c-22.2,0-41.5-8.1-57.7-24.3
	c-16.2-16.2-24.3-35.5-24.3-57.7"/>
<g>
	<path class="st0" d="M2424.5,308.6c0-0.2-2-2-0.6-0.7c0,0-0.4-4.8,0,0l0,0c-24.1-24.4-49.8-35.2-83.4-35.2
		c-34.2,0-63.4,12.2-87.5,36.6c-24.1,24.4-36.1,53.4-36.1,87v205.4c0,22.8-8.1,42-24.3,57.5c-16.2,15.5-35.4,23.3-57.5,23.3
		c-22.8,0-42-7.8-57.5-23.3c-15.5-15.5-23.3-34.7-23.3-57.5V390.6c2.5-76.7,30.6-142.2,84.2-196.4c53.6-54.2,120.9-82.3,202.1-84.2
		c46.5,1.1,88.6,11,126.3,29.8c27.9,13.9,34.5,18.8,34.5,18.8c0,0,0.4-0.4,0,0C2431.3,230.8,2424.5,308.6,2424.5,308.6z"/>
	<path class="st0" d="M2758.9,684.3c-79-1.3-145.8-28.9-200.5-83c-54.7-54-83-120.6-84.9-199.6c1.9-82.2,29.9-149.9,83.9-203.4
		c54-53.4,119.3-81.4,195.8-83.9h112.3c22.8,0,41.9,7.8,57.4,23.2s23.2,34.6,23.2,57.4c0,22.1-7.7,41.2-23.2,57.4
		s-34.6,24.2-57.4,24.2h-106.6c-33.5,0-62.4,12-86.7,36c-24.3,24-36.5,52.8-36.5,86.3c0,34.1,11.5,62.7,34.6,85.8
		c23.1,23.1,52.6,35.2,88.6,36.5h105.7c22.8,0,41.9,8.1,57.4,24.2c15.5,16.1,23.2,35.2,23.2,57.4c0,22.8-7.7,41.9-23.2,57.4
		c-15.5,15.5-34.6,23.2-57.4,23.2L2758.9,684.3z"/>
	<path class="st0" d="M2838.2,398.9c0,22-8,41-24,57c-16,16-35,24-57,24h-122.7c-22.6,0-41.6-8-57-24c-15.4-16-23.1-35-23.1-57
		c0-22.6,7.7-41.6,23.1-57c15.4-15.4,34.4-23.1,57-23.1h122.7c22,0,41,7.7,57,23.1C2830.2,357.3,2838.2,376.3,2838.2,398.9z"/>
</g>
<path class="st0" d="M287.1,8c22.3,0.6,41.3,8.9,57.2,24.8c15.9,15.9,23.9,35,23.9,57.2c0,22.9-8.1,42.1-24.3,57.7
	c-16.2,15.6-35.1,23.4-56.7,23.4c-34.3,0-63.6,12.2-87.8,36.7s-36.2,53.6-36.2,87.3v21h123c22.3,0,41.5,8.1,57.7,24.3
	c16.2,16.2,24.3,35.5,24.3,57.7c0,22.9-8.1,42.1-24.3,57.7c-16.2,15.6-35.5,23.4-57.7,23.4h-123v124c0,22.9-8.1,42.1-24.3,57.7
	c-16.2,15.6-35.5,23.4-57.7,23.4c-22.9,0-42.1-7.8-57.7-23.4S0,626.1,0,603.2V289.4C2.5,212.5,30.8,146.6,84.9,92
	C138.9,37.3,206.3,9.3,287.1,8z"/>
<path class="st0" d="M411.5,397.2l1-205.1c0-22.9,7.8-42.1,23.4-57.7c15.6-15.6,34.8-23.4,57.7-23.4c22.3,0,41.5,7.8,57.7,23.4
	c16.2,15.6,24.3,34.8,24.3,57.7v205.1c1.3,36.9,13.5,66.8,36.7,89.7c23.2,22.9,52,34.3,86.3,34.3c33.7,0,62.6-12.2,86.8-36.7
	c24.2-24.5,36.2-53.6,36.2-87.3v-206c0-22.9,8.1-42.1,24.3-57.7c16.2-15.6,35.4-23.4,57.7-23.4c22.9,0,42.1,7.8,57.7,23.4
	c15.6,15.6,23.4,34.8,23.4,57.7v211.8c-2.5,76.9-30.7,142.6-84.4,197c-53.7,54.4-121.3,82.5-202.7,84.4
	c-80.8-1.9-148.3-30.4-202.7-85.4C440.6,543.9,412.8,476.7,411.5,397.2z"/>
<path class="st0" d="M1437.7,397.2l1-205.1c0-22.9,7.8-42.1,23.4-57.7c15.6-15.6,34.8-23.4,57.7-23.4c22.3,0,41.5,7.8,57.7,23.4
	c16.2,15.6,24.3,34.8,24.3,57.7v205.1c1.3,36.9,13.5,66.8,36.7,89.7c23.2,22.9,52,34.3,86.3,34.3c33.7,0,62.6-12.2,86.8-36.7
	c24.2-24.5,36.2-53.6,36.2-87.3v-206c0-22.9,8.1-42.1,24.3-57.7c16.2-15.6,35.4-23.4,57.7-23.4c22.9,0,42.1,7.8,57.7,23.4
	c15.6,15.6,23.4,34.8,23.4,57.7v211.8c-2.5,76.9-30.7,142.6-84.4,197c-53.7,54.4-121.3,82.5-202.7,84.4
	c-80.8-1.9-148.3-30.4-202.7-85.4C1466.7,543.9,1438.9,476.7,1437.7,397.2z"/>
<path class="st0" d="M1319.8,521.2c21.6,0,40.5,7.8,56.8,23.4c16.2,15.6,24.3,34.8,24.3,57.7c0,22.3-8,41.3-23.8,57.2
	c-15.9,15.9-35,24.2-57.2,24.8c-80.8-1.3-148.2-29.2-202.2-83.9c-54.1-54.7-82.4-120.5-84.9-197.4V89.1c0-22.9,7.8-42.1,23.4-57.7
	c15.6-15.6,34.8-23.4,57.7-23.4c22.3,0,41.5,7.8,57.7,23.4c16.2,15.6,24.3,34.8,24.3,57.7v21h123c22.3,0,41.5,7.8,57.7,23.4
	c16.2,15.6,24.3,34.8,24.3,57.7c0,22.3-8.1,41.5-24.3,57.7c-16.2,16.2-35.5,24.3-57.7,24.3h-123v124c0,33.7,12.1,62.8,36.2,87.3
	C1256.2,508.9,1285.5,521.2,1319.8,521.2z"/>
<g>
	<path class="st0" d="M2958.6,387.7c1.2-75.6,27.5-139.5,79-191.6c51.4-52,114.4-79.3,188.8-81.7h193.1c21.8,0,40.1,7.4,54.9,22.2
		c14.8,14.8,22.2,33.1,22.2,54.9c0,21.2-7.4,39.5-22.2,54.9c-14.8,15.4-33.1,23.2-54.9,23.2h-187.7c-32.7,0-60.5,11.7-83.5,35
		c-23,23.3-34.5,51-34.5,83.1c0,21.8-7.7,40.1-23.2,54.9c-15.4,14.8-33.7,22.2-54.9,22.2c-21.8,0-40.1-7.4-54.9-22.2
		C2966,427.8,2958.6,409.5,2958.6,387.7z"/>
	<path class="st0" d="M3527.5,411c-1.2,75.7-27.5,139.5-79,191.6c-51.4,52.1-114.4,79.3-188.8,81.7h-193.1
		c-21.8,0-40.1-7.4-54.9-22.2c-14.8-14.8-22.2-33.1-22.2-54.9c0-21.2,7.4-39.5,22.2-54.9c14.8-15.4,33.1-23.1,54.9-23.1h187.7
		c32.7,0,60.5-11.6,83.5-35c23-23.3,34.5-51,34.5-83.1c0-21.8,7.7-40.1,23.1-54.9c15.4-14.8,33.7-22.2,54.9-22.2
		c21.8,0,40.1,7.4,54.9,22.2C3520.1,370.9,3527.5,389.2,3527.5,411z"/>
	<g>
		<path class="st0" d="M3527.5,398c0,21.1-7.7,39.4-23.1,54.8c-15.4,15.4-33.7,23.1-54.8,23.1h-413.6c-21.7,0-40-7.7-54.8-23.1
			c-14.8-15.4-22.2-33.7-22.2-54.8c0-21.7,7.4-40,22.2-54.8c14.8-14.8,33.1-22.2,54.8-22.2h413.6c21.1,0,39.4,7.4,54.8,22.2
			C3519.8,357.9,3527.5,376.2,3527.5,398z"/>
	</g>
</g>
</svg>
