<?xml version="1.0" encoding="utf-8"?>
<!-- Generator: Adobe Illustrator 26.3.1, SVG Export Plug-In . SVG Version: 6.00 Build 0)  -->
<svg version="1.1" id="Layer_1" xmlns="http://www.w3.org/2000/svg" xmlns:xlink="http://www.w3.org/1999/xlink" x="0px" y="0px"
	 viewBox="0 0 1208.4 350.2" style="enable-background:new 0 0 1208.4 350.2;" xml:space="preserve">
<style type="text/css">
	.st0{fill:#00AEF0;}
	.st1{fill:#FFFFFF;}
</style>
<g>
	<path class="st0" d="M861.6,120.1c-0.4,26.1-10,48.6-28.8,67.4c18.8,19,28.4,41.6,28.8,67.7c0,7.5-2.6,13.8-7.7,19
		s-11.4,7.7-19,7.7c-7.3,0-13.6-2.6-19-7.7c-5.3-5.1-8-11.4-8-19c0-11.1-4-20.6-11.9-28.7c-7.9-8-17.4-12.1-28.5-12.1
		c-11.3,0-20.9,4-28.8,12.1s-11.9,17.6-11.9,28.7c0,7.5-2.7,13.8-8,19c-5.3,5.1-11.6,7.7-19,7.7c-7.5,0-13.8-2.6-19-7.7
		s-7.7-11.4-7.7-19c0.4-26.1,10-48.7,28.8-67.7c-18.8-18.8-28.4-41.3-28.8-67.4c0-7.5,2.6-13.8,7.7-19c5.1-5.1,11.4-7.7,19-7.7
		c7.3,0,13.6,2.6,19,7.7c5.3,5.1,8,11.4,8,19c0,11.1,4,20.6,11.9,28.7c7.9,8,17.5,12.1,28.8,12.1c11.1,0,20.6-4,28.5-12.1
		c7.9-8,11.9-17.6,11.9-28.7c0-7.5,2.7-13.8,8-19c5.3-5.1,11.6-7.7,19-7.7c7.5,0,13.8,2.6,19,7.7C859,106.3,861.6,112.6,861.6,120.1
		z"/>
	<path class="st0" d="M967.1,59.6c7.3,0.2,13.6,2.9,18.8,8.1c5.2,5.2,7.8,11.5,7.8,18.8c0,7.5-2.7,13.8-8,19
		c-5.3,5.1-11.5,7.7-18.6,7.7c-11.3,0-20.9,4-28.8,12.1c-7.9,8-11.9,17.6-11.9,28.7v6.9h40.4c7.3,0,13.6,2.7,19,8
		c5.3,5.3,8,11.6,8,19c0,7.5-2.7,13.8-8,19c-5.3,5.1-11.6,7.7-19,7.7h-40.4v40.7c0,7.5-2.7,13.8-8,19c-5.3,5.1-11.6,7.7-19,7.7
		c-7.5,0-13.8-2.6-19-7.7c-5.1-5.1-7.7-11.4-7.7-19V152.1c0.8-25.3,10.1-46.9,27.9-64.9C918.5,69.3,940.6,60.1,967.1,59.6z"/>
	<path class="st0" d="M1099.3,228.5c7.1,0,13.3,2.6,18.6,7.7c5.3,5.1,8,11.4,8,19c0,7.3-2.6,13.6-7.8,18.8
		c-5.2,5.2-11.5,7.9-18.8,8.1c-26.5-0.4-48.7-9.6-66.4-27.6c-17.8-18-27-39.6-27.9-64.9V86.6c0-7.5,2.6-13.8,7.7-19
		c5.1-5.1,11.4-7.7,19-7.7c7.3,0,13.6,2.6,19,7.7c5.3,5.1,8,11.4,8,19v6.9h40.4c7.3,0,13.6,2.6,19,7.7c5.3,5.1,8,11.4,8,19
		c0,7.3-2.7,13.6-8,19c-5.3,5.3-11.6,8-19,8h-40.4v40.7c0,11.1,4,20.6,11.9,28.7C1078.4,224.5,1088.1,228.5,1099.3,228.5z"/>
</g>
<path class="st0" d="M1155.3,341.7H643.9c-29.2,0-53-23.8-53-53V53c0-29.2,23.8-53,53-53h511.4c29.2,0,53,23.8,53,53v235.7
	C1208.4,317.9,1184.6,341.7,1155.3,341.7z M643.9,8.9c-24.3,0-44.1,19.8-44.1,44.1L616,288.7c0.3,10.2,14.2,29.5,27.9,28l511.4,16.1
	c24.3,0,44.1-19.8,44.1-44.1L1183.4,53c-2.6-14.6-15.6-27.5-28.1-28.1L643.9,8.9z"/>
<g>
	<path class="st1" d="M411.6,59.6c7.1,0,13.3,2.7,18.5,8s7.8,11.7,7.8,19v168.8c0,7.5-2.6,13.9-7.8,19c-5.2,5.1-11.4,7.7-18.5,7.7
		c-7.3,0-13.5-2.6-18.5-7.7c-5-5.1-7.5-11.5-7.5-19V86.6c0-7.3,2.5-13.7,7.5-19S404.3,59.6,411.6,59.6z"/>
	<path class="st1" d="M109.6,211.8c6.9,0,13,2.6,18.2,7.7s7.8,11.5,7.8,19c0,7.3-2.5,13.6-7.6,18.8c-5.1,5.2-11.2,7.9-18.3,8.2
		c-25.9-0.4-65.1-9.6-82.4-27.6C9.9,219.9,0.8,198.2,0,172.9v-52.7c0-7.5,2.5-13.9,7.5-19c5-5.1,11.2-7.7,18.5-7.7
		c7.1,0,13.3,2.6,18.5,7.7c5.2,5.1,7.8,11.5,7.8,19V171c0,11.1,3.9,20.7,11.6,28.7S98.6,211.8,109.6,211.8z M77.2,350.2
		c-7.1-0.2-13.2-2.9-18.3-8.2c-5.1-5.2-7.6-11.5-7.6-18.8c0-7.5,2.6-13.9,7.8-19c5.2-5.1,11.3-7.7,18.2-7.7c11,0,20.4-4,28.1-12.1
		s11.6-17.6,11.6-28.7V120.2c0-7.5,2.5-13.9,7.5-19c5-5.1,11.1-7.7,18.5-7.7c7.1,0,13.3,2.6,18.5,7.7c5.2,5.1,7.8,11.5,7.8,19v137.7
		c-0.8,25.1-9.9,46.6-27.2,64.6C124.7,340.5,103.1,349.8,77.2,350.2z"/>
	<path class="st1" d="M276.4,92.5c26.2,0.6,48,10,65.5,28.1c17.4,18.1,26.6,40.6,27.4,67.4c-0.8,26.9-10,49.3-27.4,67.4
		c-17.4,18.1-39.3,27.4-65.5,28.1c-26.4-0.6-48.3-10-65.8-28.1c-17.4-18.1-26.6-40.6-27.4-67.4c0.8-26.9,10-49.3,27.4-67.4
		C228.1,102.5,250,93.1,276.4,92.5z M316.3,188c0-11.2-3.9-20.9-11.8-29c-7.8-8.1-17.2-12.2-28.2-12.2c-11.1,0-20.6,4.1-28.5,12.2
		c-7.8,8.1-11.8,17.8-11.8,29c0,11.2,3.9,20.9,11.8,29c7.8,8.1,17.3,12.2,28.5,12.2c10.9,0,20.3-4.1,28.2-12.2
		C312.4,208.8,316.3,199.2,316.3,188z"/>
	<path class="st1" d="M546.9,94.6c26.2,0.6,48,10,65.5,28.1c17.4,18.1,26.6,40.6,27.4,67.4c-0.8,26.9-10,49.3-27.4,67.4
		c-17.4,18.1-39.3,27.4-65.5,28.1c-26.4-0.6-48.3-10-65.8-28.1c-17.4-18.1-26.6-40.6-27.4-67.4c0.8-26.9,10-49.3,27.4-67.4
		C498.6,104.6,520.5,95.2,546.9,94.6z M586.8,190.1c0-11.2-3.9-20.9-11.8-29c-7.8-8.1-17.2-12.2-28.2-12.2
		c-11.1,0-20.6,4.1-28.5,12.2c-7.8,8.1-11.8,17.8-11.8,29c0,11.2,3.9,20.9,11.8,29c7.8,8.1,17.3,12.2,28.5,12.2
		c10.9,0,20.3-4.1,28.2-12.2C582.9,211,586.8,201.3,586.8,190.1z"/>
</g>
</svg>
