<?xml version="1.0" encoding="utf-8"?>
<!-- Generator: Adobe Illustrator 25.3.1, SVG Export Plug-In . SVG Version: 6.00 Build 0)  -->
<svg version="1.1" id="Layer_1" xmlns="http://www.w3.org/2000/svg" xmlns:xlink="http://www.w3.org/1999/xlink" x="0px" y="0px"
	 viewBox="0 0 519 313.7" style="enable-background:new 0 0 519 313.7;" xml:space="preserve">
<style type="text/css">
	.st0{fill:#FFFFFF;}
</style>
<g>
	<g>
		<path class="st0" d="M317.1,220.1C317.1,220.1,316.9,219.8,317.1,220.1C317.1,220,317,219.4,317.1,220.1L317.1,220.1
			c-3-3.1-6.2-4.4-10.3-4.4c-4.2,0-7.8,1.5-10.7,4.5c-3,3-4.4,6.6-4.4,10.7v25.2c0,2.8-1,5.2-3,7.1c-2,1.9-4.3,2.9-7.1,2.9
			c-2.8,0-5.2-1-7.1-2.9c-1.9-1.9-2.9-4.3-2.9-7.1v-25.9c0.3-9.4,3.8-17.5,10.3-24.1c6.6-6.7,14.9-10.1,24.8-10.3
			c5.7,0.1,10.9,1.4,15.5,3.7c3.4,1.7,4.2,2.3,4.2,2.3c0,0,0,0,0,0C318,210.5,317.1,220.1,317.1,220.1z"/>
		<path class="st0" d="M178.7,183c2.7,0,5,1,7,3c2,2,3,4.3,3,7v62.3c0,2.8-1,5.1-3,7c-2,1.9-4.3,2.8-7,2.8c-2.8,0-5.1-0.9-7-2.8
			c-1.9-1.9-2.8-4.2-2.8-7v-62.3c0-2.7,0.9-5,2.8-7C173.5,184,175.9,183,178.7,183z"/>
		<path class="st0" d="M64.3,239.1c2.6,0,4.9,0.9,6.9,2.8s3,4.2,3,7c0,2.7-1,5-2.9,6.9c-1.9,1.9-4.2,2.9-6.9,3
			c-9.8-0.2-24.7-3.5-31.2-10.2c-6.6-6.6-10-14.6-10.3-24v-19.4c0-2.8,0.9-5.1,2.8-7s4.2-2.8,7-2.8c2.7,0,5,0.9,7,2.8s3,4.2,3,7
			v18.7c0,4.1,1.5,7.6,4.4,10.6C49.9,237.6,60.1,239.1,64.3,239.1z M52,290.1c-2.7-0.1-5-1.1-6.9-3c-1.9-1.9-2.9-4.2-2.9-6.9
			c0-2.8,1-5.1,2.9-7c2-1.9,4.3-2.8,6.9-2.8c4.2,0,7.7-1.5,10.6-4.5c2.9-3,4.4-6.5,4.4-10.6v-50c0-2.8,0.9-5.1,2.8-7
			c1.9-1.9,4.2-2.8,7-2.8c2.7,0,5,0.9,7,2.8s3,4.2,3,7v50.8c-0.3,9.3-3.7,17.2-10.3,23.8C70,286.6,61.8,290,52,290.1z"/>
		<path class="st0" d="M127.4,195.1c9.9,0.2,18.2,3.7,24.8,10.4c6.6,6.7,10.1,15,10.4,24.9c-0.3,9.9-3.8,18.2-10.4,24.9
			c-6.6,6.7-14.9,10.1-24.8,10.4c-10-0.2-18.3-3.7-24.9-10.4c-6.6-6.7-10.1-15-10.4-24.9c0.3-9.9,3.8-18.2,10.4-24.9
			C109.1,198.8,117.4,195.3,127.4,195.1z M142.5,230.3c0-4.1-1.5-7.7-4.5-10.7c-3-3-6.5-4.5-10.7-4.5c-4.2,0-7.8,1.5-10.8,4.5
			c-3,3-4.5,6.6-4.5,10.7c0,4.1,1.5,7.7,4.5,10.7c3,3,6.6,4.5,10.8,4.5c4.1,0,7.7-1.5,10.7-4.5C141.1,238,142.5,234.4,142.5,230.3z"
			/>
		<path class="st0" d="M397.7,183.1c2.7,0,5,1,7,3s3,4.3,3,7v62.3c0,2.8-1,5.1-3,7s-4.3,2.8-7,2.8c-2.8,0-5.1-0.9-7-2.8
			s-2.8-4.2-2.8-7v-62.3c0-2.7,0.9-5,2.8-7S394.9,183.1,397.7,183.1z M445.8,205.3c-0.2,9.6-3.7,17.9-10.6,24.9
			c6.9,7,10.5,15.4,10.6,25c0,2.8-0.9,5.1-2.8,7s-4.2,2.8-7,2.8c-2.7,0-5-0.9-7-2.8s-3-4.2-3-7c0-4.1-1.5-7.6-4.4-10.6
			c-2.9-3-11.3-4.5-15.4-4.5c-2.6,0-4.9-0.9-6.9-2.8c-2-1.9-3-4.2-3-7c0-2.9,1-5.2,3-7.1s4.3-2.8,6.9-2.8c4.2,0,12.5-1.5,15.4-4.5
			c2.9-3,4.4-6.5,4.4-10.6c0-2.8,1-5.1,3-7s4.3-2.8,7-2.8c2.8,0,5.1,0.9,7,2.8S445.8,202.5,445.8,205.3z"/>
		<path class="st0" d="M486.8,245.4c2.6,0,4.9,0.9,6.9,2.8s3,4.2,3,7c0,2.7-1,5-2.9,6.9c-1.9,1.9-4.2,2.9-6.9,3
			c-9.8-0.2-18-3.5-24.5-10.2c-6.6-6.6-10-14.6-10.3-24v-38.1c0-2.8,0.9-5.1,2.8-7c1.9-1.9,4.2-2.8,7-2.8c2.7,0,5,0.9,7,2.8
			c2,1.9,3,4.2,3,7v2.5h14.9c2.7,0,5,0.9,7,2.8s3,4.2,3,7c0,2.7-1,5-3,7c-2,2-4.3,3-7,3h-14.9v15c0,4.1,1.5,7.6,4.4,10.6
			C479.1,243.9,482.7,245.4,486.8,245.4z"/>
		<path class="st0" d="M229.9,195.9c9.9,0.2,18.2,3.7,24.8,10.4c6.6,6.7,10.1,15,10.4,24.9c-0.3,9.9-3.8,18.2-10.4,24.9
			c-6.6,6.7-14.9,10.1-24.8,10.4c-10-0.2-18.3-3.7-24.9-10.4c-6.6-6.7-10.1-15-10.4-24.9c0.3-9.9,3.8-18.2,10.4-24.9
			C211.6,199.6,219.9,196.1,229.9,195.9z M245,231.1c0-4.1-1.5-7.7-4.5-10.7c-3-3-6.5-4.5-10.7-4.5c-4.2,0-7.8,1.5-10.8,4.5
			c-3,3-4.5,6.6-4.5,10.7c0,4.1,1.5,7.7,4.5,10.7c3,3,6.6,4.5,10.8,4.5c4.1,0,7.7-1.5,10.7-4.5C243.5,238.8,245,235.2,245,231.1z"/>
		<path class="st0" d="M358.2,266.2c-9.7-0.2-17.9-3.6-24.6-10.2c-6.7-6.6-10.2-14.8-10.4-24.5c0.2-10.1,3.7-18.4,10.3-25
			c6.6-6.6,14.7-10,24-10.3h13.8c2.8,0,5.1,1,7,2.9c1.9,1.9,2.9,4.3,2.9,7c0,2.7-1,5.1-2.9,7c-1.9,2-4.3,3-7,3h-13.1
			c-4.1,0-7.7,1.5-10.7,4.4c-3,3-4.5,6.5-4.5,10.6c0,4.2,1.4,7.7,4.3,10.5c2.8,2.8,6.5,4.3,10.9,4.5h13c2.8,0,5.1,1,7,3
			c1.9,2,2.9,4.3,2.9,7c0,2.8-1,5.1-2.9,7c-1.9,1.9-4.3,2.9-7,2.9L358.2,266.2z"/>
		<path class="st0" d="M368,231.2c0,2.7-1,5-3,7c-2,2-4.3,3-7,3h-15.1c-2.8,0-5.1-1-7-3c-1.9-2-2.8-4.3-2.8-7c0-2.8,0.9-5.1,2.8-7
			s4.2-2.8,7-2.8H358c2.7,0,5,0.9,7,2.8S368,228.4,368,231.2z"/>
	</g>
	<g>
		<path class="st0" d="M242.9,78.8c-3.3,0-6.2,2.7-6.2,5.9s2.8,5.8,6.2,5.8c3.6,0,6.2-2.6,6.2-5.8S246.3,78.8,242.9,78.8z"/>
		<path class="st0" d="M222.1,120.9c-3.3,0-6.2,2.7-6.2,5.9c0,3.2,2.8,5.8,6.2,5.8c3.6,0,6.2-2.6,6.2-5.8
			C228.4,123.5,225.5,120.9,222.1,120.9z"/>
		<path class="st0" d="M297.3,128.6c-3.3,0-6.2,2.7-6.2,5.9c0,3.2,2.8,5.8,6.2,5.8c3.6,0,6.2-2.6,6.2-5.8
			C303.6,131.2,300.7,128.6,297.3,128.6z"/>
		<path class="st0" d="M284.7,113c-14.8,0-27.2-11.7-27.2-26.2s12.5-26.2,27.2-26.2c14.8,0,26.8,11.7,26.8,26.2S299.5,113,284.7,113
			z M284.5,70.9c-9.1,0-16.3,7.1-16.3,15.9s7.4,15.9,16.5,15.9s16.1-7.1,16.1-15.9S293.6,70.9,284.5,70.9z"/>
		<path class="st0" d="M259.5,178.6c-42.7,0-77.6-34.8-77.6-77.5s34.8-77.5,77.5-77.5c42.7,0,77.5,34.8,77.5,77.5
			S302.3,178.6,259.5,178.6z M259.5,37c-35.6,0-64.1,28.6-64.1,64.2c0,35.6,28.6,64.1,64.1,64.1c35.6,0,64.1-28.5,64.1-64.1
			C323.6,65.6,295.1,37,259.5,37z"/>
		<path class="st0" d="M264,149c-8,0-14.4-6.1-14.4-13.6s6.5-13.6,14.4-13.6c8,0,14.4,6.1,14.4,13.6S272,149,264,149z M264,130
			c-3.2,0-5.5,2.4-5.5,5.4c0,3,2.3,5.4,5.5,5.4c3.2,0,5.5-2.5,5.5-5.4C269.6,132.4,267.2,130,264,130z"/>
		<path class="st0" d="M222.7,72.3c-8,0-14.4-6.1-14.4-13.6S214.8,45,222.7,45c8,0,14.4,6.1,14.4,13.6S230.7,72.3,222.7,72.3z
			 M222.7,53.3c-3.2,0-5.5,2.4-5.5,5.4s2.3,5.4,5.5,5.4c3.2,0,5.5-2.5,5.5-5.4S225.9,53.3,222.7,53.3z"/>
	</g>
</g>
</svg>
