<?xml version="1.0" encoding="utf-8"?>
<!-- Generator: Adobe Illustrator 26.3.1, SVG Export Plug-In . SVG Version: 6.00 Build 0)  -->
<svg version="1.1" id="Capa_1" xmlns="http://www.w3.org/2000/svg" xmlns:xlink="http://www.w3.org/1999/xlink" x="0px" y="0px"
	 viewBox="0 0 381.3 381.3" style="enable-background:new 0 0 381.3 381.3;" xml:space="preserve">
<style type="text/css">
	.st0{clip-path:url(#SVGID_00000100360258232866444980000003503117659324167326_);}
</style>
<path d="M78.9,79.4L54.5,74c-2.9-0.6-5.3,0-6.4,1.7c-1,1.5-0.9,3.6,0.1,5.9l2.9,6.7c0.7,1.4-0.3,3.1-0.8,3.5
	c-28.4,25.9-44.8,62.7-44.8,101c0,45.4,22.5,87.7,60.1,113.1c1.6,1.1,3.4,1.6,5.3,1.6c3.2,0,6.1-1.6,7.9-4.2
	c1.1-1.6,1.6-3.4,1.6-5.3c0-3.2-1.6-6.1-4.2-7.9c-32.4-21.9-51.8-58.3-51.8-97.4c0-30.9,12.6-61.1,34.5-83.1c0.6-0.6,0.9-0.6,1-0.6
	c0.1,0,0.4,0.2,0.5,0.5l2.7,6.2c1.1,2.6,2.8,4,4.6,4c1.8,0,3.5-1.4,4.7-3.9l11.9-25c1.2-2.4,1.2-5,0.1-7.2
	C83.5,81.5,81.5,80,78.9,79.4z"/>
<path d="M375.7,188.5c0-45.4-22.5-87.7-60.1-113.1c-1.6-1.1-3.4-1.6-5.3-1.6c-3.2,0-6.1,1.6-7.9,4.2c-1.1,1.6-1.6,3.4-1.6,5.3
	c0,3.2,1.6,6.1,4.2,7.9c32.4,21.9,51.8,58.3,51.8,97.4c0,30.9-12.6,61.1-34.5,83.1c-0.6,0.6-0.9,0.6-1,0.6c-0.1,0-0.4-0.2-0.5-0.5
	l-2.7-6.2c-1.1-2.6-2.8-4-4.6-4c-1.8,0-3.5,1.4-4.7,3.9l-11.9,25c-1.2,2.4-1.2,5-0.1,7.2s3.1,3.7,5.8,4.3l24.4,5.4
	c0.8,0.2,1.5,0.3,2.1,0.3c1.9,0,3.4-0.7,4.2-2c1-1.5,0.9-3.6-0.1-5.9l-2.9-6.7c-0.7-1.4,0.3-3.1,0.8-3.5
	C359.4,263.6,375.7,226.8,375.7,188.5z"/>
<path d="M194.8,82.6c-9.7-3.9-12.6-6.3-12.6-10.5c0-3.4,2.6-7.4,9.9-7.4c6.4,0,11.4,2.5,11.4,2.6c0.5,0.3,1.1,0.4,1.7,0.4
	c1.4,0,2.7-0.9,3.2-2.2l1.8-4.5c0.6-1.6-0.3-3.1-1.5-3.6c-4-1.7-11.7-3.1-11.8-3.1c-0.1,0-0.6-0.1-0.6-0.6l0-6.6
	c0-2-1.7-3.6-3.7-3.6h-3.2c-2,0-3.7,1.6-3.7,3.6l0,6.9c0,0.5-0.6,0.8-0.8,0.8c-9.8,2.3-15.9,9.5-15.9,18.6
	c0,11.3,9.3,16.4,19.4,20.2c8,3.2,11.3,6.4,11.3,11.1c0,5.1-4.6,8.7-11.3,8.7c-5.7,0-13.4-3.6-13.5-3.6c-0.5-0.2-1-0.4-1.6-0.4
	c-1.5,0-2.7,0.9-3.3,2.3l-1.7,4.6c-0.6,1.7,0.3,3.1,1.5,3.7c4.7,2.5,13.9,3.9,14.3,4c0.1,0,0.7,0.2,0.7,0.7v6.9c0,2,1.7,3.6,3.7,3.6
	h3.3c2,0,3.7-1.6,3.7-3.6v-7.2c0-0.7,0.5-0.7,0.6-0.8c10.4-2.3,16.9-10,16.9-19.6C213,94,207.6,87.6,194.8,82.6z"/>
<g>
	<path d="M276.6,292.1c0,47.6-38.6,86.2-86.2,86.2s-86.2-38.6-86.2-86.2s38.6-86.2,86.2-86.2S276.6,244.5,276.6,292.1z M190.4,220.8
		c-39.4,0-71.3,31.9-71.3,71.3s31.9,71.3,71.3,71.3s71.3-31.9,71.3-71.3S229.7,220.8,190.4,220.8z"/>
	<path d="M248.2,276.2c0,15.3-13.4,29.1-30,29.1c-16.8-0.6-30-13.7-30-29.1c0-15.3,13.4-28.7,30-29.1
		C234.8,247.5,248.2,260.9,248.2,276.2z M236.3,276.2c0-9.8-8.1-17.7-18.2-17.7c-10,0-18.2,7.9-18.2,17.7c0,9.8,8.1,17.7,18.2,17.7
		C228.2,293.9,236.3,286,236.3,276.2z"/>
	<path d="M211.5,330.2c0,8.2-7,14.9-16,15.1c-9,0-16-6.9-16-15.1s7.2-15.2,16-15.2C204.3,315.3,211.5,322,211.5,330.2z M201.6,330.2
		c0-3.3-2.8-6-6.2-6c-3.4,0-6.2,2.7-6.2,6s2.8,6,6.2,6C198.8,336.2,201.6,333.5,201.6,330.2z"/>
	<path d="M172,267.2c-3.7,0-6.9,3-6.9,6.5s3.1,6.5,6.9,6.5c4,0,6.9-2.9,6.9-6.5S175.7,267.2,172,267.2z"/>
	<path d="M148.8,314.1c-3.7,0-6.9,3-6.9,6.5s3.1,6.5,6.9,6.5c4,0,6.9-2.9,6.9-6.5S152.6,314.1,148.8,314.1z"/>
	<path d="M232.5,322.6c-3.7,0-6.9,3-6.9,6.5s3.1,6.5,6.9,6.5c4,0,6.9-2.9,6.9-6.5S236.2,322.6,232.5,322.6z"/>
	<g>
		<defs>
			<circle id="SVGID_1_" cx="190.4" cy="292.1" r="71.3"/>
		</defs>
		<clipPath id="SVGID_00000085929619592307895850000017144531956162160554_">
			<use xlink:href="#SVGID_1_"  style="overflow:visible;"/>
		</clipPath>
		<path style="clip-path:url(#SVGID_00000085929619592307895850000017144531956162160554_);" d="M165.5,245.9
			c-0.5,8.2-7.9,14.4-16.9,14.1c-8.9-0.5-15.6-7.9-15.1-16.1c0.5-8.2,8.1-14.7,16.9-14.2C159.3,230.5,166,237.7,165.5,245.9z
			 M155.6,245.3c0.2-3.3-2.4-6.2-5.8-6.4c-3.4-0.2-6.3,2.3-6.5,5.6c-0.2,3.3,2.4,6.2,5.8,6.4C152.5,251.1,155.4,248.6,155.6,245.3z"
			/>
	</g>
</g>
<path d="M276.9,89.2c0,47.6-38.6,86.2-86.2,86.2s-86.2-38.6-86.2-86.2S143,3,190.7,3S276.9,41.6,276.9,89.2z M190.7,17.9
	c-39.4,0-71.3,31.9-71.3,71.3s31.9,71.3,71.3,71.3S262,128.6,262,89.2S230,17.9,190.7,17.9z"/>
</svg>
