<?xml version="1.0" encoding="iso-8859-1"?>
<!-- Generator: Adobe Illustrator 19.0.0, SVG Export Plug-In . SVG Version: 6.00 Build 0)  -->
<svg version="1.1" id="Layer_1" xmlns="http://www.w3.org/2000/svg" xmlns:xlink="http://www.w3.org/1999/xlink" x="0px" y="0px"
	 viewBox="0 0 507.628 507.628" style="enable-background:new 0 0 507.628 507.628;" xml:space="preserve">
<g>
	<g>
		<g>
			<path d="M324.724,98.523c11.456,5.248,22.379,11.797,32.491,19.477c3.84,2.965,8.384,4.373,12.885,4.373
				c6.443,0,12.8-2.901,17.003-8.405c7.125-9.387,5.312-22.763-4.053-29.888c-12.587-9.6-26.24-17.792-40.576-24.341
				c-10.752-4.971-23.36-0.192-28.267,10.517C309.321,80.965,314.014,93.637,324.724,98.523z"/>
			<path d="M419.06,210.971c2.496,9.579,11.157,15.957,20.629,15.957c1.792,0,3.584-0.213,5.397-0.683
				c11.392-2.987,18.219-14.613,15.275-26.027c-3.989-15.296-9.664-30.165-16.896-44.16c-5.419-10.496-18.325-14.635-28.757-9.195
				c-10.453,5.419-14.571,18.283-9.173,28.757C411.337,186.821,415.881,198.725,419.06,210.971z"/>
			<path d="M89.673,151.877c3.904,3.093,8.555,4.587,13.184,4.587c6.315,0,12.565-2.773,16.768-8.128
				c7.829-9.92,16.768-19.008,26.581-26.987c9.131-7.467,10.496-20.885,3.072-30.037c-7.445-9.088-20.864-10.475-30.037-3.051
				c-12.224,9.963-23.36,21.291-33.109,33.664C78.836,131.184,80.414,144.581,89.673,151.877z"/>
			<path d="M208.521,88.517c1.664,0,3.349-0.192,5.035-0.597c12.203-2.965,24.832-4.544,37.547-4.736
				c11.797-0.192,21.184-9.899,20.992-21.675c-0.171-11.776-9.323-21.76-21.653-20.992c-15.872,0.235-31.68,2.24-46.912,5.931
				c-11.456,2.773-18.496,14.293-15.723,25.749C190.174,81.968,198.9,88.517,208.521,88.517z"/>
			<path d="M505.372,325.234l-40.469-80.96c-0.062-0.123-0.137-0.235-0.201-0.356c-0.14-0.267-0.292-0.525-0.443-0.785
				c-0.214-0.37-0.43-0.738-0.663-1.091c-0.116-0.174-0.24-0.34-0.361-0.511c-0.294-0.418-0.593-0.83-0.913-1.221
				c-0.069-0.084-0.143-0.162-0.213-0.245c-0.384-0.455-0.778-0.897-1.194-1.314c-0.028-0.028-0.059-0.054-0.087-0.082
				c-0.46-0.455-0.934-0.891-1.429-1.299c-0.029-0.024-0.061-0.046-0.091-0.07c-0.494-0.403-1.001-0.786-1.525-1.141
				c-0.088-0.06-0.181-0.111-0.27-0.17c-0.473-0.309-0.951-0.608-1.445-0.878c-0.174-0.096-0.357-0.177-0.534-0.268
				c-0.423-0.216-0.846-0.43-1.282-0.618c-0.238-0.103-0.485-0.188-0.728-0.282c-0.396-0.154-0.792-0.308-1.196-0.438
				c-0.253-0.081-0.512-0.144-0.769-0.216c-0.419-0.117-0.838-0.233-1.264-0.325c-0.226-0.048-0.456-0.082-0.684-0.123
				c-0.479-0.087-0.958-0.166-1.443-0.22c-0.183-0.02-0.369-0.03-0.553-0.046c-0.539-0.046-1.079-0.077-1.622-0.082
				c-0.06,0-0.118-0.009-0.179-0.009c-0.11,0-0.217,0.015-0.327,0.016c-0.539,0.008-1.078,0.032-1.619,0.082
				c-0.206,0.019-0.409,0.045-0.613,0.07c-0.475,0.057-0.948,0.127-1.421,0.217c-0.268,0.051-0.533,0.111-0.798,0.172
				c-0.393,0.091-0.785,0.188-1.176,0.302c-0.333,0.097-0.659,0.206-0.984,0.318c-0.319,0.11-0.636,0.222-0.952,0.349
				c-0.376,0.15-0.742,0.315-1.106,0.485c-0.179,0.083-0.362,0.148-0.539,0.236l-80.96,40.491
				c-10.538,5.27-14.808,18.085-9.538,28.623c5.27,10.538,18.085,14.808,28.623,9.538l46.158-23.085
				c-16.706,76.732-85.003,134.187-166.747,134.187c-81.741,0-150.037-57.452-166.745-134.181l46.16,23.074
				c10.539,5.268,23.353,0.995,28.621-9.544c5.268-10.539,0.995-23.353-9.544-28.621l-68.665-34.323
				c0.623-8.318,1.836-16.581,3.664-24.694c2.581-11.499-4.629-22.912-16.107-25.493c-11.584-2.624-22.933,4.629-25.515,16.128
				c-3.078,13.681-4.794,27.717-5.134,41.807L2.257,325.225c-5.269,10.538-0.998,23.353,9.541,28.622s23.353,0.998,28.622-9.541
				l11.176-22.351c28.427,84.412,108.216,145.197,202.219,145.197c94.003,0,173.792-60.785,202.219-145.196l11.175,22.355
				c5.268,10.539,18.082,14.812,28.621,9.544S510.64,335.772,505.372,325.234z"/>
		</g>
	</g>
</g>
<g>
</g>
<g>
</g>
<g>
</g>
<g>
</g>
<g>
</g>
<g>
</g>
<g>
</g>
<g>
</g>
<g>
</g>
<g>
</g>
<g>
</g>
<g>
</g>
<g>
</g>
<g>
</g>
<g>
</g>
</svg>
